{"glyphs":{"0":{"ha":843,"x_min":64,"x_max":779,"o":"m 421 -14 q 230 47 310 -14 q 107 220 150 108 q 64 486 64 332 q 107 752 64 640 q 230 925 150 864 q 421 986 310 986 q 613 925 532 986 q 736 752 693 864 q 779 486 779 640 q 736 220 779 332 q 613 47 693 108 q 421 -14 532 -14 m 421 122 q 578 217 522 122 q 633 486 633 313 q 578 755 633 660 q 421 850 522 850 q 264 755 319 850 q 208 486 208 660 q 264 217 208 313 q 421 122 319 122 z "},"1":{"ha":694,"x_min":121,"x_max":611,"o":"m 301 68 l 301 857 l 353 818 l 161 717 l 121 847 l 381 986 l 453 986 l 453 68 l 301 68 m 147 0 l 147 144 l 611 144 l 611 0 l 147 0 z "},"2":{"ha":761,"x_min":71,"x_max":717,"o":"m 129 0 l 83 114 l 381 449 q 430 506 404 474 q 479 574 456 539 q 517 642 503 608 q 532 707 532 676 q 515 783 532 751 q 465 831 497 814 q 386 847 432 847 q 307 824 346 847 q 236 757 268 800 q 186 657 204 714 l 71 729 q 142 867 94 810 q 258 956 190 925 q 404 986 325 986 q 550 952 486 986 q 650 858 614 918 q 686 718 686 797 q 679 653 686 686 q 657 584 672 619 q 618 510 642 549 q 562 431 594 472 q 488 343 529 389 l 267 103 l 239 144 l 717 144 l 717 0 l 129 0 z "},"3":{"ha":735,"x_min":28,"x_max":686,"o":"m 349 -14 q 170 33 246 -14 q 28 192 94 81 l 144 265 q 213 181 179 214 q 283 133 247 149 q 360 118 319 118 q 450 142 408 118 q 517 210 492 167 q 542 307 542 253 q 522 399 542 361 q 465 458 503 438 q 376 478 428 478 q 327 473 353 478 q 272 459 301 468 q 208 436 243 450 l 167 546 l 467 876 l 496 833 l 82 833 l 82 972 l 639 972 l 667 917 l 349 564 l 314 600 q 351 610 325 606 q 393 615 376 615 q 508 592 454 615 q 601 528 561 569 q 663 433 640 488 q 686 315 686 378 q 641 147 686 221 q 519 29 596 72 q 349 -14 443 -14 z "},"4":{"ha":861,"x_min":42,"x_max":803,"o":"m 489 0 l 489 783 l 524 775 l 204 385 l 199 401 l 803 401 l 803 264 l 106 264 l 42 389 l 518 972 l 633 972 l 633 0 l 489 0 z "},"5":{"ha":789,"x_min":54,"x_max":706,"o":"m 357 -10 q 183 34 261 -10 q 54 160 106 78 l 138 253 q 251 154 203 181 q 357 128 300 128 q 460 153 414 128 q 533 221 506 178 q 560 317 560 264 q 534 416 560 372 q 465 485 508 460 q 368 511 422 511 q 318 508 342 511 q 261 492 294 504 q 174 453 228 479 l 94 560 l 151 972 l 676 972 l 676 833 l 246 833 l 275 860 l 229 551 l 194 592 q 242 619 208 606 q 316 641 275 632 q 394 650 357 650 q 553 609 483 650 q 665 496 624 568 q 706 331 706 424 q 660 158 706 235 q 535 35 614 81 q 357 -10 456 -10 z "},"6":{"ha":774,"x_min":56,"x_max":725,"o":"m 393 0 q 259 26 321 0 q 152 97 197 51 q 81 206 107 143 q 56 343 56 268 q 66 427 56 381 q 98 529 76 474 q 150 647 119 585 q 221 775 181 708 l 347 989 l 493 989 l 499 975 l 346 718 q 272 583 304 647 q 217 463 239 519 q 183 361 194 407 l 150 504 q 207 580 176 547 q 273 635 238 613 q 347 668 308 657 q 428 679 386 679 q 576 635 508 679 q 684 519 643 592 q 725 361 725 447 q 683 176 725 257 q 565 47 640 94 q 393 0 490 0 m 393 139 q 490 165 447 139 q 556 237 532 190 q 581 343 581 283 q 556 440 581 394 q 489 513 531 485 q 396 540 447 540 q 294 514 339 540 q 225 443 250 488 q 200 344 200 399 q 225 240 200 286 q 293 166 250 193 q 393 139 336 139 z "},"7":{"ha":753,"x_min":83,"x_max":704,"o":"m 156 0 l 558 878 l 575 833 l 83 833 l 83 972 l 685 972 l 704 876 l 317 0 l 156 0 z "},"8":{"ha":804,"x_min":74,"x_max":731,"o":"m 401 -4 q 237 34 311 -4 q 118 136 163 72 q 74 278 74 200 q 85 359 74 321 q 122 429 97 397 q 181 488 146 461 q 261 535 215 514 l 253 506 q 188 540 217 519 q 139 586 160 560 q 108 643 118 613 q 97 707 97 674 q 138 840 97 781 q 248 936 179 900 q 401 972 317 972 q 555 936 486 972 q 665 840 624 900 q 706 707 706 781 q 695 643 706 674 q 665 588 685 613 q 616 542 646 563 q 549 506 586 521 l 544 529 q 620 486 586 513 q 679 426 654 460 q 717 356 704 393 q 731 278 731 318 q 686 135 731 199 q 567 33 642 71 q 401 -4 493 -4 m 401 135 q 494 154 453 135 q 558 207 535 174 q 582 283 582 240 q 558 365 582 329 q 494 421 535 400 q 401 442 453 442 q 310 421 350 442 q 246 365 269 400 q 222 283 222 329 q 246 208 222 242 q 310 155 269 175 q 401 135 350 135 m 401 575 q 481 592 446 575 q 537 637 517 608 q 557 703 557 665 q 537 769 557 740 q 481 816 517 799 q 401 833 446 833 q 322 816 357 833 q 266 769 286 799 q 246 703 246 740 q 266 637 246 665 q 322 592 286 608 q 401 575 357 575 z "},"9":{"ha":765,"x_min":42,"x_max":717,"o":"m 317 0 l 311 14 l 600 628 l 604 513 q 549 439 579 471 q 484 384 519 407 q 411 349 449 361 q 335 338 374 338 q 189 379 256 338 q 82 490 122 421 q 42 642 42 560 q 86 819 42 740 q 208 943 131 897 q 381 989 285 989 q 511 964 450 989 q 618 894 572 939 q 690 790 664 849 q 717 664 717 731 q 710 590 717 629 q 687 501 703 550 q 644 388 671 451 q 579 242 618 325 l 464 0 l 317 0 m 367 476 q 464 501 421 476 q 531 566 507 525 q 556 658 556 607 q 532 756 556 713 q 466 825 508 800 q 369 850 424 850 q 281 826 319 850 q 219 759 242 801 q 196 660 196 717 q 219 569 196 611 q 281 502 242 528 q 367 476 319 476 z "},"A":{"ha":972,"x_min":35,"x_max":938,"o":"m 35 0 l 411 972 l 564 972 l 938 0 l 778 0 l 556 586 q 540 633 551 596 q 513 717 528 671 q 485 801 497 763 q 468 850 472 839 l 500 851 q 480 792 492 828 q 455 715 468 756 q 429 640 442 675 q 408 581 417 604 l 188 0 l 35 0 m 201 242 l 257 386 l 699 386 l 763 242 l 201 242 z "},"Á":{"ha":972,"x_min":35,"x_max":938,"o":"m 35 0 l 411 972 l 564 972 l 938 0 l 778 0 l 556 586 q 540 633 551 596 q 513 717 528 671 q 485 801 497 763 q 468 850 472 839 l 500 851 q 480 792 492 828 q 455 715 468 756 q 429 640 442 675 q 408 581 417 604 l 188 0 l 35 0 m 201 242 l 257 386 l 699 386 l 763 242 l 201 242 m 392 1049 l 353 1121 l 607 1278 l 672 1153 l 392 1049 z "},"Ă":{"ha":972,"x_min":35,"x_max":938,"o":"m 35 0 l 411 972 l 564 972 l 938 0 l 778 0 l 556 586 q 540 633 551 596 q 513 717 528 671 q 485 801 497 763 q 468 850 472 839 l 500 851 q 480 792 492 828 q 455 715 468 756 q 429 640 442 675 q 408 581 417 604 l 188 0 l 35 0 m 201 242 l 257 386 l 699 386 l 763 242 l 201 242 m 486 1043 q 383 1069 429 1043 q 305 1137 336 1094 q 261 1229 274 1179 l 364 1246 q 411 1183 379 1211 q 486 1156 443 1156 q 561 1183 529 1156 q 608 1246 593 1211 l 711 1229 q 668 1137 700 1179 q 590 1069 636 1094 q 486 1043 544 1043 z "},"Ắ":{"ha":972,"x_min":35,"x_max":938,"o":"m 35 0 l 411 972 l 564 972 l 938 0 l 778 0 l 556 586 q 540 633 551 596 q 513 717 528 671 q 485 801 497 763 q 468 850 472 839 l 500 851 q 480 792 492 828 q 455 715 468 756 q 429 640 442 675 q 408 581 417 604 l 188 0 l 35 0 m 201 242 l 257 386 l 699 386 l 763 242 l 201 242 m 486 1043 q 340 1093 400 1043 q 261 1229 279 1143 l 358 1246 q 410 1173 378 1196 q 486 1150 443 1150 q 562 1173 529 1150 q 614 1246 594 1196 l 711 1229 q 633 1093 693 1143 q 486 1043 572 1043 m 494 1229 l 428 1282 l 543 1485 l 663 1397 l 494 1229 z "},"Ặ":{"ha":972,"x_min":35,"x_max":938,"o":"m 35 0 l 411 972 l 564 972 l 938 0 l 778 0 l 556 586 q 540 633 551 596 q 513 717 528 671 q 485 801 497 763 q 468 850 472 839 l 500 851 q 480 792 492 828 q 455 715 468 756 q 429 640 442 675 q 408 581 417 604 l 188 0 l 35 0 m 201 242 l 257 386 l 699 386 l 763 242 l 201 242 m 486 -286 q 415 -262 440 -286 q 390 -196 390 -239 q 416 -131 390 -156 q 486 -106 442 -106 q 557 -129 532 -106 q 582 -196 582 -153 q 556 -261 582 -236 q 486 -286 531 -286 m 486 1043 q 383 1069 429 1043 q 305 1137 336 1094 q 261 1229 274 1179 l 364 1246 q 411 1183 379 1211 q 486 1156 443 1156 q 561 1183 529 1156 q 608 1246 593 1211 l 711 1229 q 668 1137 700 1179 q 590 1069 636 1094 q 486 1043 544 1043 z "},"Ằ":{"ha":972,"x_min":35,"x_max":938,"o":"m 35 0 l 411 972 l 564 972 l 938 0 l 778 0 l 556 586 q 540 633 551 596 q 513 717 528 671 q 485 801 497 763 q 468 850 472 839 l 500 851 q 480 792 492 828 q 455 715 468 756 q 429 640 442 675 q 408 581 417 604 l 188 0 l 35 0 m 201 242 l 257 386 l 699 386 l 763 242 l 201 242 m 486 1043 q 340 1093 400 1043 q 261 1229 279 1143 l 358 1246 q 410 1173 379 1196 q 486 1150 442 1150 q 562 1173 529 1150 q 614 1246 594 1196 l 711 1229 q 633 1093 693 1143 q 486 1043 572 1043 m 485 1229 l 317 1397 l 436 1485 l 551 1282 l 485 1229 z "},"Ẳ":{"ha":972,"x_min":35,"x_max":938,"o":"m 35 0 l 411 972 l 564 972 l 938 0 l 778 0 l 556 586 q 540 633 551 596 q 513 717 528 671 q 485 801 497 763 q 468 850 472 839 l 500 851 q 480 792 492 828 q 455 715 468 756 q 429 640 442 675 q 408 581 417 604 l 188 0 l 35 0 m 201 242 l 257 386 l 699 386 l 763 242 l 201 242 m 486 1043 q 340 1093 400 1043 q 261 1229 279 1143 l 358 1246 q 410 1173 378 1196 q 486 1150 443 1150 q 562 1173 529 1150 q 614 1246 594 1196 l 711 1229 q 633 1093 693 1143 q 486 1043 572 1043 m 458 1229 q 444 1253 450 1240 q 438 1278 438 1265 q 444 1303 438 1290 q 475 1332 450 1315 q 506 1354 496 1346 q 517 1368 517 1363 q 505 1386 517 1381 q 475 1392 493 1392 q 426 1385 453 1392 q 376 1367 400 1378 l 354 1454 q 417 1479 383 1471 q 478 1488 450 1488 q 588 1456 551 1488 q 625 1381 625 1425 q 608 1334 625 1351 q 574 1306 590 1317 q 536 1281 547 1290 q 525 1263 525 1271 q 526 1255 525 1258 q 529 1247 528 1251 l 458 1229 z "},"Ẵ":{"ha":972,"x_min":35,"x_max":938,"o":"m 35 0 l 411 972 l 564 972 l 938 0 l 778 0 l 556 586 q 540 633 551 596 q 513 717 528 671 q 485 801 497 763 q 468 850 472 839 l 500 851 q 480 792 492 828 q 455 715 468 756 q 429 640 442 675 q 408 581 417 604 l 188 0 l 35 0 m 201 242 l 257 386 l 699 386 l 763 242 l 201 242 m 486 1043 q 340 1089 400 1043 q 261 1215 279 1135 l 358 1232 q 410 1169 378 1189 q 486 1150 443 1150 q 562 1169 529 1150 q 614 1232 594 1189 l 711 1215 q 633 1089 693 1135 q 486 1043 572 1043 m 594 1301 q 533 1311 561 1301 q 481 1331 504 1321 q 439 1349 456 1342 q 408 1356 422 1356 q 376 1342 390 1356 q 357 1304 363 1328 l 263 1318 q 304 1417 265 1375 q 399 1460 343 1460 q 452 1450 428 1460 q 501 1429 476 1440 q 538 1413 519 1421 q 571 1406 557 1406 q 601 1419 590 1406 q 617 1458 611 1432 l 711 1444 q 696 1373 710 1406 q 657 1321 682 1340 q 594 1301 632 1301 z "},"Ǎ":{"ha":972,"x_min":35,"x_max":938,"o":"m 35 0 l 411 972 l 564 972 l 938 0 l 778 0 l 556 586 q 540 633 551 596 q 513 717 528 671 q 485 801 497 763 q 468 850 472 839 l 500 851 q 480 792 492 828 q 455 715 468 756 q 429 640 442 675 q 408 581 417 604 l 188 0 l 35 0 m 201 242 l 257 386 l 699 386 l 763 242 l 201 242 m 426 1051 l 260 1194 l 313 1240 l 507 1153 l 465 1153 l 660 1240 l 713 1194 l 546 1051 l 426 1051 z "},"Â":{"ha":972,"x_min":35,"x_max":938,"o":"m 35 0 l 411 972 l 564 972 l 938 0 l 778 0 l 556 586 q 540 633 551 596 q 513 717 528 671 q 485 801 497 763 q 468 850 472 839 l 500 851 q 480 792 492 828 q 455 715 468 756 q 429 640 442 675 q 408 581 417 604 l 188 0 l 35 0 m 201 242 l 257 386 l 699 386 l 763 242 l 201 242 m 314 1049 l 263 1097 l 435 1238 l 536 1238 l 708 1097 l 657 1049 l 465 1139 l 506 1139 l 314 1049 z "},"Ấ":{"ha":972,"x_min":35,"x_max":938,"o":"m 35 0 l 411 972 l 564 972 l 938 0 l 778 0 l 556 586 q 540 633 551 596 q 513 717 528 671 q 485 801 497 763 q 468 850 472 839 l 500 851 q 480 792 492 828 q 455 715 468 756 q 429 640 442 675 q 408 581 417 604 l 188 0 l 35 0 m 201 242 l 257 386 l 699 386 l 763 242 l 201 242 m 314 1049 l 268 1099 l 435 1235 l 536 1235 l 703 1099 l 657 1049 l 465 1136 l 506 1136 l 314 1049 m 711 1200 l 639 1250 l 753 1453 l 874 1367 l 711 1200 z "},"Ậ":{"ha":972,"x_min":35,"x_max":938,"o":"m 35 0 l 411 972 l 564 972 l 938 0 l 778 0 l 556 586 q 540 633 551 596 q 513 717 528 671 q 485 801 497 763 q 468 850 472 839 l 500 851 q 480 792 492 828 q 455 715 468 756 q 429 640 442 675 q 408 581 417 604 l 188 0 l 35 0 m 201 242 l 257 386 l 699 386 l 763 242 l 201 242 m 486 -286 q 415 -262 440 -286 q 390 -196 390 -239 q 416 -131 390 -156 q 486 -106 442 -106 q 557 -129 532 -106 q 582 -196 582 -153 q 556 -261 582 -236 q 486 -286 531 -286 m 314 1049 l 263 1097 l 435 1238 l 536 1238 l 708 1097 l 657 1049 l 465 1139 l 506 1139 l 314 1049 z "},"Ầ":{"ha":972,"x_min":35,"x_max":938,"o":"m 35 0 l 411 972 l 564 972 l 938 0 l 778 0 l 556 586 q 540 633 551 596 q 513 717 528 671 q 485 801 497 763 q 468 850 472 839 l 500 851 q 480 792 492 828 q 455 715 468 756 q 429 640 442 675 q 408 581 417 604 l 188 0 l 35 0 m 201 242 l 257 386 l 699 386 l 763 242 l 201 242 m 314 1049 l 268 1099 l 435 1235 l 536 1235 l 703 1099 l 657 1049 l 465 1136 l 506 1136 l 314 1049 m 715 1201 l 547 1369 l 667 1457 l 782 1254 l 715 1201 z "},"Ẩ":{"ha":972,"x_min":35,"x_max":938,"o":"m 35 0 l 411 972 l 564 972 l 938 0 l 778 0 l 556 586 q 540 633 551 596 q 513 717 528 671 q 485 801 497 763 q 468 850 472 839 l 500 851 q 480 792 492 828 q 455 715 468 756 q 429 640 442 675 q 408 581 417 604 l 188 0 l 35 0 m 201 242 l 257 386 l 699 386 l 763 242 l 201 242 m 314 1049 l 268 1099 l 435 1235 l 536 1235 l 703 1099 l 657 1049 l 465 1136 l 506 1136 l 314 1049 m 672 1199 q 658 1222 664 1210 q 651 1247 651 1235 q 658 1272 651 1260 q 689 1301 664 1285 q 720 1324 710 1315 q 731 1338 731 1332 q 719 1356 731 1350 q 689 1361 707 1361 q 640 1354 667 1361 q 590 1336 614 1347 l 568 1424 q 631 1449 597 1440 q 692 1457 664 1457 q 802 1426 765 1457 q 839 1350 839 1394 q 822 1303 839 1321 q 788 1275 804 1286 q 750 1250 761 1260 q 739 1232 739 1240 q 740 1224 739 1228 q 743 1217 742 1221 l 672 1199 z "},"Ẫ":{"ha":972,"x_min":35,"x_max":938,"o":"m 35 0 l 411 972 l 564 972 l 938 0 l 778 0 l 556 586 q 540 633 551 596 q 513 717 528 671 q 485 801 497 763 q 468 850 472 839 l 500 851 q 480 792 492 828 q 455 715 468 756 q 429 640 442 675 q 408 581 417 604 l 188 0 l 35 0 m 201 242 l 257 386 l 699 386 l 763 242 l 201 242 m 314 1049 l 268 1099 l 435 1235 l 536 1235 l 703 1099 l 657 1049 l 465 1136 l 506 1136 l 314 1049 m 593 1301 q 531 1311 560 1301 q 479 1331 503 1321 q 438 1349 454 1342 q 407 1356 421 1356 q 375 1342 389 1356 q 356 1304 361 1328 l 261 1318 q 303 1417 264 1375 q 397 1460 342 1460 q 451 1450 426 1460 q 500 1429 475 1440 q 537 1413 518 1421 q 569 1406 556 1406 q 599 1419 589 1406 q 615 1458 610 1432 l 710 1444 q 694 1373 708 1406 q 656 1321 681 1340 q 593 1301 631 1301 z "},"Ȁ":{"ha":972,"x_min":35,"x_max":938,"o":"m 35 0 l 411 972 l 564 972 l 938 0 l 778 0 l 556 586 q 540 633 551 596 q 513 717 528 671 q 485 801 497 763 q 468 850 472 839 l 500 851 q 480 792 492 828 q 455 715 468 756 q 429 640 442 675 q 408 581 417 604 l 188 0 l 35 0 m 201 242 l 257 386 l 699 386 l 763 242 l 201 242 m 640 1042 l 411 1193 l 511 1299 l 693 1108 l 640 1042 m 364 1042 l 135 1193 l 235 1299 l 417 1108 l 364 1042 z "},"Ä":{"ha":972,"x_min":35,"x_max":938,"o":"m 35 0 l 411 972 l 564 972 l 938 0 l 778 0 l 556 586 q 540 633 551 596 q 513 717 528 671 q 485 801 497 763 q 468 850 472 839 l 500 851 q 480 792 492 828 q 455 715 468 756 q 429 640 442 675 q 408 581 417 604 l 188 0 l 35 0 m 201 242 l 257 386 l 699 386 l 763 242 l 201 242 m 629 1054 q 557 1079 581 1054 q 533 1144 533 1104 q 557 1207 533 1179 q 629 1235 581 1235 q 701 1210 678 1235 q 725 1144 725 1185 q 701 1082 725 1110 q 629 1054 678 1054 m 343 1054 q 271 1079 294 1054 q 247 1144 247 1104 q 271 1207 247 1179 q 343 1235 294 1235 q 415 1210 392 1235 q 439 1144 439 1185 q 415 1082 439 1110 q 343 1054 392 1054 z "},"Ạ":{"ha":972,"x_min":35,"x_max":938,"o":"m 35 0 l 411 972 l 564 972 l 938 0 l 778 0 l 556 586 q 540 633 551 596 q 513 717 528 671 q 485 801 497 763 q 468 850 472 839 l 500 851 q 480 792 492 828 q 455 715 468 756 q 429 640 442 675 q 408 581 417 604 l 188 0 l 35 0 m 201 242 l 257 386 l 699 386 l 763 242 l 201 242 m 486 -286 q 415 -262 440 -286 q 390 -196 390 -239 q 416 -131 390 -156 q 486 -106 442 -106 q 557 -129 532 -106 q 582 -196 582 -153 q 556 -261 582 -236 q 486 -286 531 -286 z "},"À":{"ha":972,"x_min":35,"x_max":938,"o":"m 35 0 l 411 972 l 564 972 l 938 0 l 778 0 l 556 586 q 540 633 551 596 q 513 717 528 671 q 485 801 497 763 q 468 850 472 839 l 500 851 q 480 792 492 828 q 455 715 468 756 q 429 640 442 675 q 408 581 417 604 l 188 0 l 35 0 m 201 242 l 257 386 l 699 386 l 763 242 l 201 242 m 592 1049 l 311 1153 l 379 1278 l 633 1121 l 592 1049 z "},"Ả":{"ha":972,"x_min":35,"x_max":938,"o":"m 35 0 l 411 972 l 564 972 l 938 0 l 778 0 l 556 586 q 540 633 551 596 q 513 717 528 671 q 485 801 497 763 q 468 850 472 839 l 500 851 q 480 792 492 828 q 455 715 468 756 q 429 640 442 675 q 408 581 417 604 l 188 0 l 35 0 m 201 242 l 257 386 l 699 386 l 763 242 l 201 242 m 454 1053 q 439 1080 444 1067 q 433 1106 433 1093 q 441 1133 433 1118 q 471 1164 449 1149 q 503 1188 494 1179 q 513 1206 513 1196 q 501 1224 513 1218 q 471 1229 489 1229 q 422 1222 449 1229 q 372 1204 396 1215 l 350 1292 q 413 1317 379 1308 q 474 1325 446 1325 q 584 1294 547 1325 q 621 1218 621 1263 q 605 1163 621 1183 q 569 1133 589 1143 q 533 1112 544 1121 q 521 1089 521 1103 q 522 1079 521 1083 q 525 1071 524 1075 l 454 1053 z "},"Ȃ":{"ha":972,"x_min":35,"x_max":938,"o":"m 35 0 l 411 972 l 564 972 l 938 0 l 778 0 l 556 586 q 540 633 551 596 q 513 717 528 671 q 485 801 497 763 q 468 850 472 839 l 500 851 q 480 792 492 828 q 455 715 468 756 q 429 640 442 675 q 408 581 417 604 l 188 0 l 35 0 m 201 242 l 257 386 l 699 386 l 763 242 l 201 242 m 364 1043 l 261 1060 q 305 1152 274 1110 q 383 1220 336 1194 q 486 1246 429 1246 q 590 1220 544 1246 q 668 1152 636 1194 q 711 1060 700 1110 l 608 1043 q 561 1106 593 1078 q 486 1133 529 1133 q 411 1106 443 1133 q 364 1043 379 1078 z "},"Ā":{"ha":972,"x_min":35,"x_max":938,"o":"m 35 0 l 411 972 l 564 972 l 938 0 l 778 0 l 556 586 q 540 633 551 596 q 513 717 528 671 q 485 801 497 763 q 468 850 472 839 l 500 851 q 480 792 492 828 q 455 715 468 756 q 429 640 442 675 q 408 581 417 604 l 188 0 l 35 0 m 201 242 l 257 386 l 699 386 l 763 242 l 201 242 m 256 1093 l 256 1197 l 715 1197 l 715 1093 l 256 1093 z "},"Ą":{"ha":972,"x_min":35,"x_max":964,"o":"m 35 0 l 411 972 l 564 972 l 938 0 l 778 0 l 556 586 q 540 633 551 596 q 513 717 528 671 q 485 801 497 763 q 468 850 472 839 l 500 851 q 480 792 492 828 q 455 715 468 756 q 429 640 442 675 q 408 581 417 604 l 188 0 l 35 0 m 201 242 l 257 386 l 699 386 l 763 242 l 201 242 m 813 -278 q 738 -258 772 -278 q 682 -206 703 -239 q 661 -135 661 -174 q 676 -69 661 -100 q 719 -11 690 -37 q 787 36 747 15 q 876 71 826 57 l 938 0 q 863 -28 897 -8 q 808 -72 828 -47 q 788 -121 788 -96 q 801 -157 788 -143 q 835 -171 814 -171 q 863 -162 850 -171 q 886 -136 875 -153 l 964 -192 q 906 -252 950 -226 q 813 -278 863 -278 z "},"Å":{"ha":972,"x_min":35,"x_max":938,"o":"m 35 0 l 411 972 l 564 972 l 938 0 l 778 0 l 556 586 q 540 633 551 596 q 513 717 528 671 q 485 801 497 763 q 468 850 472 839 l 500 851 q 480 792 492 828 q 455 715 468 756 q 429 640 442 675 q 408 581 417 604 l 188 0 l 35 0 m 201 242 l 257 386 l 699 386 l 763 242 l 201 242 m 485 943 q 411 963 446 943 q 355 1017 376 983 q 333 1089 333 1050 q 355 1164 333 1131 q 411 1217 376 1197 q 485 1236 446 1236 q 560 1217 525 1236 q 616 1164 594 1197 q 638 1089 638 1131 q 616 1017 638 1050 q 560 963 594 983 q 485 943 525 943 m 485 1025 q 534 1044 514 1025 q 554 1089 554 1063 q 533 1138 554 1121 q 485 1154 513 1154 q 437 1136 457 1154 q 417 1089 417 1118 q 437 1044 417 1063 q 485 1025 457 1025 z "},"Ǻ":{"ha":972,"x_min":35,"x_max":938,"o":"m 35 0 l 411 972 l 564 972 l 938 0 l 778 0 l 556 586 q 540 633 551 596 q 513 717 528 671 q 485 801 497 763 q 468 850 472 839 l 500 851 q 480 792 492 828 q 455 715 468 756 q 429 640 442 675 q 408 581 417 604 l 188 0 l 35 0 m 201 242 l 257 386 l 699 386 l 763 242 l 201 242 m 485 943 q 411 963 446 943 q 355 1017 376 983 q 333 1089 333 1050 q 355 1164 333 1131 q 411 1217 376 1197 q 485 1236 446 1236 q 560 1217 525 1236 q 616 1164 594 1197 q 638 1089 638 1131 q 616 1017 638 1050 q 560 963 594 983 q 485 943 525 943 m 485 1025 q 534 1044 514 1025 q 554 1089 554 1063 q 533 1138 554 1121 q 485 1154 513 1154 q 437 1136 457 1154 q 417 1089 417 1118 q 437 1044 417 1063 q 485 1025 457 1025 m 392 1271 l 353 1343 l 607 1500 l 672 1375 l 392 1271 z "},"Ã":{"ha":972,"x_min":35,"x_max":938,"o":"m 35 0 l 411 972 l 564 972 l 938 0 l 778 0 l 556 586 q 540 633 551 596 q 513 717 528 671 q 485 801 497 763 q 468 850 472 839 l 500 851 q 480 792 492 828 q 455 715 468 756 q 429 640 442 675 q 408 581 417 604 l 188 0 l 35 0 m 201 242 l 257 386 l 699 386 l 763 242 l 201 242 m 589 1067 q 524 1077 557 1067 q 463 1099 492 1088 q 422 1114 439 1108 q 392 1119 406 1119 q 362 1106 374 1119 q 350 1067 350 1093 l 243 1067 q 292 1183 243 1142 q 401 1224 340 1224 q 458 1214 431 1224 q 513 1193 486 1204 q 551 1179 532 1185 q 582 1174 569 1174 q 613 1188 601 1174 q 622 1224 624 1201 l 728 1224 q 711 1147 728 1183 q 663 1089 694 1111 q 589 1067 632 1067 z "},"Æ":{"ha":1346,"x_min":7,"x_max":1242,"o":"m 7 0 l 685 972 l 1242 972 l 1242 843 l 786 843 l 786 558 l 1179 558 l 1179 428 l 786 428 l 786 129 l 1242 129 l 1242 0 l 646 0 l 646 213 l 282 213 l 369 340 l 646 340 l 646 775 l 681 764 l 158 0 l 7 0 z "},"Ǽ":{"ha":1346,"x_min":7,"x_max":1242,"o":"m 7 0 l 685 972 l 1242 972 l 1242 843 l 786 843 l 786 558 l 1179 558 l 1179 428 l 786 428 l 786 129 l 1242 129 l 1242 0 l 646 0 l 646 213 l 282 213 l 369 340 l 646 340 l 646 775 l 681 764 l 158 0 l 7 0 m 801 1049 l 763 1121 l 1017 1278 l 1082 1153 l 801 1049 z "},"B":{"ha":946,"x_min":136,"x_max":879,"o":"m 136 0 l 136 972 l 542 972 q 699 944 635 972 q 795 862 763 917 q 828 728 828 807 q 784 593 828 649 q 663 517 740 538 l 663 544 q 776 495 728 531 q 852 407 825 460 q 879 286 879 354 q 858 163 879 217 q 794 74 836 110 q 692 19 751 38 q 556 0 632 0 l 136 0 m 286 144 l 547 144 q 644 161 604 144 q 705 210 683 178 q 726 289 726 243 q 703 363 726 332 q 639 409 681 393 q 540 425 597 425 l 286 425 l 286 144 m 286 569 l 533 569 q 608 586 575 569 q 659 632 640 603 q 678 699 678 661 q 636 794 678 761 q 517 828 594 828 l 286 828 l 286 569 z "},"C":{"ha":943,"x_min":67,"x_max":893,"o":"m 531 -14 q 344 22 429 -14 q 197 126 260 58 q 101 285 135 193 q 67 486 67 376 q 103 680 67 590 q 206 838 140 769 q 357 943 271 906 q 543 981 443 981 q 681 959 614 981 q 803 899 749 938 q 893 813 858 861 l 793 708 q 712 776 753 749 q 628 817 671 803 q 543 831 586 831 q 416 805 475 831 q 313 733 357 779 q 244 624 269 688 q 219 486 219 561 q 244 342 219 407 q 313 232 268 278 q 419 162 357 186 q 556 138 481 138 q 646 150 601 138 q 729 186 690 163 q 800 242 768 210 l 875 119 q 788 51 843 82 q 666 3 733 21 q 531 -14 599 -14 z "},"Ć":{"ha":943,"x_min":67,"x_max":893,"o":"m 531 -14 q 344 22 429 -14 q 197 126 260 58 q 101 285 135 193 q 67 486 67 376 q 103 680 67 590 q 206 838 140 769 q 357 943 271 906 q 543 981 443 981 q 681 959 614 981 q 803 899 749 938 q 893 813 858 861 l 793 708 q 712 776 753 749 q 628 817 671 803 q 543 831 586 831 q 416 805 475 831 q 313 733 357 779 q 244 624 269 688 q 219 486 219 561 q 244 342 219 407 q 313 232 268 278 q 419 162 357 186 q 556 138 481 138 q 646 150 601 138 q 729 186 690 163 q 800 242 768 210 l 875 119 q 788 51 843 82 q 666 3 733 21 q 531 -14 599 -14 m 447 1049 l 408 1121 l 663 1278 l 728 1153 l 447 1049 z "},"Č":{"ha":943,"x_min":67,"x_max":893,"o":"m 531 -14 q 344 22 429 -14 q 197 126 260 58 q 101 285 135 193 q 67 486 67 376 q 103 680 67 590 q 206 838 140 769 q 357 943 271 906 q 543 981 443 981 q 681 959 614 981 q 803 899 749 938 q 893 813 858 861 l 793 708 q 712 776 753 749 q 628 817 671 803 q 543 831 586 831 q 416 805 475 831 q 313 733 357 779 q 244 624 269 688 q 219 486 219 561 q 244 342 219 407 q 313 232 268 278 q 419 162 357 186 q 556 138 481 138 q 646 150 601 138 q 729 186 690 163 q 800 242 768 210 l 875 119 q 788 51 843 82 q 666 3 733 21 q 531 -14 599 -14 m 482 1051 l 315 1194 l 368 1240 l 563 1153 l 521 1153 l 715 1240 l 768 1194 l 601 1051 l 482 1051 z "},"Ç":{"ha":943,"x_min":67,"x_max":893,"o":"m 531 -14 q 344 22 429 -14 q 197 126 260 58 q 101 285 135 193 q 67 486 67 376 q 103 680 67 590 q 206 838 140 769 q 357 943 271 906 q 543 981 443 981 q 681 959 614 981 q 803 899 749 938 q 893 813 858 861 l 793 708 q 712 776 753 749 q 628 817 671 803 q 543 831 586 831 q 416 805 475 831 q 313 733 357 779 q 244 624 269 688 q 219 486 219 561 q 244 342 219 407 q 313 232 268 278 q 419 162 357 186 q 556 138 481 138 q 646 150 601 138 q 729 186 690 163 q 800 242 768 210 l 875 119 q 788 51 843 82 q 666 3 733 21 q 531 -14 599 -14 m 394 -339 l 385 -265 q 454 -254 418 -265 q 515 -226 490 -243 q 540 -192 540 -208 q 517 -161 540 -172 q 464 -144 493 -150 q 415 -139 435 -139 l 397 -125 l 497 33 l 579 33 l 521 -64 q 624 -111 589 -78 q 658 -193 658 -144 q 635 -257 658 -229 q 572 -303 611 -285 q 487 -331 533 -322 q 394 -339 440 -340 z "},"Ḉ":{"ha":943,"x_min":67,"x_max":893,"o":"m 531 -14 q 344 22 429 -14 q 197 126 260 58 q 101 285 135 193 q 67 486 67 376 q 103 680 67 590 q 206 838 140 769 q 357 943 271 906 q 543 981 443 981 q 681 959 614 981 q 803 899 749 938 q 893 813 858 861 l 793 708 q 712 776 753 749 q 628 817 671 803 q 543 831 586 831 q 416 805 475 831 q 313 733 357 779 q 244 624 269 688 q 219 486 219 561 q 244 342 219 407 q 313 232 268 278 q 419 162 357 186 q 556 138 481 138 q 646 150 601 138 q 729 186 690 163 q 800 242 768 210 l 875 119 q 788 51 843 82 q 666 3 733 21 q 531 -14 599 -14 m 394 -339 l 385 -265 q 454 -254 418 -265 q 515 -226 490 -243 q 540 -192 540 -208 q 517 -161 540 -172 q 464 -144 493 -150 q 415 -139 435 -139 l 397 -125 l 497 33 l 579 33 l 521 -64 q 624 -111 589 -78 q 658 -193 658 -144 q 635 -257 658 -229 q 572 -303 611 -285 q 487 -331 533 -322 q 394 -339 440 -340 m 447 1049 l 408 1121 l 663 1278 l 728 1153 l 447 1049 z "},"Ĉ":{"ha":943,"x_min":67,"x_max":893,"o":"m 531 -14 q 344 22 429 -14 q 197 126 260 58 q 101 285 135 193 q 67 486 67 376 q 103 680 67 590 q 206 838 140 769 q 357 943 271 906 q 543 981 443 981 q 681 959 614 981 q 803 899 749 938 q 893 813 858 861 l 793 708 q 712 776 753 749 q 628 817 671 803 q 543 831 586 831 q 416 805 475 831 q 313 733 357 779 q 244 624 269 688 q 219 486 219 561 q 244 342 219 407 q 313 232 268 278 q 419 162 357 186 q 556 138 481 138 q 646 150 601 138 q 729 186 690 163 q 800 242 768 210 l 875 119 q 788 51 843 82 q 666 3 733 21 q 531 -14 599 -14 m 369 1049 l 318 1097 l 490 1238 l 592 1238 l 764 1097 l 713 1049 l 521 1139 l 561 1139 l 369 1049 z "},"Ċ":{"ha":943,"x_min":67,"x_max":893,"o":"m 531 -14 q 344 22 429 -14 q 197 126 260 58 q 101 285 135 193 q 67 486 67 376 q 103 680 67 590 q 206 838 140 769 q 357 943 271 906 q 543 981 443 981 q 681 959 614 981 q 803 899 749 938 q 893 813 858 861 l 793 708 q 712 776 753 749 q 628 817 671 803 q 543 831 586 831 q 416 805 475 831 q 313 733 357 779 q 244 624 269 688 q 219 486 219 561 q 244 342 219 407 q 313 232 268 278 q 419 162 357 186 q 556 138 481 138 q 646 150 601 138 q 729 186 690 163 q 800 242 768 210 l 875 119 q 788 51 843 82 q 666 3 733 21 q 531 -14 599 -14 m 542 1054 q 469 1079 493 1054 q 446 1144 446 1104 q 469 1207 446 1179 q 542 1235 493 1235 q 614 1210 590 1235 q 638 1144 638 1185 q 614 1082 638 1110 q 542 1054 590 1054 z "},"D":{"ha":1039,"x_min":136,"x_max":972,"o":"m 136 0 l 136 972 l 517 972 q 705 938 621 972 q 849 838 789 903 q 940 683 908 772 q 972 486 972 594 q 940 288 972 378 q 849 134 908 199 q 706 35 790 69 q 517 0 621 0 l 136 0 m 286 129 l 282 144 l 510 144 q 641 168 583 144 q 738 235 699 192 q 799 343 778 279 q 819 486 819 407 q 799 628 819 565 q 738 736 778 692 q 640 804 697 781 q 510 828 583 828 l 278 828 l 286 840 l 286 129 z "},"Ǳ":{"ha":1892,"x_min":136,"x_max":1815,"o":"m 136 0 l 136 972 l 517 972 q 705 938 621 972 q 849 838 789 903 q 940 683 908 772 q 972 486 972 594 q 940 288 972 378 q 849 134 908 199 q 706 35 790 69 q 517 0 621 0 l 136 0 m 286 129 l 282 144 l 510 144 q 641 168 583 144 q 738 235 699 192 q 799 343 778 279 q 819 486 819 407 q 799 628 819 565 q 738 736 778 692 q 640 804 697 781 q 510 828 583 828 l 278 828 l 286 840 l 286 129 m 1060 0 l 1060 110 l 1614 851 l 1635 828 l 1096 828 l 1096 972 l 1800 972 l 1800 864 l 1249 121 l 1226 144 l 1815 144 l 1815 0 l 1060 0 z "},"Ǆ":{"ha":1892,"x_min":136,"x_max":1815,"o":"m 136 0 l 136 972 l 517 972 q 705 938 621 972 q 849 838 789 903 q 940 683 908 772 q 972 486 972 594 q 940 288 972 378 q 849 134 908 199 q 706 35 790 69 q 517 0 621 0 l 136 0 m 286 129 l 282 144 l 510 144 q 641 168 583 144 q 738 235 699 192 q 799 343 778 279 q 819 486 819 407 q 799 628 819 565 q 738 736 778 692 q 640 804 697 781 q 510 828 583 828 l 278 828 l 286 840 l 286 129 m 1060 0 l 1060 110 l 1614 851 l 1635 828 l 1096 828 l 1096 972 l 1800 972 l 1800 864 l 1249 121 l 1226 144 l 1815 144 l 1815 0 l 1060 0 m 1375 1051 l 1208 1194 l 1261 1240 l 1456 1153 l 1414 1153 l 1608 1240 l 1661 1194 l 1494 1051 l 1375 1051 z "},"Ð":{"ha":1039,"x_min":68,"x_max":972,"o":"m 68 424 l 68 549 l 440 549 l 440 424 l 68 424 m 136 0 l 136 972 l 517 972 q 705 938 621 972 q 849 838 789 903 q 940 683 908 772 q 972 486 972 594 q 940 288 972 378 q 849 134 908 199 q 706 35 790 69 q 517 0 621 0 l 136 0 m 286 129 l 282 144 l 510 144 q 641 168 583 144 q 738 235 699 192 q 799 343 778 279 q 819 486 819 407 q 799 628 819 565 q 738 736 778 692 q 640 804 697 781 q 510 828 583 828 l 278 828 l 286 840 l 286 129 z "},"Ď":{"ha":1039,"x_min":136,"x_max":972,"o":"m 136 0 l 136 972 l 517 972 q 705 938 621 972 q 849 838 789 903 q 940 683 908 772 q 972 486 972 594 q 940 288 972 378 q 849 134 908 199 q 706 35 790 69 q 517 0 621 0 l 136 0 m 286 129 l 282 144 l 510 144 q 641 168 583 144 q 738 235 699 192 q 799 343 778 279 q 819 486 819 407 q 799 628 819 565 q 738 736 778 692 q 640 804 697 781 q 510 828 583 828 l 278 828 l 286 840 l 286 129 m 460 1051 l 293 1194 l 346 1240 l 540 1153 l 499 1153 l 693 1240 l 746 1194 l 579 1051 l 460 1051 z "},"Đ":{"ha":1039,"x_min":68,"x_max":972,"o":"m 68 424 l 68 549 l 440 549 l 440 424 l 68 424 m 136 0 l 136 972 l 517 972 q 705 938 621 972 q 849 838 789 903 q 940 683 908 772 q 972 486 972 594 q 940 288 972 378 q 849 134 908 199 q 706 35 790 69 q 517 0 621 0 l 136 0 m 286 129 l 282 144 l 510 144 q 641 168 583 144 q 738 235 699 192 q 799 343 778 279 q 819 486 819 407 q 799 628 819 565 q 738 736 778 692 q 640 804 697 781 q 510 828 583 828 l 278 828 l 286 840 l 286 129 z "},"Ḍ":{"ha":1039,"x_min":136,"x_max":972,"o":"m 136 0 l 136 972 l 517 972 q 705 938 621 972 q 849 838 789 903 q 940 683 908 772 q 972 486 972 594 q 940 288 972 378 q 849 134 908 199 q 706 35 790 69 q 517 0 621 0 l 136 0 m 286 129 l 282 144 l 510 144 q 641 168 583 144 q 738 235 699 192 q 799 343 778 279 q 819 486 819 407 q 799 628 819 565 q 738 736 778 692 q 640 804 697 781 q 510 828 583 828 l 278 828 l 286 840 l 286 129 m 519 -286 q 449 -262 474 -286 q 424 -196 424 -239 q 449 -131 424 -156 q 519 -106 475 -106 q 590 -129 565 -106 q 615 -196 615 -153 q 590 -261 615 -236 q 519 -286 564 -286 z "},"Ḏ":{"ha":1039,"x_min":136,"x_max":972,"o":"m 136 0 l 136 972 l 517 972 q 705 938 621 972 q 849 838 789 903 q 940 683 908 772 q 972 486 972 594 q 940 288 972 378 q 849 134 908 199 q 706 35 790 69 q 517 0 621 0 l 136 0 m 286 129 l 282 144 l 510 144 q 641 168 583 144 q 738 235 699 192 q 799 343 778 279 q 819 486 819 407 q 799 628 819 565 q 738 736 778 692 q 640 804 697 781 q 510 828 583 828 l 278 828 l 286 840 l 286 129 m 324 -247 l 324 -144 l 714 -144 l 714 -247 l 324 -247 z "},"ǲ":{"ha":1710,"x_min":136,"x_max":1647,"o":"m 136 0 l 136 972 l 517 972 q 705 938 621 972 q 849 838 789 903 q 940 683 908 772 q 972 486 972 594 q 940 288 972 378 q 849 134 908 199 q 706 35 790 69 q 517 0 621 0 l 136 0 m 286 129 l 282 144 l 510 144 q 641 168 583 144 q 738 235 699 192 q 799 343 778 279 q 819 486 819 407 q 799 628 819 565 q 738 736 778 692 q 640 804 697 781 q 510 828 583 828 l 278 828 l 286 840 l 286 129 m 1107 0 l 1107 119 l 1483 622 l 1483 606 l 1107 606 l 1107 729 l 1639 729 l 1639 613 l 1268 117 l 1263 124 l 1647 124 l 1647 0 l 1107 0 z "},"ǅ":{"ha":1710,"x_min":136,"x_max":1647,"o":"m 136 0 l 136 972 l 517 972 q 705 938 621 972 q 849 838 789 903 q 940 683 908 772 q 972 486 972 594 q 940 288 972 378 q 849 134 908 199 q 706 35 790 69 q 517 0 621 0 l 136 0 m 286 129 l 282 144 l 510 144 q 641 168 583 144 q 738 235 699 192 q 799 343 778 279 q 819 486 819 407 q 799 628 819 565 q 738 736 778 692 q 640 804 697 781 q 510 828 583 828 l 278 828 l 286 840 l 286 129 m 1107 0 l 1107 119 l 1483 622 l 1483 606 l 1107 606 l 1107 729 l 1639 729 l 1639 613 l 1268 117 l 1263 124 l 1647 124 l 1647 0 l 1107 0 m 1314 843 l 1168 1000 l 1221 1046 l 1394 944 l 1353 944 l 1526 1046 l 1579 1000 l 1433 843 l 1314 843 z "},"E":{"ha":853,"x_min":136,"x_max":749,"o":"m 136 0 l 136 972 l 749 972 l 749 828 l 286 828 l 286 144 l 749 144 l 749 0 l 136 0 m 204 426 l 204 571 l 672 571 l 672 426 l 204 426 z "},"É":{"ha":853,"x_min":136,"x_max":749,"o":"m 136 0 l 136 972 l 749 972 l 749 828 l 286 828 l 286 144 l 749 144 l 749 0 l 136 0 m 204 426 l 204 571 l 672 571 l 672 426 l 204 426 m 360 1049 l 321 1121 l 575 1278 l 640 1153 l 360 1049 z "},"Ĕ":{"ha":853,"x_min":136,"x_max":749,"o":"m 136 0 l 136 972 l 749 972 l 749 828 l 286 828 l 286 144 l 749 144 l 749 0 l 136 0 m 204 426 l 204 571 l 672 571 l 672 426 l 204 426 m 454 1043 q 351 1069 397 1043 q 273 1137 304 1094 q 229 1229 242 1179 l 332 1246 q 379 1183 347 1211 q 454 1156 411 1156 q 529 1183 497 1156 q 576 1246 561 1211 l 679 1229 q 636 1137 668 1179 q 558 1069 604 1094 q 454 1043 513 1043 z "},"Ě":{"ha":853,"x_min":136,"x_max":749,"o":"m 136 0 l 136 972 l 749 972 l 749 828 l 286 828 l 286 144 l 749 144 l 749 0 l 136 0 m 204 426 l 204 571 l 672 571 l 672 426 l 204 426 m 394 1051 l 228 1194 l 281 1240 l 475 1153 l 433 1153 l 628 1240 l 681 1194 l 514 1051 l 394 1051 z "},"Ḝ":{"ha":853,"x_min":136,"x_max":749,"o":"m 136 0 l 136 972 l 749 972 l 749 828 l 286 828 l 286 144 l 749 144 l 749 0 l 136 0 m 204 426 l 204 571 l 672 571 l 672 426 l 204 426 m 299 -339 l 289 -265 q 358 -254 322 -265 q 419 -226 394 -243 q 444 -192 444 -208 q 421 -161 444 -172 q 368 -144 397 -150 q 319 -139 339 -139 l 301 -125 l 401 33 l 483 33 l 425 -64 q 528 -111 493 -78 q 563 -193 563 -144 q 539 -257 563 -229 q 476 -303 515 -285 q 391 -331 438 -322 q 299 -339 344 -340 m 454 1043 q 351 1069 397 1043 q 273 1137 304 1094 q 229 1229 242 1179 l 332 1246 q 379 1183 347 1211 q 454 1156 411 1156 q 529 1183 497 1156 q 576 1246 561 1211 l 679 1229 q 636 1137 668 1179 q 558 1069 604 1094 q 454 1043 513 1043 z "},"Ê":{"ha":853,"x_min":136,"x_max":749,"o":"m 136 0 l 136 972 l 749 972 l 749 828 l 286 828 l 286 144 l 749 144 l 749 0 l 136 0 m 204 426 l 204 571 l 672 571 l 672 426 l 204 426 m 282 1049 l 231 1097 l 403 1238 l 504 1238 l 676 1097 l 625 1049 l 433 1139 l 474 1139 l 282 1049 z "},"Ế":{"ha":853,"x_min":136,"x_max":842,"o":"m 136 0 l 136 972 l 749 972 l 749 828 l 286 828 l 286 144 l 749 144 l 749 0 l 136 0 m 204 426 l 204 571 l 672 571 l 672 426 l 204 426 m 282 1049 l 236 1099 l 403 1235 l 504 1235 l 671 1099 l 625 1049 l 433 1136 l 474 1136 l 282 1049 m 679 1200 l 607 1250 l 721 1453 l 842 1367 l 679 1200 z "},"Ệ":{"ha":853,"x_min":136,"x_max":749,"o":"m 136 0 l 136 972 l 749 972 l 749 828 l 286 828 l 286 144 l 749 144 l 749 0 l 136 0 m 204 426 l 204 571 l 672 571 l 672 426 l 204 426 m 426 -286 q 356 -262 381 -286 q 331 -196 331 -239 q 356 -131 331 -156 q 426 -106 382 -106 q 497 -129 472 -106 q 522 -196 522 -153 q 497 -261 522 -236 q 426 -286 471 -286 m 282 1049 l 231 1097 l 403 1238 l 504 1238 l 676 1097 l 625 1049 l 433 1139 l 474 1139 l 282 1049 z "},"Ề":{"ha":853,"x_min":136,"x_max":750,"o":"m 136 0 l 136 972 l 749 972 l 749 828 l 286 828 l 286 144 l 749 144 l 749 0 l 136 0 m 204 426 l 204 571 l 672 571 l 672 426 l 204 426 m 282 1049 l 236 1099 l 403 1235 l 504 1235 l 671 1099 l 625 1049 l 433 1136 l 474 1136 l 282 1049 m 683 1201 l 515 1369 l 635 1457 l 750 1254 l 683 1201 z "},"Ể":{"ha":853,"x_min":136,"x_max":807,"o":"m 136 0 l 136 972 l 749 972 l 749 828 l 286 828 l 286 144 l 749 144 l 749 0 l 136 0 m 204 426 l 204 571 l 672 571 l 672 426 l 204 426 m 282 1049 l 236 1099 l 403 1235 l 504 1235 l 671 1099 l 625 1049 l 433 1136 l 474 1136 l 282 1049 m 640 1199 q 626 1222 632 1210 q 619 1247 619 1235 q 626 1272 619 1260 q 657 1301 632 1285 q 688 1324 678 1315 q 699 1338 699 1332 q 687 1356 699 1350 q 657 1361 675 1361 q 608 1354 635 1361 q 558 1336 582 1347 l 536 1424 q 599 1449 565 1440 q 660 1457 632 1457 q 770 1426 733 1457 q 807 1350 807 1394 q 790 1303 807 1321 q 756 1275 772 1286 q 718 1250 729 1260 q 707 1232 707 1240 q 708 1224 707 1228 q 711 1217 710 1221 l 640 1199 z "},"Ễ":{"ha":853,"x_min":136,"x_max":749,"o":"m 136 0 l 136 972 l 749 972 l 749 828 l 286 828 l 286 144 l 749 144 l 749 0 l 136 0 m 204 426 l 204 571 l 672 571 l 672 426 l 204 426 m 282 1049 l 236 1099 l 403 1235 l 504 1235 l 671 1099 l 625 1049 l 433 1136 l 474 1136 l 282 1049 m 561 1301 q 499 1311 528 1301 q 447 1331 471 1321 q 406 1349 422 1342 q 375 1356 389 1356 q 343 1342 357 1356 q 324 1304 329 1328 l 229 1318 q 271 1417 232 1375 q 365 1460 310 1460 q 419 1450 394 1460 q 468 1429 443 1440 q 505 1413 486 1421 q 538 1406 524 1406 q 567 1419 557 1406 q 583 1458 578 1432 l 678 1444 q 663 1373 676 1406 q 624 1321 649 1340 q 561 1301 599 1301 z "},"Ȅ":{"ha":853,"x_min":103,"x_max":749,"o":"m 136 0 l 136 972 l 749 972 l 749 828 l 286 828 l 286 144 l 749 144 l 749 0 l 136 0 m 204 426 l 204 571 l 672 571 l 672 426 l 204 426 m 608 1042 l 379 1193 l 479 1299 l 661 1108 l 608 1042 m 332 1042 l 103 1193 l 203 1299 l 385 1108 l 332 1042 z "},"Ë":{"ha":853,"x_min":136,"x_max":749,"o":"m 136 0 l 136 972 l 749 972 l 749 828 l 286 828 l 286 144 l 749 144 l 749 0 l 136 0 m 204 426 l 204 571 l 672 571 l 672 426 l 204 426 m 597 1054 q 525 1079 549 1054 q 501 1144 501 1104 q 525 1207 501 1179 q 597 1235 549 1235 q 669 1210 646 1235 q 693 1144 693 1185 q 669 1082 693 1110 q 597 1054 646 1054 m 311 1054 q 239 1079 263 1054 q 215 1144 215 1104 q 239 1207 215 1179 q 311 1235 263 1235 q 383 1210 360 1235 q 407 1144 407 1185 q 383 1082 407 1110 q 311 1054 360 1054 z "},"Ė":{"ha":853,"x_min":136,"x_max":749,"o":"m 136 0 l 136 972 l 749 972 l 749 828 l 286 828 l 286 144 l 749 144 l 749 0 l 136 0 m 204 426 l 204 571 l 672 571 l 672 426 l 204 426 m 454 1054 q 382 1079 406 1054 q 358 1144 358 1104 q 382 1207 358 1179 q 454 1235 406 1235 q 526 1210 503 1235 q 550 1144 550 1185 q 526 1082 550 1110 q 454 1054 503 1054 z "},"Ẹ":{"ha":853,"x_min":136,"x_max":749,"o":"m 136 0 l 136 972 l 749 972 l 749 828 l 286 828 l 286 144 l 749 144 l 749 0 l 136 0 m 204 426 l 204 571 l 672 571 l 672 426 l 204 426 m 426 -286 q 356 -262 381 -286 q 331 -196 331 -239 q 356 -131 331 -156 q 426 -106 382 -106 q 497 -129 472 -106 q 522 -196 522 -153 q 497 -261 522 -236 q 426 -286 471 -286 z "},"È":{"ha":853,"x_min":136,"x_max":749,"o":"m 136 0 l 136 972 l 749 972 l 749 828 l 286 828 l 286 144 l 749 144 l 749 0 l 136 0 m 204 426 l 204 571 l 672 571 l 672 426 l 204 426 m 560 1049 l 279 1153 l 347 1278 l 601 1121 l 560 1049 z "},"Ẻ":{"ha":853,"x_min":136,"x_max":749,"o":"m 136 0 l 136 972 l 749 972 l 749 828 l 286 828 l 286 144 l 749 144 l 749 0 l 136 0 m 204 426 l 204 571 l 672 571 l 672 426 l 204 426 m 422 1053 q 407 1080 413 1067 q 401 1106 401 1093 q 409 1133 401 1118 q 439 1164 417 1149 q 472 1188 463 1179 q 481 1206 481 1196 q 469 1224 481 1218 q 439 1229 457 1229 q 390 1222 417 1229 q 340 1204 364 1215 l 318 1292 q 381 1317 347 1308 q 442 1325 414 1325 q 552 1294 515 1325 q 589 1218 589 1263 q 573 1163 589 1183 q 538 1133 557 1143 q 501 1112 513 1121 q 489 1089 489 1103 q 490 1079 489 1083 q 493 1071 492 1075 l 422 1053 z "},"Ȇ":{"ha":853,"x_min":136,"x_max":749,"o":"m 136 0 l 136 972 l 749 972 l 749 828 l 286 828 l 286 144 l 749 144 l 749 0 l 136 0 m 204 426 l 204 571 l 672 571 l 672 426 l 204 426 m 332 1043 l 229 1060 q 273 1152 242 1110 q 351 1220 304 1194 q 454 1246 397 1246 q 558 1220 513 1246 q 636 1152 604 1194 q 679 1060 668 1110 l 576 1043 q 529 1106 561 1078 q 454 1133 497 1133 q 379 1106 411 1133 q 332 1043 347 1078 z "},"Ē":{"ha":853,"x_min":136,"x_max":749,"o":"m 136 0 l 136 972 l 749 972 l 749 828 l 286 828 l 286 144 l 749 144 l 749 0 l 136 0 m 204 426 l 204 571 l 672 571 l 672 426 l 204 426 m 224 1093 l 224 1197 l 683 1197 l 683 1093 l 224 1093 z "},"Ḗ":{"ha":853,"x_min":136,"x_max":749,"o":"m 136 0 l 136 972 l 749 972 l 749 828 l 286 828 l 286 144 l 749 144 l 749 0 l 136 0 m 204 426 l 204 571 l 672 571 l 672 426 l 204 426 m 224 1093 l 224 1197 l 683 1197 l 683 1093 l 224 1093 m 360 1257 l 321 1329 l 575 1486 l 640 1361 l 360 1257 z "},"Ḕ":{"ha":853,"x_min":136,"x_max":749,"o":"m 136 0 l 136 972 l 749 972 l 749 828 l 286 828 l 286 144 l 749 144 l 749 0 l 136 0 m 204 426 l 204 571 l 672 571 l 672 426 l 204 426 m 224 1093 l 224 1197 l 683 1197 l 683 1093 l 224 1093 m 560 1257 l 279 1361 l 347 1486 l 601 1329 l 560 1257 z "},"Ę":{"ha":853,"x_min":136,"x_max":749,"o":"m 136 0 l 136 972 l 749 972 l 749 828 l 286 828 l 286 144 l 749 144 l 749 0 l 136 0 m 204 426 l 204 571 l 672 571 l 672 426 l 204 426 m 582 -278 q 507 -258 542 -278 q 451 -206 472 -239 q 431 -135 431 -174 q 445 -69 431 -100 q 488 -11 460 -37 q 556 36 517 15 q 646 71 596 57 l 707 0 q 632 -28 667 -8 q 577 -72 597 -47 q 557 -121 557 -96 q 570 -157 557 -143 q 604 -171 583 -171 q 632 -162 619 -171 q 656 -136 644 -153 l 733 -192 q 676 -252 719 -226 q 582 -278 632 -278 z "},"Ẽ":{"ha":853,"x_min":136,"x_max":749,"o":"m 136 0 l 136 972 l 749 972 l 749 828 l 286 828 l 286 144 l 749 144 l 749 0 l 136 0 m 204 426 l 204 571 l 672 571 l 672 426 l 204 426 m 557 1067 q 492 1077 525 1067 q 431 1099 460 1088 q 390 1114 407 1108 q 360 1119 374 1119 q 330 1106 342 1119 q 318 1067 318 1093 l 211 1067 q 260 1183 211 1142 q 369 1224 308 1224 q 426 1214 399 1224 q 481 1193 454 1204 q 519 1179 500 1185 q 550 1174 538 1174 q 581 1188 569 1174 q 590 1224 592 1201 l 696 1224 q 679 1147 696 1183 q 631 1089 663 1111 q 557 1067 600 1067 z "},"F":{"ha":836,"x_min":136,"x_max":767,"o":"m 136 0 l 136 972 l 286 972 l 286 0 l 136 0 m 203 414 l 203 558 l 704 558 l 704 414 l 203 414 m 203 828 l 203 972 l 767 972 l 767 828 l 203 828 z "},"G":{"ha":1064,"x_min":67,"x_max":1004,"o":"m 571 -14 q 374 24 465 -14 q 213 131 282 63 q 105 290 143 199 q 67 486 67 381 q 105 681 67 590 q 212 838 143 771 q 372 943 281 906 q 569 981 464 981 q 713 960 643 981 q 840 901 783 939 q 933 815 897 864 l 836 714 q 751 781 794 754 q 661 821 707 807 q 569 835 615 835 q 431 808 494 835 q 320 735 368 782 q 246 624 272 688 q 219 486 219 561 q 247 349 219 414 q 324 236 275 285 q 438 160 374 188 q 575 132 503 132 q 678 148 629 132 q 764 193 726 164 q 822 260 801 222 q 843 342 843 299 l 843 369 l 864 350 l 567 350 l 567 499 l 997 499 q 1001 469 1000 483 q 1003 441 1003 454 q 1004 415 1004 428 q 971 241 1004 319 q 878 106 938 163 q 741 17 819 49 q 571 -14 663 -14 z "},"Ğ":{"ha":1064,"x_min":67,"x_max":1004,"o":"m 571 -14 q 374 24 465 -14 q 213 131 282 63 q 105 290 143 199 q 67 486 67 381 q 105 681 67 590 q 212 838 143 771 q 372 943 281 906 q 569 981 464 981 q 713 960 643 981 q 840 901 783 939 q 933 815 897 864 l 836 714 q 751 781 794 754 q 661 821 707 807 q 569 835 615 835 q 431 808 494 835 q 320 735 368 782 q 246 624 272 688 q 219 486 219 561 q 247 349 219 414 q 324 236 275 285 q 438 160 374 188 q 575 132 503 132 q 678 148 629 132 q 764 193 726 164 q 822 260 801 222 q 843 342 843 299 l 843 369 l 864 350 l 567 350 l 567 499 l 997 499 q 1001 469 1000 483 q 1003 441 1003 454 q 1004 415 1004 428 q 971 241 1004 319 q 878 106 938 163 q 741 17 819 49 q 571 -14 663 -14 m 560 1043 q 456 1069 503 1043 q 378 1137 410 1094 q 335 1229 347 1179 l 438 1246 q 485 1183 453 1211 q 560 1156 517 1156 q 635 1183 603 1156 q 682 1246 667 1211 l 785 1229 q 742 1137 774 1179 q 664 1069 710 1094 q 560 1043 618 1043 z "},"Ǧ":{"ha":1064,"x_min":67,"x_max":1004,"o":"m 571 -14 q 374 24 465 -14 q 213 131 282 63 q 105 290 143 199 q 67 486 67 381 q 105 681 67 590 q 212 838 143 771 q 372 943 281 906 q 569 981 464 981 q 713 960 643 981 q 840 901 783 939 q 933 815 897 864 l 836 714 q 751 781 794 754 q 661 821 707 807 q 569 835 615 835 q 431 808 494 835 q 320 735 368 782 q 246 624 272 688 q 219 486 219 561 q 247 349 219 414 q 324 236 275 285 q 438 160 374 188 q 575 132 503 132 q 678 148 629 132 q 764 193 726 164 q 822 260 801 222 q 843 342 843 299 l 843 369 l 864 350 l 567 350 l 567 499 l 997 499 q 1001 469 1000 483 q 1003 441 1003 454 q 1004 415 1004 428 q 971 241 1004 319 q 878 106 938 163 q 741 17 819 49 q 571 -14 663 -14 m 500 1051 l 333 1194 l 386 1240 l 581 1153 l 539 1153 l 733 1240 l 786 1194 l 619 1051 l 500 1051 z "},"Ĝ":{"ha":1064,"x_min":67,"x_max":1004,"o":"m 571 -14 q 374 24 465 -14 q 213 131 282 63 q 105 290 143 199 q 67 486 67 381 q 105 681 67 590 q 212 838 143 771 q 372 943 281 906 q 569 981 464 981 q 713 960 643 981 q 840 901 783 939 q 933 815 897 864 l 836 714 q 751 781 794 754 q 661 821 707 807 q 569 835 615 835 q 431 808 494 835 q 320 735 368 782 q 246 624 272 688 q 219 486 219 561 q 247 349 219 414 q 324 236 275 285 q 438 160 374 188 q 575 132 503 132 q 678 148 629 132 q 764 193 726 164 q 822 260 801 222 q 843 342 843 299 l 843 369 l 864 350 l 567 350 l 567 499 l 997 499 q 1001 469 1000 483 q 1003 441 1003 454 q 1004 415 1004 428 q 971 241 1004 319 q 878 106 938 163 q 741 17 819 49 q 571 -14 663 -14 m 388 1049 l 336 1097 l 508 1238 l 610 1238 l 782 1097 l 731 1049 l 539 1139 l 579 1139 l 388 1049 z "},"Ģ":{"ha":1064,"x_min":67,"x_max":1004,"o":"m 571 -14 q 374 24 465 -14 q 213 131 282 63 q 105 290 143 199 q 67 486 67 381 q 105 681 67 590 q 212 838 143 771 q 372 943 281 906 q 569 981 464 981 q 713 960 643 981 q 840 901 783 939 q 933 815 897 864 l 836 714 q 751 781 794 754 q 661 821 707 807 q 569 835 615 835 q 431 808 494 835 q 320 735 368 782 q 246 624 272 688 q 219 486 219 561 q 247 349 219 414 q 324 236 275 285 q 438 160 374 188 q 575 132 503 132 q 678 148 629 132 q 764 193 726 164 q 822 260 801 222 q 843 342 843 299 l 843 369 l 864 350 l 567 350 l 567 499 l 997 499 q 1001 469 1000 483 q 1003 441 1003 454 q 1004 415 1004 428 q 971 241 1004 319 q 878 106 938 163 q 741 17 819 49 q 571 -14 663 -14 m 463 -337 l 429 -279 q 466 -262 449 -274 q 494 -235 483 -250 q 504 -207 504 -221 q 499 -193 504 -199 q 478 -183 494 -187 q 444 -164 453 -176 q 436 -131 436 -151 q 461 -81 436 -100 q 526 -62 486 -62 q 603 -92 572 -62 q 635 -169 635 -121 q 622 -221 635 -196 q 588 -267 610 -246 q 533 -307 565 -289 q 463 -337 501 -325 z "},"Ġ":{"ha":1064,"x_min":67,"x_max":1004,"o":"m 571 -14 q 374 24 465 -14 q 213 131 282 63 q 105 290 143 199 q 67 486 67 381 q 105 681 67 590 q 212 838 143 771 q 372 943 281 906 q 569 981 464 981 q 713 960 643 981 q 840 901 783 939 q 933 815 897 864 l 836 714 q 751 781 794 754 q 661 821 707 807 q 569 835 615 835 q 431 808 494 835 q 320 735 368 782 q 246 624 272 688 q 219 486 219 561 q 247 349 219 414 q 324 236 275 285 q 438 160 374 188 q 575 132 503 132 q 678 148 629 132 q 764 193 726 164 q 822 260 801 222 q 843 342 843 299 l 843 369 l 864 350 l 567 350 l 567 499 l 997 499 q 1001 469 1000 483 q 1003 441 1003 454 q 1004 415 1004 428 q 971 241 1004 319 q 878 106 938 163 q 741 17 819 49 q 571 -14 663 -14 m 560 1054 q 488 1079 511 1054 q 464 1144 464 1104 q 488 1207 464 1179 q 560 1235 511 1235 q 632 1210 608 1235 q 656 1144 656 1185 q 632 1082 656 1110 q 560 1054 608 1054 z "},"Ḡ":{"ha":1064,"x_min":67,"x_max":1004,"o":"m 571 -14 q 374 24 465 -14 q 213 131 282 63 q 105 290 143 199 q 67 486 67 381 q 105 681 67 590 q 212 838 143 771 q 372 943 281 906 q 569 981 464 981 q 713 960 643 981 q 840 901 783 939 q 933 815 897 864 l 836 714 q 751 781 794 754 q 661 821 707 807 q 569 835 615 835 q 431 808 494 835 q 320 735 368 782 q 246 624 272 688 q 219 486 219 561 q 247 349 219 414 q 324 236 275 285 q 438 160 374 188 q 575 132 503 132 q 678 148 629 132 q 764 193 726 164 q 822 260 801 222 q 843 342 843 299 l 843 369 l 864 350 l 567 350 l 567 499 l 997 499 q 1001 469 1000 483 q 1003 441 1003 454 q 1004 415 1004 428 q 971 241 1004 319 q 878 106 938 163 q 741 17 819 49 q 571 -14 663 -14 m 329 1093 l 329 1197 l 789 1197 l 789 1093 l 329 1093 z "},"H":{"ha":1057,"x_min":136,"x_max":921,"o":"m 771 0 l 771 972 l 921 972 l 921 0 l 771 0 m 136 0 l 136 972 l 286 972 l 286 0 l 136 0 m 201 413 l 201 557 l 838 557 l 838 413 l 201 413 z "},"Ħ":{"ha":1190,"x_min":79,"x_max":1111,"o":"m 79 650 l 79 794 l 240 794 l 304 781 l 851 781 l 901 794 l 1111 794 l 1111 650 l 911 650 l 868 664 l 290 664 l 226 650 l 79 650 m 838 0 l 838 972 l 988 972 l 988 0 l 838 0 m 203 0 l 203 972 l 353 972 l 353 0 l 203 0 m 268 413 l 268 557 l 904 557 l 904 413 l 268 413 z "},"Ḫ":{"ha":1057,"x_min":136,"x_max":921,"o":"m 771 0 l 771 972 l 921 972 l 921 0 l 771 0 m 136 0 l 136 972 l 286 972 l 286 0 l 136 0 m 201 413 l 201 557 l 838 557 l 838 413 l 201 413 m 529 -325 q 384 -267 444 -325 q 304 -111 324 -210 l 407 -94 q 458 -181 425 -149 q 529 -212 492 -212 q 600 -181 567 -212 q 651 -94 633 -149 l 754 -111 q 674 -267 735 -210 q 529 -325 614 -325 z "},"Ĥ":{"ha":1057,"x_min":136,"x_max":921,"o":"m 771 0 l 771 972 l 921 972 l 921 0 l 771 0 m 136 0 l 136 972 l 286 972 l 286 0 l 136 0 m 201 413 l 201 557 l 838 557 l 838 413 l 201 413 m 357 1049 l 306 1097 l 478 1238 l 579 1238 l 751 1097 l 700 1049 l 508 1139 l 549 1139 l 357 1049 z "},"Ḥ":{"ha":1057,"x_min":136,"x_max":921,"o":"m 771 0 l 771 972 l 921 972 l 921 0 l 771 0 m 136 0 l 136 972 l 286 972 l 286 0 l 136 0 m 201 413 l 201 557 l 838 557 l 838 413 l 201 413 m 529 -286 q 458 -262 483 -286 q 433 -196 433 -239 q 459 -131 433 -156 q 529 -106 485 -106 q 600 -129 575 -106 q 625 -196 625 -153 q 599 -261 625 -236 q 529 -286 574 -286 z "},"I":{"ha":664,"x_min":100,"x_max":564,"o":"m 100 0 l 100 139 l 257 139 l 257 833 l 100 833 l 100 972 l 564 972 l 564 833 l 407 833 l 407 139 l 564 139 l 564 0 l 100 0 z "},"Ĳ":{"ha":1556,"x_min":100,"x_max":1486,"o":"m 100 0 l 100 139 l 257 139 l 257 833 l 100 833 l 100 972 l 564 972 l 564 833 l 407 833 l 407 139 l 564 139 l 564 0 l 100 0 m 1019 -14 q 929 -1 972 -14 q 849 35 886 11 q 783 91 813 58 q 733 163 754 124 l 828 261 q 881 194 857 219 q 928 156 906 169 q 972 137 950 142 q 1019 132 994 132 q 1107 155 1069 132 q 1165 218 1144 178 q 1186 310 1186 258 l 1186 833 l 1008 833 l 1008 972 l 1486 972 l 1486 833 l 1336 833 l 1336 296 q 1313 173 1336 229 q 1248 75 1290 117 q 1148 10 1206 33 q 1019 -14 1090 -14 z "},"Í":{"ha":664,"x_min":100,"x_max":564,"o":"m 100 0 l 100 139 l 257 139 l 257 833 l 100 833 l 100 972 l 564 972 l 564 833 l 407 833 l 407 139 l 564 139 l 564 0 l 100 0 m 238 1049 l 199 1121 l 453 1278 l 518 1153 l 238 1049 z "},"Ĭ":{"ha":664,"x_min":100,"x_max":564,"o":"m 100 0 l 100 139 l 257 139 l 257 833 l 100 833 l 100 972 l 564 972 l 564 833 l 407 833 l 407 139 l 564 139 l 564 0 l 100 0 m 332 1043 q 228 1069 275 1043 q 151 1137 182 1094 q 107 1229 119 1179 l 210 1246 q 257 1183 225 1211 q 332 1156 289 1156 q 407 1183 375 1156 q 454 1246 439 1211 l 557 1229 q 514 1137 546 1179 q 436 1069 482 1094 q 332 1043 390 1043 z "},"Ǐ":{"ha":664,"x_min":100,"x_max":564,"o":"m 100 0 l 100 139 l 257 139 l 257 833 l 100 833 l 100 972 l 564 972 l 564 833 l 407 833 l 407 139 l 564 139 l 564 0 l 100 0 m 272 1051 l 106 1194 l 158 1240 l 353 1153 l 311 1153 l 506 1240 l 558 1194 l 392 1051 l 272 1051 z "},"Î":{"ha":664,"x_min":100,"x_max":564,"o":"m 100 0 l 100 139 l 257 139 l 257 833 l 100 833 l 100 972 l 564 972 l 564 833 l 407 833 l 407 139 l 564 139 l 564 0 l 100 0 m 160 1049 l 108 1097 l 281 1238 l 382 1238 l 554 1097 l 503 1049 l 311 1139 l 351 1139 l 160 1049 z "},"Ȉ":{"ha":664,"x_min":-19,"x_max":564,"o":"m 100 0 l 100 139 l 257 139 l 257 833 l 100 833 l 100 972 l 564 972 l 564 833 l 407 833 l 407 139 l 564 139 l 564 0 l 100 0 m 486 1042 l 257 1193 l 357 1299 l 539 1108 l 486 1042 m 210 1042 l -19 1193 l 81 1299 l 263 1108 l 210 1042 z "},"Ï":{"ha":664,"x_min":93,"x_max":571,"o":"m 100 0 l 100 139 l 257 139 l 257 833 l 100 833 l 100 972 l 564 972 l 564 833 l 407 833 l 407 139 l 564 139 l 564 0 l 100 0 m 475 1054 q 403 1079 426 1054 q 379 1144 379 1104 q 403 1207 379 1179 q 475 1235 426 1235 q 547 1210 524 1235 q 571 1144 571 1185 q 547 1082 571 1110 q 475 1054 524 1054 m 189 1054 q 117 1079 140 1054 q 93 1144 93 1104 q 117 1207 93 1179 q 189 1235 140 1235 q 261 1210 238 1235 q 285 1144 285 1185 q 261 1082 285 1110 q 189 1054 238 1054 z "},"Ḯ":{"ha":664,"x_min":93,"x_max":571,"o":"m 100 0 l 100 139 l 257 139 l 257 833 l 100 833 l 100 972 l 564 972 l 564 833 l 407 833 l 407 139 l 564 139 l 564 0 l 100 0 m 238 1271 l 199 1343 l 453 1500 l 518 1375 l 238 1271 m 189 1054 q 117 1079 140 1054 q 93 1144 93 1104 q 117 1207 93 1179 q 189 1235 140 1235 q 261 1210 238 1235 q 285 1144 285 1185 q 261 1082 285 1110 q 189 1054 238 1054 m 475 1054 q 403 1079 426 1054 q 379 1144 379 1104 q 403 1207 379 1179 q 475 1235 426 1235 q 547 1210 524 1235 q 571 1144 571 1185 q 547 1082 571 1110 q 475 1054 524 1054 z "},"İ":{"ha":664,"x_min":100,"x_max":564,"o":"m 100 0 l 100 139 l 257 139 l 257 833 l 100 833 l 100 972 l 564 972 l 564 833 l 407 833 l 407 139 l 564 139 l 564 0 l 100 0 m 332 1054 q 260 1079 283 1054 q 236 1144 236 1104 q 260 1207 236 1179 q 332 1235 283 1235 q 404 1210 381 1235 q 428 1144 428 1185 q 404 1082 428 1110 q 332 1054 381 1054 z "},"Ị":{"ha":664,"x_min":100,"x_max":564,"o":"m 100 0 l 100 139 l 257 139 l 257 833 l 100 833 l 100 972 l 564 972 l 564 833 l 407 833 l 407 139 l 564 139 l 564 0 l 100 0 m 332 -286 q 261 -262 286 -286 q 236 -196 236 -239 q 262 -131 236 -156 q 332 -106 288 -106 q 403 -129 378 -106 q 428 -196 428 -153 q 402 -261 428 -236 q 332 -286 376 -286 z "},"Ì":{"ha":664,"x_min":100,"x_max":564,"o":"m 100 0 l 100 139 l 257 139 l 257 833 l 100 833 l 100 972 l 564 972 l 564 833 l 407 833 l 407 139 l 564 139 l 564 0 l 100 0 m 438 1049 l 157 1153 l 225 1278 l 479 1121 l 438 1049 z "},"Ỉ":{"ha":664,"x_min":100,"x_max":564,"o":"m 100 0 l 100 139 l 257 139 l 257 833 l 100 833 l 100 972 l 564 972 l 564 833 l 407 833 l 407 139 l 564 139 l 564 0 l 100 0 m 300 1053 q 285 1080 290 1067 q 279 1106 279 1093 q 287 1133 279 1118 q 317 1164 294 1149 q 349 1188 340 1179 q 358 1206 358 1196 q 347 1224 358 1218 q 317 1229 335 1229 q 268 1222 294 1229 q 218 1204 242 1215 l 196 1292 q 258 1317 225 1308 q 319 1325 292 1325 q 430 1294 393 1325 q 467 1218 467 1263 q 451 1163 467 1183 q 415 1133 435 1143 q 378 1112 390 1121 q 367 1089 367 1103 q 368 1079 367 1083 q 371 1071 369 1075 l 300 1053 z "},"Ȋ":{"ha":664,"x_min":100,"x_max":564,"o":"m 100 0 l 100 139 l 257 139 l 257 833 l 100 833 l 100 972 l 564 972 l 564 833 l 407 833 l 407 139 l 564 139 l 564 0 l 100 0 m 210 1043 l 107 1060 q 151 1152 119 1110 q 228 1220 182 1194 q 332 1246 275 1246 q 436 1220 390 1246 q 514 1152 482 1194 q 557 1060 546 1110 l 454 1043 q 407 1106 439 1078 q 332 1133 375 1133 q 257 1106 289 1133 q 210 1043 225 1078 z "},"Ī":{"ha":664,"x_min":100,"x_max":564,"o":"m 100 0 l 100 139 l 257 139 l 257 833 l 100 833 l 100 972 l 564 972 l 564 833 l 407 833 l 407 139 l 564 139 l 564 0 l 100 0 m 101 1093 l 101 1197 l 561 1197 l 561 1093 l 101 1093 z "},"Į":{"ha":664,"x_min":100,"x_max":564,"o":"m 100 0 l 100 139 l 257 139 l 257 833 l 100 833 l 100 972 l 564 972 l 564 833 l 407 833 l 407 139 l 564 139 l 564 0 l 100 0 m 351 -278 q 276 -258 311 -278 q 221 -206 242 -239 q 200 -135 200 -174 q 215 -69 200 -100 q 258 -11 229 -37 q 326 36 286 15 q 415 71 365 57 l 476 0 q 401 -28 436 -8 q 347 -72 367 -47 q 326 -121 326 -96 q 340 -157 326 -143 q 374 -171 353 -171 q 401 -162 389 -171 q 425 -136 414 -153 l 503 -192 q 445 -252 489 -226 q 351 -278 401 -278 z "},"Ĩ":{"ha":664,"x_min":89,"x_max":574,"o":"m 100 0 l 100 139 l 257 139 l 257 833 l 100 833 l 100 972 l 564 972 l 564 833 l 407 833 l 407 139 l 564 139 l 564 0 l 100 0 m 435 1067 q 370 1077 403 1067 q 308 1099 338 1088 q 268 1114 285 1108 q 238 1119 251 1119 q 208 1106 219 1119 q 196 1067 196 1093 l 89 1067 q 138 1183 89 1142 q 247 1224 186 1224 q 304 1214 276 1224 q 358 1193 332 1204 q 397 1179 378 1185 q 428 1174 415 1174 q 458 1188 447 1174 q 468 1224 469 1201 l 574 1224 q 557 1147 574 1183 q 509 1089 540 1111 q 435 1067 478 1067 z "},"J":{"ha":892,"x_min":69,"x_max":822,"o":"m 356 -14 q 265 -1 308 -14 q 185 35 222 11 q 119 91 149 58 q 69 163 90 124 l 164 261 q 217 194 193 219 q 264 156 242 169 q 308 137 286 142 q 356 132 331 132 q 443 155 406 132 q 501 218 481 178 q 522 310 522 258 l 522 833 l 344 833 l 344 972 l 822 972 l 822 833 l 672 833 l 672 296 q 649 173 672 229 q 584 75 626 117 q 484 10 542 33 q 356 -14 426 -14 z "},"Ĵ":{"ha":892,"x_min":69,"x_max":822,"o":"m 356 -14 q 265 -1 308 -14 q 185 35 222 11 q 119 91 149 58 q 69 163 90 124 l 164 261 q 217 194 193 219 q 264 156 242 169 q 308 137 286 142 q 356 132 331 132 q 443 155 406 132 q 501 218 481 178 q 522 310 522 258 l 522 833 l 344 833 l 344 972 l 822 972 l 822 833 l 672 833 l 672 296 q 649 173 672 229 q 584 75 626 117 q 484 10 542 33 q 356 -14 426 -14 m 419 1049 l 368 1097 l 540 1238 l 642 1238 l 814 1097 l 763 1049 l 571 1139 l 611 1139 l 419 1049 z "},"K":{"ha":1017,"x_min":136,"x_max":968,"o":"m 261 294 l 253 463 l 763 972 l 960 972 l 261 294 m 136 0 l 136 972 l 286 972 l 286 0 l 136 0 m 781 0 l 408 497 l 519 593 l 968 0 l 781 0 z "},"Ķ":{"ha":1017,"x_min":136,"x_max":968,"o":"m 261 294 l 253 463 l 763 972 l 960 972 l 261 294 m 136 0 l 136 972 l 286 972 l 286 0 l 136 0 m 781 0 l 408 497 l 519 593 l 968 0 l 781 0 m 439 -337 l 406 -279 q 442 -262 425 -274 q 470 -235 460 -250 q 481 -207 481 -221 q 476 -193 481 -199 q 454 -183 471 -187 q 421 -164 429 -176 q 413 -131 413 -151 q 438 -81 413 -100 q 503 -62 463 -62 q 580 -92 549 -62 q 611 -169 611 -121 q 599 -221 611 -196 q 564 -267 586 -246 q 510 -307 542 -289 q 439 -337 478 -325 z "},"L":{"ha":832,"x_min":136,"x_max":742,"o":"m 136 0 l 136 972 l 286 972 l 286 144 l 742 144 l 742 0 l 136 0 z "},"Ǉ":{"ha":1724,"x_min":136,"x_max":1654,"o":"m 136 0 l 136 972 l 286 972 l 286 144 l 742 144 l 742 0 l 136 0 m 1188 -14 q 1097 -1 1140 -14 q 1017 35 1054 11 q 951 91 981 58 q 901 163 922 124 l 996 261 q 1049 194 1025 219 q 1096 156 1074 169 q 1140 137 1118 142 q 1188 132 1163 132 q 1275 155 1238 132 q 1333 218 1313 178 q 1354 310 1354 258 l 1354 833 l 1176 833 l 1176 972 l 1654 972 l 1654 833 l 1504 833 l 1504 296 q 1481 173 1504 229 q 1416 75 1458 117 q 1316 10 1374 33 q 1188 -14 1258 -14 z "},"Ĺ":{"ha":832,"x_min":79,"x_max":742,"o":"m 136 0 l 136 972 l 286 972 l 286 144 l 742 144 l 742 0 l 136 0 m 118 1049 l 79 1121 l 333 1278 l 399 1153 l 118 1049 z "},"Ľ":{"ha":832,"x_min":136,"x_max":742,"o":"m 136 0 l 136 972 l 286 972 l 286 144 l 742 144 l 742 0 l 136 0 m 468 697 l 435 756 q 472 773 454 761 q 499 799 489 785 q 510 828 510 814 q 505 842 510 836 q 483 851 500 847 q 450 871 458 858 q 442 904 442 883 q 467 953 442 935 q 532 972 492 972 q 609 943 578 972 q 640 865 640 914 q 628 814 640 839 q 593 767 615 789 q 539 728 571 746 q 468 697 507 710 z "},"Ļ":{"ha":832,"x_min":136,"x_max":742,"o":"m 136 0 l 136 972 l 286 972 l 286 144 l 742 144 l 742 0 l 136 0 m 347 -337 l 314 -279 q 351 -262 333 -274 q 378 -235 368 -250 q 389 -207 389 -221 q 384 -193 389 -199 q 363 -183 379 -187 q 329 -164 338 -176 q 321 -131 321 -151 q 346 -81 321 -100 q 411 -62 371 -62 q 488 -92 457 -62 q 519 -169 519 -121 q 507 -221 519 -196 q 472 -267 494 -246 q 418 -307 450 -289 q 347 -337 386 -325 z "},"Ŀ":{"ha":832,"x_min":136,"x_max":742,"o":"m 136 0 l 136 972 l 286 972 l 286 144 l 742 144 l 742 0 l 136 0 m 625 415 q 554 442 579 415 q 529 519 529 469 q 556 594 529 565 q 625 624 582 624 q 696 597 671 624 q 721 519 721 569 q 694 444 721 474 q 625 415 668 415 z "},"Ḷ":{"ha":832,"x_min":136,"x_max":742,"o":"m 136 0 l 136 972 l 286 972 l 286 144 l 742 144 l 742 0 l 136 0 m 417 -286 q 346 -262 371 -286 q 321 -196 321 -239 q 347 -131 321 -156 q 417 -106 372 -106 q 488 -129 463 -106 q 513 -196 513 -153 q 487 -261 513 -236 q 417 -286 461 -286 z "},"ǈ":{"ha":1200,"x_min":136,"x_max":1122,"o":"m 136 0 l 136 972 l 286 972 l 286 144 l 742 144 l 742 0 l 136 0 m 844 -274 l 790 -164 q 880 -145 844 -164 q 933 -90 915 -126 q 951 1 951 -53 l 951 729 l 1094 729 l 1094 -33 q 1063 -158 1094 -104 q 976 -243 1032 -212 q 844 -274 919 -274 m 1026 890 q 956 914 981 890 q 931 981 931 938 q 956 1046 931 1021 q 1026 1071 982 1071 q 1097 1047 1072 1071 q 1122 981 1122 1024 q 1097 915 1122 940 q 1026 890 1071 890 z "},"Ḻ":{"ha":832,"x_min":136,"x_max":742,"o":"m 136 0 l 136 972 l 286 972 l 286 144 l 742 144 l 742 0 l 136 0 m 221 -247 l 221 -144 l 611 -144 l 611 -247 l 221 -247 z "},"Ł":{"ha":886,"x_min":56,"x_max":796,"o":"m 96 356 l 56 456 l 460 638 l 504 531 l 96 356 m 190 0 l 190 972 l 340 972 l 340 144 l 796 144 l 796 0 l 190 0 z "},"M":{"ha":1200,"x_min":136,"x_max":1064,"o":"m 136 0 l 136 972 l 283 972 l 638 396 l 567 397 l 925 972 l 1064 972 l 1064 0 l 914 0 l 914 399 q 920 624 914 524 q 942 822 926 724 l 961 771 l 643 279 l 551 279 l 243 765 l 258 822 q 280 631 274 729 q 286 399 286 533 l 286 0 l 136 0 z "},"Ṃ":{"ha":1200,"x_min":136,"x_max":1064,"o":"m 136 0 l 136 972 l 283 972 l 638 396 l 567 397 l 925 972 l 1064 972 l 1064 0 l 914 0 l 914 399 q 920 624 914 524 q 942 822 926 724 l 961 771 l 643 279 l 551 279 l 243 765 l 258 822 q 280 631 274 729 q 286 399 286 533 l 286 0 l 136 0 m 600 -286 q 529 -262 554 -286 q 504 -196 504 -239 q 530 -131 504 -156 q 600 -106 556 -106 q 671 -129 646 -106 q 696 -196 696 -153 q 670 -261 696 -236 q 600 -286 644 -286 z "},"N":{"ha":1101,"x_min":136,"x_max":965,"o":"m 136 0 l 136 972 l 271 972 l 865 176 l 843 164 q 833 240 838 199 q 826 327 829 281 q 820 426 822 374 q 817 535 818 478 q 815 653 815 592 l 815 972 l 965 972 l 965 0 l 828 0 l 243 767 l 258 786 q 270 642 265 701 q 278 542 275 583 q 283 476 282 501 q 285 433 285 450 q 286 404 286 417 l 286 0 l 136 0 z "},"Ǌ":{"ha":1993,"x_min":136,"x_max":1924,"o":"m 136 0 l 136 972 l 271 972 l 865 176 l 843 164 q 833 240 838 199 q 826 327 829 281 q 820 426 822 374 q 817 535 818 478 q 815 653 815 592 l 815 972 l 965 972 l 965 0 l 828 0 l 243 767 l 258 786 q 270 642 265 701 q 278 542 275 583 q 283 476 282 501 q 285 433 285 450 q 286 404 286 417 l 286 0 l 136 0 m 1457 -14 q 1367 -1 1410 -14 q 1287 35 1324 11 q 1221 91 1250 58 q 1171 163 1192 124 l 1265 261 q 1319 194 1294 219 q 1365 156 1343 169 q 1410 137 1388 142 q 1457 132 1432 132 q 1544 155 1507 132 q 1603 218 1582 178 q 1624 310 1624 258 l 1624 833 l 1446 833 l 1446 972 l 1924 972 l 1924 833 l 1774 833 l 1774 296 q 1751 173 1774 229 q 1685 75 1728 117 q 1585 10 1643 33 q 1457 -14 1528 -14 z "},"Ń":{"ha":1101,"x_min":136,"x_max":965,"o":"m 136 0 l 136 972 l 271 972 l 865 176 l 843 164 q 833 240 838 199 q 826 327 829 281 q 820 426 822 374 q 817 535 818 478 q 815 653 815 592 l 815 972 l 965 972 l 965 0 l 828 0 l 243 767 l 258 786 q 270 642 265 701 q 278 542 275 583 q 283 476 282 501 q 285 433 285 450 q 286 404 286 417 l 286 0 l 136 0 m 457 1049 l 418 1121 l 672 1278 l 738 1153 l 457 1049 z "},"Ň":{"ha":1101,"x_min":136,"x_max":965,"o":"m 136 0 l 136 972 l 271 972 l 865 176 l 843 164 q 833 240 838 199 q 826 327 829 281 q 820 426 822 374 q 817 535 818 478 q 815 653 815 592 l 815 972 l 965 972 l 965 0 l 828 0 l 243 767 l 258 786 q 270 642 265 701 q 278 542 275 583 q 283 476 282 501 q 285 433 285 450 q 286 404 286 417 l 286 0 l 136 0 m 492 1051 l 325 1194 l 378 1240 l 572 1153 l 531 1153 l 725 1240 l 778 1194 l 611 1051 l 492 1051 z "},"Ņ":{"ha":1101,"x_min":136,"x_max":965,"o":"m 136 0 l 136 972 l 271 972 l 865 176 l 843 164 q 833 240 838 199 q 826 327 829 281 q 820 426 822 374 q 817 535 818 478 q 815 653 815 592 l 815 972 l 965 972 l 965 0 l 828 0 l 243 767 l 258 786 q 270 642 265 701 q 278 542 275 583 q 283 476 282 501 q 285 433 285 450 q 286 404 286 417 l 286 0 l 136 0 m 482 -337 l 449 -279 q 485 -262 468 -274 q 513 -235 503 -250 q 524 -207 524 -221 q 519 -193 524 -199 q 497 -183 514 -187 q 464 -164 472 -176 q 456 -131 456 -151 q 481 -81 456 -100 q 546 -62 506 -62 q 623 -92 592 -62 q 654 -169 654 -121 q 642 -221 654 -196 q 607 -267 629 -246 q 553 -307 585 -289 q 482 -337 521 -325 z "},"Ṅ":{"ha":1101,"x_min":136,"x_max":965,"o":"m 136 0 l 136 972 l 271 972 l 865 176 l 843 164 q 833 240 838 199 q 826 327 829 281 q 820 426 822 374 q 817 535 818 478 q 815 653 815 592 l 815 972 l 965 972 l 965 0 l 828 0 l 243 767 l 258 786 q 270 642 265 701 q 278 542 275 583 q 283 476 282 501 q 285 433 285 450 q 286 404 286 417 l 286 0 l 136 0 m 551 1054 q 479 1079 503 1054 q 456 1144 456 1104 q 479 1207 456 1179 q 551 1235 503 1235 q 624 1210 600 1235 q 647 1144 647 1185 q 624 1082 647 1110 q 551 1054 600 1054 z "},"Ṇ":{"ha":1101,"x_min":136,"x_max":965,"o":"m 136 0 l 136 972 l 271 972 l 865 176 l 843 164 q 833 240 838 199 q 826 327 829 281 q 820 426 822 374 q 817 535 818 478 q 815 653 815 592 l 815 972 l 965 972 l 965 0 l 828 0 l 243 767 l 258 786 q 270 642 265 701 q 278 542 275 583 q 283 476 282 501 q 285 433 285 450 q 286 404 286 417 l 286 0 l 136 0 m 551 -286 q 481 -262 506 -286 q 456 -196 456 -239 q 481 -131 456 -156 q 551 -106 507 -106 q 622 -129 597 -106 q 647 -196 647 -153 q 622 -261 647 -236 q 551 -286 596 -286 z "},"Ɲ":{"ha":1079,"x_min":-47,"x_max":943,"o":"m 7 -274 l -47 -164 q 74 -122 33 -164 q 114 1 114 -81 l 114 972 l 249 972 l 843 176 l 821 164 q 809 260 814 207 q 801 375 804 313 q 795 507 797 438 q 793 653 793 576 l 793 972 l 943 972 l 943 0 l 806 0 l 221 767 l 236 786 q 244 694 240 740 q 252 606 249 649 q 258 524 256 563 q 263 456 261 486 q 264 404 264 425 l 264 -33 q 232 -160 264 -106 q 142 -244 200 -214 q 7 -274 83 -274 z "},"ǋ":{"ha":1469,"x_min":136,"x_max":1392,"o":"m 136 0 l 136 972 l 271 972 l 865 176 l 843 164 q 833 240 838 199 q 826 327 829 281 q 820 426 822 374 q 817 535 818 478 q 815 653 815 592 l 815 972 l 965 972 l 965 0 l 828 0 l 243 767 l 258 786 q 270 642 265 701 q 278 542 275 583 q 283 476 282 501 q 285 433 285 450 q 286 404 286 417 l 286 0 l 136 0 m 1114 -274 l 1060 -164 q 1149 -145 1114 -164 q 1203 -90 1185 -126 q 1221 1 1221 -53 l 1221 729 l 1364 729 l 1364 -33 q 1333 -158 1364 -104 q 1245 -243 1301 -212 q 1114 -274 1189 -274 m 1296 890 q 1225 914 1250 890 q 1200 981 1200 938 q 1226 1046 1200 1021 q 1296 1071 1251 1071 q 1367 1047 1342 1071 q 1392 981 1392 1024 q 1366 915 1392 940 q 1296 890 1340 890 z "},"Ṉ":{"ha":1101,"x_min":136,"x_max":965,"o":"m 136 0 l 136 972 l 271 972 l 865 176 l 843 164 q 833 240 838 199 q 826 327 829 281 q 820 426 822 374 q 817 535 818 478 q 815 653 815 592 l 815 972 l 965 972 l 965 0 l 828 0 l 243 767 l 258 786 q 270 642 265 701 q 278 542 275 583 q 283 476 282 501 q 285 433 285 450 q 286 404 286 417 l 286 0 l 136 0 m 356 -247 l 356 -144 l 746 -144 l 746 -247 l 356 -247 z "},"Ñ":{"ha":1101,"x_min":136,"x_max":965,"o":"m 136 0 l 136 972 l 271 972 l 865 176 l 843 164 q 833 240 838 199 q 826 327 829 281 q 820 426 822 374 q 817 535 818 478 q 815 653 815 592 l 815 972 l 965 972 l 965 0 l 828 0 l 243 767 l 258 786 q 270 642 265 701 q 278 542 275 583 q 283 476 282 501 q 285 433 285 450 q 286 404 286 417 l 286 0 l 136 0 m 654 1067 q 590 1077 622 1067 q 528 1099 557 1088 q 488 1114 504 1108 q 457 1119 471 1119 q 427 1106 439 1119 q 415 1067 415 1093 l 308 1067 q 357 1183 308 1142 q 467 1224 406 1224 q 524 1214 496 1224 q 578 1193 551 1204 q 616 1179 597 1185 q 647 1174 635 1174 q 678 1188 667 1174 q 688 1224 689 1201 l 793 1224 q 776 1147 793 1183 q 728 1089 760 1111 q 654 1067 697 1067 z "},"Ŋ":{"ha":1101,"x_min":136,"x_max":965,"o":"m 708 -274 l 654 -164 q 724 -153 694 -164 q 774 -122 754 -143 q 805 -71 794 -101 q 815 1 815 -40 l 815 106 l 828 0 l 243 767 l 258 786 q 267 694 263 740 q 274 606 271 649 q 281 524 278 563 q 285 456 283 486 q 286 404 286 425 l 286 0 l 136 0 l 136 972 l 271 972 l 865 176 l 843 164 q 831 260 836 207 q 823 375 826 313 q 817 507 819 438 q 815 653 815 576 l 815 972 l 965 972 l 965 -33 q 933 -160 965 -106 q 843 -244 901 -214 q 708 -274 785 -274 z "},"O":{"ha":1086,"x_min":67,"x_max":1019,"o":"m 543 -14 q 353 24 440 -14 q 202 128 267 61 q 102 287 138 196 q 67 486 67 378 q 102 685 67 594 q 202 844 138 776 q 353 949 267 911 q 543 986 440 986 q 733 949 646 986 q 884 843 819 911 q 984 684 949 775 q 1019 486 1019 593 q 984 288 1019 379 q 884 129 949 197 q 733 24 819 61 q 543 -14 646 -14 m 543 132 q 673 158 614 132 q 775 233 732 185 q 842 345 818 281 q 867 486 867 410 q 842 627 867 563 q 775 740 818 692 q 673 814 732 788 q 543 840 614 840 q 413 814 472 840 q 310 740 354 788 q 243 628 267 693 q 219 486 219 564 q 243 344 219 410 q 310 232 267 279 q 413 158 354 185 q 543 132 472 132 z "},"Ó":{"ha":1086,"x_min":67,"x_max":1019,"o":"m 543 -14 q 353 24 440 -14 q 202 128 267 61 q 102 287 138 196 q 67 486 67 378 q 102 685 67 594 q 202 844 138 776 q 353 949 267 911 q 543 986 440 986 q 733 949 646 986 q 884 843 819 911 q 984 684 949 775 q 1019 486 1019 593 q 984 288 1019 379 q 884 129 949 197 q 733 24 819 61 q 543 -14 646 -14 m 543 132 q 673 158 614 132 q 775 233 732 185 q 842 345 818 281 q 867 486 867 410 q 842 627 867 563 q 775 740 818 692 q 673 814 732 788 q 543 840 614 840 q 413 814 472 840 q 310 740 354 788 q 243 628 267 693 q 219 486 219 564 q 243 344 219 410 q 310 232 267 279 q 413 158 354 185 q 543 132 472 132 m 449 1049 l 410 1121 l 664 1278 l 729 1153 l 449 1049 z "},"Ŏ":{"ha":1086,"x_min":67,"x_max":1019,"o":"m 543 -14 q 353 24 440 -14 q 202 128 267 61 q 102 287 138 196 q 67 486 67 378 q 102 685 67 594 q 202 844 138 776 q 353 949 267 911 q 543 986 440 986 q 733 949 646 986 q 884 843 819 911 q 984 684 949 775 q 1019 486 1019 593 q 984 288 1019 379 q 884 129 949 197 q 733 24 819 61 q 543 -14 646 -14 m 543 132 q 673 158 614 132 q 775 233 732 185 q 842 345 818 281 q 867 486 867 410 q 842 627 867 563 q 775 740 818 692 q 673 814 732 788 q 543 840 614 840 q 413 814 472 840 q 310 740 354 788 q 243 628 267 693 q 219 486 219 564 q 243 344 219 410 q 310 232 267 279 q 413 158 354 185 q 543 132 472 132 m 543 1043 q 440 1069 486 1043 q 362 1137 393 1094 q 318 1229 331 1179 l 421 1246 q 468 1183 436 1211 q 543 1156 500 1156 q 618 1183 586 1156 q 665 1246 650 1211 l 768 1229 q 725 1137 757 1179 q 647 1069 693 1094 q 543 1043 601 1043 z "},"Ǒ":{"ha":1086,"x_min":67,"x_max":1019,"o":"m 543 -14 q 353 24 440 -14 q 202 128 267 61 q 102 287 138 196 q 67 486 67 378 q 102 685 67 594 q 202 844 138 776 q 353 949 267 911 q 543 986 440 986 q 733 949 646 986 q 884 843 819 911 q 984 684 949 775 q 1019 486 1019 593 q 984 288 1019 379 q 884 129 949 197 q 733 24 819 61 q 543 -14 646 -14 m 543 132 q 673 158 614 132 q 775 233 732 185 q 842 345 818 281 q 867 486 867 410 q 842 627 867 563 q 775 740 818 692 q 673 814 732 788 q 543 840 614 840 q 413 814 472 840 q 310 740 354 788 q 243 628 267 693 q 219 486 219 564 q 243 344 219 410 q 310 232 267 279 q 413 158 354 185 q 543 132 472 132 m 483 1051 l 317 1194 l 369 1240 l 564 1153 l 522 1153 l 717 1240 l 769 1194 l 603 1051 l 483 1051 z "},"Ô":{"ha":1086,"x_min":67,"x_max":1019,"o":"m 543 -14 q 353 24 440 -14 q 202 128 267 61 q 102 287 138 196 q 67 486 67 378 q 102 685 67 594 q 202 844 138 776 q 353 949 267 911 q 543 986 440 986 q 733 949 646 986 q 884 843 819 911 q 984 684 949 775 q 1019 486 1019 593 q 984 288 1019 379 q 884 129 949 197 q 733 24 819 61 q 543 -14 646 -14 m 543 132 q 673 158 614 132 q 775 233 732 185 q 842 345 818 281 q 867 486 867 410 q 842 627 867 563 q 775 740 818 692 q 673 814 732 788 q 543 840 614 840 q 413 814 472 840 q 310 740 354 788 q 243 628 267 693 q 219 486 219 564 q 243 344 219 410 q 310 232 267 279 q 413 158 354 185 q 543 132 472 132 m 371 1049 l 319 1097 l 492 1238 l 593 1238 l 765 1097 l 714 1049 l 522 1139 l 563 1139 l 371 1049 z "},"Ố":{"ha":1086,"x_min":67,"x_max":1019,"o":"m 543 -14 q 353 24 440 -14 q 202 128 267 61 q 102 287 138 196 q 67 486 67 378 q 102 685 67 594 q 202 844 138 776 q 353 949 267 911 q 543 986 440 986 q 733 949 646 986 q 884 843 819 911 q 984 684 949 775 q 1019 486 1019 593 q 984 288 1019 379 q 884 129 949 197 q 733 24 819 61 q 543 -14 646 -14 m 543 132 q 673 158 614 132 q 775 233 732 185 q 842 345 818 281 q 867 486 867 410 q 842 627 867 563 q 775 740 818 692 q 673 814 732 788 q 543 840 614 840 q 413 814 472 840 q 310 740 354 788 q 243 628 267 693 q 219 486 219 564 q 243 344 219 410 q 310 232 267 279 q 413 158 354 185 q 543 132 472 132 m 371 1049 l 325 1099 l 492 1235 l 593 1235 l 760 1099 l 714 1049 l 522 1136 l 563 1136 l 371 1049 m 768 1200 l 696 1250 l 810 1453 l 931 1367 l 768 1200 z "},"Ộ":{"ha":1086,"x_min":67,"x_max":1019,"o":"m 543 -14 q 353 24 440 -14 q 202 128 267 61 q 102 287 138 196 q 67 486 67 378 q 102 685 67 594 q 202 844 138 776 q 353 949 267 911 q 543 986 440 986 q 733 949 646 986 q 884 843 819 911 q 984 684 949 775 q 1019 486 1019 593 q 984 288 1019 379 q 884 129 949 197 q 733 24 819 61 q 543 -14 646 -14 m 543 132 q 673 158 614 132 q 775 233 732 185 q 842 345 818 281 q 867 486 867 410 q 842 627 867 563 q 775 740 818 692 q 673 814 732 788 q 543 840 614 840 q 413 814 472 840 q 310 740 354 788 q 243 628 267 693 q 219 486 219 564 q 243 344 219 410 q 310 232 267 279 q 413 158 354 185 q 543 132 472 132 m 543 -286 q 472 -262 497 -286 q 447 -196 447 -239 q 473 -131 447 -156 q 543 -106 499 -106 q 614 -129 589 -106 q 639 -196 639 -153 q 613 -261 639 -236 q 543 -286 588 -286 m 371 1049 l 319 1097 l 492 1238 l 593 1238 l 765 1097 l 714 1049 l 522 1139 l 563 1139 l 371 1049 z "},"Ồ":{"ha":1086,"x_min":67,"x_max":1019,"o":"m 543 -14 q 353 24 440 -14 q 202 128 267 61 q 102 287 138 196 q 67 486 67 378 q 102 685 67 594 q 202 844 138 776 q 353 949 267 911 q 543 986 440 986 q 733 949 646 986 q 884 843 819 911 q 984 684 949 775 q 1019 486 1019 593 q 984 288 1019 379 q 884 129 949 197 q 733 24 819 61 q 543 -14 646 -14 m 543 132 q 673 158 614 132 q 775 233 732 185 q 842 345 818 281 q 867 486 867 410 q 842 627 867 563 q 775 740 818 692 q 673 814 732 788 q 543 840 614 840 q 413 814 472 840 q 310 740 354 788 q 243 628 267 693 q 219 486 219 564 q 243 344 219 410 q 310 232 267 279 q 413 158 354 185 q 543 132 472 132 m 371 1049 l 325 1099 l 492 1235 l 593 1235 l 760 1099 l 714 1049 l 522 1136 l 563 1136 l 371 1049 m 772 1201 l 604 1369 l 724 1457 l 839 1254 l 772 1201 z "},"Ổ":{"ha":1086,"x_min":67,"x_max":1019,"o":"m 543 -14 q 353 24 440 -14 q 202 128 267 61 q 102 287 138 196 q 67 486 67 378 q 102 685 67 594 q 202 844 138 776 q 353 949 267 911 q 543 986 440 986 q 733 949 646 986 q 884 843 819 911 q 984 684 949 775 q 1019 486 1019 593 q 984 288 1019 379 q 884 129 949 197 q 733 24 819 61 q 543 -14 646 -14 m 543 132 q 673 158 614 132 q 775 233 732 185 q 842 345 818 281 q 867 486 867 410 q 842 627 867 563 q 775 740 818 692 q 673 814 732 788 q 543 840 614 840 q 413 814 472 840 q 310 740 354 788 q 243 628 267 693 q 219 486 219 564 q 243 344 219 410 q 310 232 267 279 q 413 158 354 185 q 543 132 472 132 m 371 1049 l 325 1099 l 492 1235 l 593 1235 l 760 1099 l 714 1049 l 522 1136 l 563 1136 l 371 1049 m 729 1199 q 715 1222 721 1210 q 708 1247 708 1235 q 715 1272 708 1260 q 746 1301 721 1285 q 777 1324 767 1315 q 788 1338 788 1332 q 776 1356 788 1350 q 746 1361 764 1361 q 697 1354 724 1361 q 647 1336 671 1347 l 625 1424 q 688 1449 654 1440 q 749 1457 721 1457 q 859 1426 822 1457 q 896 1350 896 1394 q 878 1303 896 1321 q 844 1275 861 1286 q 807 1250 818 1260 q 796 1232 796 1240 q 797 1224 796 1228 q 800 1217 799 1221 l 729 1199 z "},"Ỗ":{"ha":1086,"x_min":67,"x_max":1019,"o":"m 543 -14 q 353 24 440 -14 q 202 128 267 61 q 102 287 138 196 q 67 486 67 378 q 102 685 67 594 q 202 844 138 776 q 353 949 267 911 q 543 986 440 986 q 733 949 646 986 q 884 843 819 911 q 984 684 949 775 q 1019 486 1019 593 q 984 288 1019 379 q 884 129 949 197 q 733 24 819 61 q 543 -14 646 -14 m 543 132 q 673 158 614 132 q 775 233 732 185 q 842 345 818 281 q 867 486 867 410 q 842 627 867 563 q 775 740 818 692 q 673 814 732 788 q 543 840 614 840 q 413 814 472 840 q 310 740 354 788 q 243 628 267 693 q 219 486 219 564 q 243 344 219 410 q 310 232 267 279 q 413 158 354 185 q 543 132 472 132 m 371 1049 l 325 1099 l 492 1235 l 593 1235 l 760 1099 l 714 1049 l 522 1136 l 563 1136 l 371 1049 m 650 1301 q 588 1311 617 1301 q 536 1331 560 1321 q 494 1349 511 1342 q 464 1356 478 1356 q 432 1342 446 1356 q 413 1304 418 1328 l 318 1318 q 360 1417 321 1375 q 454 1460 399 1460 q 508 1450 483 1460 q 557 1429 532 1440 q 594 1413 575 1421 q 626 1406 613 1406 q 656 1419 646 1406 q 672 1458 667 1432 l 767 1444 q 751 1373 765 1406 q 713 1321 738 1340 q 650 1301 688 1301 z "},"Ȍ":{"ha":1086,"x_min":67,"x_max":1019,"o":"m 543 -14 q 353 24 440 -14 q 202 128 267 61 q 102 287 138 196 q 67 486 67 378 q 102 685 67 594 q 202 844 138 776 q 353 949 267 911 q 543 986 440 986 q 733 949 646 986 q 884 843 819 911 q 984 684 949 775 q 1019 486 1019 593 q 984 288 1019 379 q 884 129 949 197 q 733 24 819 61 q 543 -14 646 -14 m 543 132 q 673 158 614 132 q 775 233 732 185 q 842 345 818 281 q 867 486 867 410 q 842 627 867 563 q 775 740 818 692 q 673 814 732 788 q 543 840 614 840 q 413 814 472 840 q 310 740 354 788 q 243 628 267 693 q 219 486 219 564 q 243 344 219 410 q 310 232 267 279 q 413 158 354 185 q 543 132 472 132 m 697 1042 l 468 1193 l 568 1299 l 750 1108 l 697 1042 m 421 1042 l 192 1193 l 292 1299 l 474 1108 l 421 1042 z "},"Ö":{"ha":1086,"x_min":67,"x_max":1019,"o":"m 543 -14 q 353 24 440 -14 q 202 128 267 61 q 102 287 138 196 q 67 486 67 378 q 102 685 67 594 q 202 844 138 776 q 353 949 267 911 q 543 986 440 986 q 733 949 646 986 q 884 843 819 911 q 984 684 949 775 q 1019 486 1019 593 q 984 288 1019 379 q 884 129 949 197 q 733 24 819 61 q 543 -14 646 -14 m 543 132 q 673 158 614 132 q 775 233 732 185 q 842 345 818 281 q 867 486 867 410 q 842 627 867 563 q 775 740 818 692 q 673 814 732 788 q 543 840 614 840 q 413 814 472 840 q 310 740 354 788 q 243 628 267 693 q 219 486 219 564 q 243 344 219 410 q 310 232 267 279 q 413 158 354 185 q 543 132 472 132 m 686 1054 q 614 1079 638 1054 q 590 1144 590 1104 q 614 1207 590 1179 q 686 1235 638 1235 q 758 1210 735 1235 q 782 1144 782 1185 q 758 1082 782 1110 q 686 1054 735 1054 m 400 1054 q 328 1079 351 1054 q 304 1144 304 1104 q 328 1207 304 1179 q 400 1235 351 1235 q 472 1210 449 1235 q 496 1144 496 1185 q 472 1082 496 1110 q 400 1054 449 1054 z "},"Ȫ":{"ha":1086,"x_min":67,"x_max":1019,"o":"m 543 -14 q 353 24 440 -14 q 202 128 267 61 q 102 287 138 196 q 67 486 67 378 q 102 685 67 594 q 202 844 138 776 q 353 949 267 911 q 543 986 440 986 q 733 949 646 986 q 884 843 819 911 q 984 684 949 775 q 1019 486 1019 593 q 984 288 1019 379 q 884 129 949 197 q 733 24 819 61 q 543 -14 646 -14 m 543 132 q 673 158 614 132 q 775 233 732 185 q 842 345 818 281 q 867 486 867 410 q 842 627 867 563 q 775 740 818 692 q 673 814 732 788 q 543 840 614 840 q 413 814 472 840 q 310 740 354 788 q 243 628 267 693 q 219 486 219 564 q 243 344 219 410 q 310 232 267 279 q 413 158 354 185 q 543 132 472 132 m 686 1054 q 614 1079 638 1054 q 590 1144 590 1104 q 614 1207 590 1179 q 686 1235 638 1235 q 758 1210 735 1235 q 782 1144 782 1185 q 758 1082 782 1110 q 686 1054 735 1054 m 400 1054 q 328 1079 351 1054 q 304 1144 304 1104 q 328 1207 304 1179 q 400 1235 351 1235 q 472 1210 449 1235 q 496 1144 496 1185 q 472 1082 496 1110 q 400 1054 449 1054 m 313 1301 l 313 1406 l 772 1406 l 772 1301 l 313 1301 z "},"Ȱ":{"ha":1086,"x_min":67,"x_max":1019,"o":"m 543 -14 q 353 24 440 -14 q 202 128 267 61 q 102 287 138 196 q 67 486 67 378 q 102 685 67 594 q 202 844 138 776 q 353 949 267 911 q 543 986 440 986 q 733 949 646 986 q 884 843 819 911 q 984 684 949 775 q 1019 486 1019 593 q 984 288 1019 379 q 884 129 949 197 q 733 24 819 61 q 543 -14 646 -14 m 543 132 q 673 158 614 132 q 775 233 732 185 q 842 345 818 281 q 867 486 867 410 q 842 627 867 563 q 775 740 818 692 q 673 814 732 788 q 543 840 614 840 q 413 814 472 840 q 310 740 354 788 q 243 628 267 693 q 219 486 219 564 q 243 344 219 410 q 310 232 267 279 q 413 158 354 185 q 543 132 472 132 m 543 1054 q 471 1079 494 1054 q 447 1144 447 1104 q 471 1207 447 1179 q 543 1235 494 1235 q 615 1210 592 1235 q 639 1144 639 1185 q 615 1082 639 1110 q 543 1054 592 1054 m 313 1301 l 313 1406 l 772 1406 l 772 1301 l 313 1301 z "},"Ọ":{"ha":1086,"x_min":67,"x_max":1019,"o":"m 543 -14 q 353 24 440 -14 q 202 128 267 61 q 102 287 138 196 q 67 486 67 378 q 102 685 67 594 q 202 844 138 776 q 353 949 267 911 q 543 986 440 986 q 733 949 646 986 q 884 843 819 911 q 984 684 949 775 q 1019 486 1019 593 q 984 288 1019 379 q 884 129 949 197 q 733 24 819 61 q 543 -14 646 -14 m 543 132 q 673 158 614 132 q 775 233 732 185 q 842 345 818 281 q 867 486 867 410 q 842 627 867 563 q 775 740 818 692 q 673 814 732 788 q 543 840 614 840 q 413 814 472 840 q 310 740 354 788 q 243 628 267 693 q 219 486 219 564 q 243 344 219 410 q 310 232 267 279 q 413 158 354 185 q 543 132 472 132 m 543 -286 q 472 -262 497 -286 q 447 -196 447 -239 q 473 -131 447 -156 q 543 -106 499 -106 q 614 -129 589 -106 q 639 -196 639 -153 q 613 -261 639 -236 q 543 -286 588 -286 z "},"Ò":{"ha":1086,"x_min":67,"x_max":1019,"o":"m 543 -14 q 353 24 440 -14 q 202 128 267 61 q 102 287 138 196 q 67 486 67 378 q 102 685 67 594 q 202 844 138 776 q 353 949 267 911 q 543 986 440 986 q 733 949 646 986 q 884 843 819 911 q 984 684 949 775 q 1019 486 1019 593 q 984 288 1019 379 q 884 129 949 197 q 733 24 819 61 q 543 -14 646 -14 m 543 132 q 673 158 614 132 q 775 233 732 185 q 842 345 818 281 q 867 486 867 410 q 842 627 867 563 q 775 740 818 692 q 673 814 732 788 q 543 840 614 840 q 413 814 472 840 q 310 740 354 788 q 243 628 267 693 q 219 486 219 564 q 243 344 219 410 q 310 232 267 279 q 413 158 354 185 q 543 132 472 132 m 649 1049 l 368 1153 l 436 1278 l 690 1121 l 649 1049 z "},"Ỏ":{"ha":1086,"x_min":67,"x_max":1019,"o":"m 543 -14 q 353 24 440 -14 q 202 128 267 61 q 102 287 138 196 q 67 486 67 378 q 102 685 67 594 q 202 844 138 776 q 353 949 267 911 q 543 986 440 986 q 733 949 646 986 q 884 843 819 911 q 984 684 949 775 q 1019 486 1019 593 q 984 288 1019 379 q 884 129 949 197 q 733 24 819 61 q 543 -14 646 -14 m 543 132 q 673 158 614 132 q 775 233 732 185 q 842 345 818 281 q 867 486 867 410 q 842 627 867 563 q 775 740 818 692 q 673 814 732 788 q 543 840 614 840 q 413 814 472 840 q 310 740 354 788 q 243 628 267 693 q 219 486 219 564 q 243 344 219 410 q 310 232 267 279 q 413 158 354 185 q 543 132 472 132 m 511 1053 q 496 1080 501 1067 q 490 1106 490 1093 q 498 1133 490 1118 q 528 1164 506 1149 q 560 1188 551 1179 q 569 1206 569 1196 q 558 1224 569 1218 q 528 1229 546 1229 q 479 1222 506 1229 q 429 1204 453 1215 l 407 1292 q 469 1317 436 1308 q 531 1325 503 1325 q 641 1294 604 1325 q 678 1218 678 1263 q 662 1163 678 1183 q 626 1133 646 1143 q 590 1112 601 1121 q 578 1089 578 1103 q 579 1079 578 1083 q 582 1071 581 1075 l 511 1053 z "},"Ơ":{"ha":1086,"x_min":67,"x_max":1019,"o":"m 543 -14 q 353 24 440 -14 q 202 128 267 61 q 102 287 138 196 q 67 486 67 378 q 102 685 67 594 q 202 844 138 776 q 353 949 267 911 q 543 986 440 986 q 605 983 578 986 q 654 974 632 979 q 688 967 672 969 q 721 965 704 965 q 790 984 763 965 q 831 1040 818 1003 q 844 1131 844 1076 l 972 1131 q 962 1034 972 1078 q 931 957 951 990 q 876 903 910 924 q 797 875 843 882 l 807 908 q 920 801 872 865 q 994 657 968 736 q 1019 486 1019 578 q 984 288 1019 379 q 884 129 949 197 q 733 24 819 61 q 543 -14 646 -14 m 543 132 q 673 158 614 132 q 775 233 732 185 q 842 345 818 281 q 867 486 867 410 q 842 627 867 563 q 775 740 818 692 q 673 814 732 788 q 543 840 614 840 q 413 814 472 840 q 310 740 354 788 q 243 628 267 693 q 219 486 219 564 q 243 344 219 410 q 310 232 267 279 q 413 158 354 185 q 543 132 472 132 z "},"Ớ":{"ha":1086,"x_min":67,"x_max":1019,"o":"m 543 -14 q 353 24 440 -14 q 202 128 267 61 q 102 287 138 196 q 67 486 67 378 q 102 685 67 594 q 202 844 138 776 q 353 949 267 911 q 543 986 440 986 q 605 983 578 986 q 654 974 632 979 q 688 967 672 969 q 721 965 704 965 q 790 984 763 965 q 831 1040 818 1003 q 844 1131 844 1076 l 972 1131 q 962 1034 972 1078 q 931 957 951 990 q 876 903 910 924 q 797 875 843 882 l 807 908 q 920 801 872 865 q 994 657 968 736 q 1019 486 1019 578 q 984 288 1019 379 q 884 129 949 197 q 733 24 819 61 q 543 -14 646 -14 m 543 132 q 673 158 614 132 q 775 233 732 185 q 842 345 818 281 q 867 486 867 410 q 842 627 867 563 q 775 740 818 692 q 673 814 732 788 q 543 840 614 840 q 413 814 472 840 q 310 740 354 788 q 243 628 267 693 q 219 486 219 564 q 243 344 219 410 q 310 232 267 279 q 413 158 354 185 q 543 132 472 132 m 449 1049 l 410 1121 l 664 1278 l 729 1153 l 449 1049 z "},"Ợ":{"ha":1086,"x_min":67,"x_max":1019,"o":"m 543 -14 q 353 24 440 -14 q 202 128 267 61 q 102 287 138 196 q 67 486 67 378 q 102 685 67 594 q 202 844 138 776 q 353 949 267 911 q 543 986 440 986 q 605 983 578 986 q 654 974 632 979 q 688 967 672 969 q 721 965 704 965 q 790 984 763 965 q 831 1040 818 1003 q 844 1131 844 1076 l 972 1131 q 962 1034 972 1078 q 931 957 951 990 q 876 903 910 924 q 797 875 843 882 l 807 908 q 920 801 872 865 q 994 657 968 736 q 1019 486 1019 578 q 984 288 1019 379 q 884 129 949 197 q 733 24 819 61 q 543 -14 646 -14 m 543 132 q 673 158 614 132 q 775 233 732 185 q 842 345 818 281 q 867 486 867 410 q 842 627 867 563 q 775 740 818 692 q 673 814 732 788 q 543 840 614 840 q 413 814 472 840 q 310 740 354 788 q 243 628 267 693 q 219 486 219 564 q 243 344 219 410 q 310 232 267 279 q 413 158 354 185 q 543 132 472 132 m 543 -286 q 472 -262 497 -286 q 447 -196 447 -239 q 473 -131 447 -156 q 543 -106 499 -106 q 614 -129 589 -106 q 639 -196 639 -153 q 613 -261 639 -236 q 543 -286 588 -286 z "},"Ờ":{"ha":1086,"x_min":67,"x_max":1019,"o":"m 543 -14 q 353 24 440 -14 q 202 128 267 61 q 102 287 138 196 q 67 486 67 378 q 102 685 67 594 q 202 844 138 776 q 353 949 267 911 q 543 986 440 986 q 605 983 578 986 q 654 974 632 979 q 688 967 672 969 q 721 965 704 965 q 790 984 763 965 q 831 1040 818 1003 q 844 1131 844 1076 l 972 1131 q 962 1034 972 1078 q 931 957 951 990 q 876 903 910 924 q 797 875 843 882 l 807 908 q 920 801 872 865 q 994 657 968 736 q 1019 486 1019 578 q 984 288 1019 379 q 884 129 949 197 q 733 24 819 61 q 543 -14 646 -14 m 543 132 q 673 158 614 132 q 775 233 732 185 q 842 345 818 281 q 867 486 867 410 q 842 627 867 563 q 775 740 818 692 q 673 814 732 788 q 543 840 614 840 q 413 814 472 840 q 310 740 354 788 q 243 628 267 693 q 219 486 219 564 q 243 344 219 410 q 310 232 267 279 q 413 158 354 185 q 543 132 472 132 m 649 1049 l 368 1153 l 436 1278 l 690 1121 l 649 1049 z "},"Ở":{"ha":1086,"x_min":67,"x_max":1019,"o":"m 543 -14 q 353 24 440 -14 q 202 128 267 61 q 102 287 138 196 q 67 486 67 378 q 102 685 67 594 q 202 844 138 776 q 353 949 267 911 q 543 986 440 986 q 605 983 578 986 q 654 974 632 979 q 688 967 672 969 q 721 965 704 965 q 790 984 763 965 q 831 1040 818 1003 q 844 1131 844 1076 l 972 1131 q 962 1034 972 1078 q 931 957 951 990 q 876 903 910 924 q 797 875 843 882 l 807 908 q 920 801 872 865 q 994 657 968 736 q 1019 486 1019 578 q 984 288 1019 379 q 884 129 949 197 q 733 24 819 61 q 543 -14 646 -14 m 543 132 q 673 158 614 132 q 775 233 732 185 q 842 345 818 281 q 867 486 867 410 q 842 627 867 563 q 775 740 818 692 q 673 814 732 788 q 543 840 614 840 q 413 814 472 840 q 310 740 354 788 q 243 628 267 693 q 219 486 219 564 q 243 344 219 410 q 310 232 267 279 q 413 158 354 185 q 543 132 472 132 m 511 1053 q 496 1080 501 1067 q 490 1106 490 1093 q 498 1133 490 1118 q 528 1164 506 1149 q 560 1188 551 1179 q 569 1206 569 1196 q 558 1224 569 1218 q 528 1229 546 1229 q 479 1222 506 1229 q 429 1204 453 1215 l 407 1292 q 469 1317 436 1308 q 531 1325 503 1325 q 641 1294 604 1325 q 678 1218 678 1263 q 662 1163 678 1183 q 626 1133 646 1143 q 590 1112 601 1121 q 578 1089 578 1103 q 579 1079 578 1083 q 582 1071 581 1075 l 511 1053 z "},"Ỡ":{"ha":1086,"x_min":67,"x_max":1019,"o":"m 543 -14 q 353 24 440 -14 q 202 128 267 61 q 102 287 138 196 q 67 486 67 378 q 102 685 67 594 q 202 844 138 776 q 353 949 267 911 q 543 986 440 986 q 605 983 578 986 q 654 974 632 979 q 688 967 672 969 q 721 965 704 965 q 790 984 763 965 q 831 1040 818 1003 q 844 1131 844 1076 l 972 1131 q 962 1034 972 1078 q 931 957 951 990 q 876 903 910 924 q 797 875 843 882 l 807 908 q 920 801 872 865 q 994 657 968 736 q 1019 486 1019 578 q 984 288 1019 379 q 884 129 949 197 q 733 24 819 61 q 543 -14 646 -14 m 543 132 q 673 158 614 132 q 775 233 732 185 q 842 345 818 281 q 867 486 867 410 q 842 627 867 563 q 775 740 818 692 q 673 814 732 788 q 543 840 614 840 q 413 814 472 840 q 310 740 354 788 q 243 628 267 693 q 219 486 219 564 q 243 344 219 410 q 310 232 267 279 q 413 158 354 185 q 543 132 472 132 m 646 1067 q 581 1077 614 1067 q 519 1099 549 1088 q 479 1114 496 1108 q 449 1119 463 1119 q 419 1106 431 1119 q 407 1067 407 1093 l 300 1067 q 349 1183 300 1142 q 458 1224 397 1224 q 515 1214 488 1224 q 569 1193 543 1204 q 608 1179 589 1185 q 639 1174 626 1174 q 669 1188 658 1174 q 679 1224 681 1201 l 785 1224 q 768 1147 785 1183 q 720 1089 751 1111 q 646 1067 689 1067 z "},"Ő":{"ha":1086,"x_min":67,"x_max":1019,"o":"m 543 -14 q 353 24 440 -14 q 202 128 267 61 q 102 287 138 196 q 67 486 67 378 q 102 685 67 594 q 202 844 138 776 q 353 949 267 911 q 543 986 440 986 q 733 949 646 986 q 884 843 819 911 q 984 684 949 775 q 1019 486 1019 593 q 984 288 1019 379 q 884 129 949 197 q 733 24 819 61 q 543 -14 646 -14 m 543 132 q 673 158 614 132 q 775 233 732 185 q 842 345 818 281 q 867 486 867 410 q 842 627 867 563 q 775 740 818 692 q 673 814 732 788 q 543 840 614 840 q 413 814 472 840 q 310 740 354 788 q 243 628 267 693 q 219 486 219 564 q 243 344 219 410 q 310 232 267 279 q 413 158 354 185 q 543 132 472 132 m 392 1042 l 339 1108 l 521 1299 l 621 1193 l 392 1042 m 668 1042 l 615 1108 l 797 1299 l 897 1193 l 668 1042 z "},"Ȏ":{"ha":1086,"x_min":67,"x_max":1019,"o":"m 543 -14 q 353 24 440 -14 q 202 128 267 61 q 102 287 138 196 q 67 486 67 378 q 102 685 67 594 q 202 844 138 776 q 353 949 267 911 q 543 986 440 986 q 733 949 646 986 q 884 843 819 911 q 984 684 949 775 q 1019 486 1019 593 q 984 288 1019 379 q 884 129 949 197 q 733 24 819 61 q 543 -14 646 -14 m 543 132 q 673 158 614 132 q 775 233 732 185 q 842 345 818 281 q 867 486 867 410 q 842 627 867 563 q 775 740 818 692 q 673 814 732 788 q 543 840 614 840 q 413 814 472 840 q 310 740 354 788 q 243 628 267 693 q 219 486 219 564 q 243 344 219 410 q 310 232 267 279 q 413 158 354 185 q 543 132 472 132 m 421 1043 l 318 1060 q 362 1152 331 1110 q 440 1220 393 1194 q 543 1246 486 1246 q 647 1220 601 1246 q 725 1152 693 1194 q 768 1060 757 1110 l 665 1043 q 618 1106 650 1078 q 543 1133 586 1133 q 468 1106 500 1133 q 421 1043 436 1078 z "},"Ō":{"ha":1086,"x_min":67,"x_max":1019,"o":"m 543 -14 q 353 24 440 -14 q 202 128 267 61 q 102 287 138 196 q 67 486 67 378 q 102 685 67 594 q 202 844 138 776 q 353 949 267 911 q 543 986 440 986 q 733 949 646 986 q 884 843 819 911 q 984 684 949 775 q 1019 486 1019 593 q 984 288 1019 379 q 884 129 949 197 q 733 24 819 61 q 543 -14 646 -14 m 543 132 q 673 158 614 132 q 775 233 732 185 q 842 345 818 281 q 867 486 867 410 q 842 627 867 563 q 775 740 818 692 q 673 814 732 788 q 543 840 614 840 q 413 814 472 840 q 310 740 354 788 q 243 628 267 693 q 219 486 219 564 q 243 344 219 410 q 310 232 267 279 q 413 158 354 185 q 543 132 472 132 m 313 1093 l 313 1197 l 772 1197 l 772 1093 l 313 1093 z "},"Ṓ":{"ha":1086,"x_min":67,"x_max":1019,"o":"m 543 -14 q 353 24 440 -14 q 202 128 267 61 q 102 287 138 196 q 67 486 67 378 q 102 685 67 594 q 202 844 138 776 q 353 949 267 911 q 543 986 440 986 q 733 949 646 986 q 884 843 819 911 q 984 684 949 775 q 1019 486 1019 593 q 984 288 1019 379 q 884 129 949 197 q 733 24 819 61 q 543 -14 646 -14 m 543 132 q 673 158 614 132 q 775 233 732 185 q 842 345 818 281 q 867 486 867 410 q 842 627 867 563 q 775 740 818 692 q 673 814 732 788 q 543 840 614 840 q 413 814 472 840 q 310 740 354 788 q 243 628 267 693 q 219 486 219 564 q 243 344 219 410 q 310 232 267 279 q 413 158 354 185 q 543 132 472 132 m 313 1093 l 313 1197 l 772 1197 l 772 1093 l 313 1093 m 449 1257 l 410 1329 l 664 1486 l 729 1361 l 449 1257 z "},"Ṑ":{"ha":1086,"x_min":67,"x_max":1019,"o":"m 543 -14 q 353 24 440 -14 q 202 128 267 61 q 102 287 138 196 q 67 486 67 378 q 102 685 67 594 q 202 844 138 776 q 353 949 267 911 q 543 986 440 986 q 733 949 646 986 q 884 843 819 911 q 984 684 949 775 q 1019 486 1019 593 q 984 288 1019 379 q 884 129 949 197 q 733 24 819 61 q 543 -14 646 -14 m 543 132 q 673 158 614 132 q 775 233 732 185 q 842 345 818 281 q 867 486 867 410 q 842 627 867 563 q 775 740 818 692 q 673 814 732 788 q 543 840 614 840 q 413 814 472 840 q 310 740 354 788 q 243 628 267 693 q 219 486 219 564 q 243 344 219 410 q 310 232 267 279 q 413 158 354 185 q 543 132 472 132 m 313 1093 l 313 1197 l 772 1197 l 772 1093 l 313 1093 m 649 1257 l 368 1361 l 436 1486 l 690 1329 l 649 1257 z "},"Ǫ":{"ha":1086,"x_min":67,"x_max":1019,"o":"m 656 -278 q 550 -241 596 -278 q 504 -135 504 -204 q 523 -57 504 -93 q 574 10 542 -21 q 649 67 607 40 q 739 118 692 93 l 792 56 q 722 11 751 33 q 672 -33 692 -11 q 641 -75 651 -54 q 631 -117 631 -96 q 643 -156 631 -142 q 678 -171 656 -171 q 706 -162 693 -171 q 729 -136 718 -153 l 807 -192 q 749 -252 793 -226 q 656 -278 706 -278 m 543 -14 q 353 24 440 -14 q 202 128 267 61 q 102 287 138 196 q 67 486 67 378 q 102 685 67 594 q 202 844 138 776 q 353 949 267 911 q 543 986 440 986 q 733 949 646 986 q 884 843 819 911 q 984 684 949 775 q 1019 486 1019 593 q 984 288 1019 379 q 884 129 949 197 q 733 24 819 61 q 543 -14 646 -14 m 543 132 q 673 158 614 132 q 775 233 732 185 q 842 345 818 281 q 867 486 867 410 q 842 627 867 563 q 775 740 818 692 q 673 814 732 788 q 543 840 614 840 q 413 814 472 840 q 310 740 354 788 q 243 628 267 693 q 219 486 219 564 q 243 344 219 410 q 310 232 267 279 q 413 158 354 185 q 543 132 472 132 z "},"Ø":{"ha":1069,"x_min":65,"x_max":1018,"o":"m 171 -46 l 83 28 l 901 1029 l 996 964 l 171 -46 m 542 -14 q 352 24 439 -14 q 201 128 265 61 q 101 287 136 196 q 65 486 65 378 q 101 685 65 594 q 201 844 136 776 q 352 949 265 911 q 542 986 439 986 q 731 949 644 986 q 883 843 818 911 q 983 684 947 775 q 1018 486 1018 593 q 983 288 1018 379 q 883 129 947 197 q 731 24 818 61 q 542 -14 644 -14 m 542 132 q 672 158 613 132 q 774 233 731 185 q 841 345 817 281 q 865 486 865 410 q 841 627 865 563 q 774 740 817 692 q 672 814 731 788 q 542 840 613 840 q 412 814 471 840 q 309 740 353 788 q 242 628 265 693 q 218 486 218 564 q 242 344 218 410 q 309 232 265 279 q 412 158 353 185 q 542 132 471 132 z "},"Ǿ":{"ha":1069,"x_min":65,"x_max":1018,"o":"m 171 -46 l 83 28 l 901 1029 l 996 964 l 171 -46 m 542 -14 q 352 24 439 -14 q 201 128 265 61 q 101 287 136 196 q 65 486 65 378 q 101 685 65 594 q 201 844 136 776 q 352 949 265 911 q 542 986 439 986 q 731 949 644 986 q 883 843 818 911 q 983 684 947 775 q 1018 486 1018 593 q 983 288 1018 379 q 883 129 947 197 q 731 24 818 61 q 542 -14 644 -14 m 542 132 q 672 158 613 132 q 774 233 731 185 q 841 345 817 281 q 865 486 865 410 q 841 627 865 563 q 774 740 817 692 q 672 814 731 788 q 542 840 613 840 q 412 814 471 840 q 309 740 353 788 q 242 628 265 693 q 218 486 218 564 q 242 344 218 410 q 309 232 265 279 q 412 158 353 185 q 542 132 471 132 m 440 1049 l 401 1121 l 656 1278 l 721 1153 l 440 1049 z "},"Õ":{"ha":1086,"x_min":67,"x_max":1019,"o":"m 543 -14 q 353 24 440 -14 q 202 128 267 61 q 102 287 138 196 q 67 486 67 378 q 102 685 67 594 q 202 844 138 776 q 353 949 267 911 q 543 986 440 986 q 733 949 646 986 q 884 843 819 911 q 984 684 949 775 q 1019 486 1019 593 q 984 288 1019 379 q 884 129 949 197 q 733 24 819 61 q 543 -14 646 -14 m 543 132 q 673 158 614 132 q 775 233 732 185 q 842 345 818 281 q 867 486 867 410 q 842 627 867 563 q 775 740 818 692 q 673 814 732 788 q 543 840 614 840 q 413 814 472 840 q 310 740 354 788 q 243 628 267 693 q 219 486 219 564 q 243 344 219 410 q 310 232 267 279 q 413 158 354 185 q 543 132 472 132 m 646 1067 q 581 1077 614 1067 q 519 1099 549 1088 q 479 1114 496 1108 q 449 1119 463 1119 q 419 1106 431 1119 q 407 1067 407 1093 l 300 1067 q 349 1183 300 1142 q 458 1224 397 1224 q 515 1214 488 1224 q 569 1193 543 1204 q 608 1179 589 1185 q 639 1174 626 1174 q 669 1188 658 1174 q 679 1224 681 1201 l 785 1224 q 768 1147 785 1183 q 720 1089 751 1111 q 646 1067 689 1067 z "},"Ṍ":{"ha":1086,"x_min":67,"x_max":1019,"o":"m 543 -14 q 353 24 440 -14 q 202 128 267 61 q 102 287 138 196 q 67 486 67 378 q 102 685 67 594 q 202 844 138 776 q 353 949 267 911 q 543 986 440 986 q 733 949 646 986 q 884 843 819 911 q 984 684 949 775 q 1019 486 1019 593 q 984 288 1019 379 q 884 129 949 197 q 733 24 819 61 q 543 -14 646 -14 m 543 132 q 673 158 614 132 q 775 233 732 185 q 842 345 818 281 q 867 486 867 410 q 842 627 867 563 q 775 740 818 692 q 673 814 732 788 q 543 840 614 840 q 413 814 472 840 q 310 740 354 788 q 243 628 267 693 q 219 486 219 564 q 243 344 219 410 q 310 232 267 279 q 413 158 354 185 q 543 132 472 132 m 646 1067 q 581 1077 614 1067 q 519 1099 549 1088 q 479 1114 496 1108 q 449 1119 463 1119 q 419 1106 431 1119 q 407 1067 407 1093 l 300 1067 q 349 1183 300 1142 q 458 1224 397 1224 q 515 1214 488 1224 q 569 1193 543 1204 q 608 1179 589 1185 q 639 1174 626 1174 q 669 1188 658 1174 q 679 1224 681 1201 l 785 1224 q 768 1147 785 1183 q 720 1089 751 1111 q 646 1067 689 1067 m 449 1257 l 410 1329 l 664 1486 l 729 1361 l 449 1257 z "},"Ṏ":{"ha":1086,"x_min":67,"x_max":1019,"o":"m 543 -14 q 353 24 440 -14 q 202 128 267 61 q 102 287 138 196 q 67 486 67 378 q 102 685 67 594 q 202 844 138 776 q 353 949 267 911 q 543 986 440 986 q 733 949 646 986 q 884 843 819 911 q 984 684 949 775 q 1019 486 1019 593 q 984 288 1019 379 q 884 129 949 197 q 733 24 819 61 q 543 -14 646 -14 m 543 132 q 673 158 614 132 q 775 233 732 185 q 842 345 818 281 q 867 486 867 410 q 842 627 867 563 q 775 740 818 692 q 673 814 732 788 q 543 840 614 840 q 413 814 472 840 q 310 740 354 788 q 243 628 267 693 q 219 486 219 564 q 243 344 219 410 q 310 232 267 279 q 413 158 354 185 q 543 132 472 132 m 646 1067 q 581 1077 614 1067 q 519 1099 549 1088 q 479 1114 496 1108 q 449 1119 463 1119 q 419 1106 431 1119 q 407 1067 407 1093 l 300 1067 q 349 1183 300 1142 q 458 1224 397 1224 q 515 1214 488 1224 q 569 1193 543 1204 q 608 1179 589 1185 q 639 1174 626 1174 q 669 1188 658 1174 q 679 1224 681 1201 l 785 1224 q 768 1147 785 1183 q 720 1089 751 1111 q 646 1067 689 1067 m 686 1263 q 614 1288 638 1263 q 590 1353 590 1313 q 614 1415 590 1388 q 686 1443 638 1443 q 758 1418 735 1443 q 782 1353 782 1393 q 758 1290 782 1318 q 686 1263 735 1263 m 400 1263 q 328 1288 351 1263 q 304 1353 304 1313 q 328 1415 304 1388 q 400 1443 351 1443 q 472 1418 449 1443 q 496 1353 496 1393 q 472 1290 496 1318 q 400 1263 449 1263 z "},"Ȭ":{"ha":1086,"x_min":67,"x_max":1019,"o":"m 543 -14 q 353 24 440 -14 q 202 128 267 61 q 102 287 138 196 q 67 486 67 378 q 102 685 67 594 q 202 844 138 776 q 353 949 267 911 q 543 986 440 986 q 733 949 646 986 q 884 843 819 911 q 984 684 949 775 q 1019 486 1019 593 q 984 288 1019 379 q 884 129 949 197 q 733 24 819 61 q 543 -14 646 -14 m 543 132 q 673 158 614 132 q 775 233 732 185 q 842 345 818 281 q 867 486 867 410 q 842 627 867 563 q 775 740 818 692 q 673 814 732 788 q 543 840 614 840 q 413 814 472 840 q 310 740 354 788 q 243 628 267 693 q 219 486 219 564 q 243 344 219 410 q 310 232 267 279 q 413 158 354 185 q 543 132 472 132 m 646 1067 q 581 1077 614 1067 q 519 1099 549 1088 q 479 1114 496 1108 q 449 1119 463 1119 q 419 1106 431 1119 q 407 1067 407 1093 l 300 1067 q 349 1183 300 1142 q 458 1224 397 1224 q 515 1214 488 1224 q 569 1193 543 1204 q 608 1179 589 1185 q 639 1174 626 1174 q 669 1188 658 1174 q 679 1224 681 1201 l 785 1224 q 768 1147 785 1183 q 720 1089 751 1111 q 646 1067 689 1067 m 313 1301 l 313 1406 l 772 1406 l 772 1301 l 313 1301 z "},"Œ":{"ha":1426,"x_min":67,"x_max":1322,"o":"m 521 0 q 333 35 417 0 q 190 134 249 69 q 99 288 131 199 q 67 486 67 378 q 101 683 67 594 q 198 838 135 772 q 350 938 261 903 q 549 972 439 972 l 1322 972 l 1322 828 l 860 828 l 860 571 l 1246 571 l 1246 426 l 860 426 l 860 144 l 1322 144 l 1322 0 l 521 0 m 219 486 q 240 343 219 407 q 299 235 260 279 q 396 168 339 192 q 525 144 453 144 l 710 144 l 710 828 l 553 828 q 412 804 474 828 q 307 736 350 781 q 242 628 264 692 q 219 486 219 565 z "},"P":{"ha":881,"x_min":136,"x_max":818,"o":"m 136 0 l 136 972 l 532 972 q 676 933 611 972 q 779 825 740 893 q 818 674 818 757 q 779 522 818 590 q 676 413 740 454 q 532 372 611 372 l 286 372 l 286 0 l 136 0 m 286 517 l 529 517 q 597 538 567 517 q 647 595 628 560 q 665 674 665 631 q 647 751 665 717 q 597 807 628 786 q 529 828 567 828 l 286 828 l 286 517 z "},"Þ":{"ha":881,"x_min":136,"x_max":818,"o":"m 136 0 l 136 972 l 286 972 l 286 796 l 532 796 q 676 756 611 796 q 779 649 740 717 q 818 497 818 581 q 779 345 818 414 q 676 236 740 276 q 532 196 611 196 l 286 196 l 286 0 l 136 0 m 286 340 l 529 340 q 597 362 567 340 q 647 419 628 383 q 665 497 665 454 q 647 575 665 540 q 597 631 628 610 q 529 651 567 651 l 286 651 l 286 340 z "},"Q":{"ha":1086,"x_min":67,"x_max":1019,"o":"m 851 -153 l 483 329 l 607 411 l 971 -67 l 851 -153 m 543 -14 q 353 24 440 -14 q 202 128 267 61 q 102 287 138 196 q 67 486 67 378 q 102 685 67 594 q 202 844 138 776 q 353 949 267 911 q 543 986 440 986 q 733 949 646 986 q 884 843 819 911 q 984 684 949 775 q 1019 486 1019 593 q 984 288 1019 379 q 884 129 949 197 q 733 24 819 61 q 543 -14 646 -14 m 543 132 q 673 158 614 132 q 775 233 732 185 q 842 345 818 281 q 867 486 867 410 q 842 627 867 563 q 775 740 818 692 q 673 814 732 788 q 543 840 614 840 q 413 814 472 840 q 310 740 354 788 q 243 628 267 693 q 219 486 219 564 q 243 344 219 410 q 310 232 267 279 q 413 158 354 185 q 543 132 472 132 z "},"R":{"ha":965,"x_min":136,"x_max":896,"o":"m 136 0 l 136 972 l 550 972 q 703 931 633 972 q 815 820 774 890 q 857 663 857 750 q 815 515 857 583 q 704 406 774 447 q 550 365 635 365 l 286 365 l 286 0 l 136 0 m 714 0 l 467 439 l 621 474 l 896 -1 l 714 0 m 286 510 l 564 510 q 636 530 604 510 q 686 585 668 550 q 704 664 704 621 q 681 749 704 713 q 617 807 658 786 q 525 828 576 828 l 286 828 l 286 510 z "},"Ŕ":{"ha":965,"x_min":136,"x_max":896,"o":"m 136 0 l 136 972 l 550 972 q 703 931 633 972 q 815 820 774 890 q 857 663 857 750 q 815 515 857 583 q 704 406 774 447 q 550 365 635 365 l 286 365 l 286 0 l 136 0 m 714 0 l 467 439 l 621 474 l 896 -1 l 714 0 m 286 510 l 564 510 q 636 530 604 510 q 686 585 668 550 q 704 664 704 621 q 681 749 704 713 q 617 807 658 786 q 525 828 576 828 l 286 828 l 286 510 m 347 1049 l 308 1121 l 563 1278 l 628 1153 l 347 1049 z "},"Ř":{"ha":965,"x_min":136,"x_max":896,"o":"m 136 0 l 136 972 l 550 972 q 703 931 633 972 q 815 820 774 890 q 857 663 857 750 q 815 515 857 583 q 704 406 774 447 q 550 365 635 365 l 286 365 l 286 0 l 136 0 m 714 0 l 467 439 l 621 474 l 896 -1 l 714 0 m 286 510 l 564 510 q 636 530 604 510 q 686 585 668 550 q 704 664 704 621 q 681 749 704 713 q 617 807 658 786 q 525 828 576 828 l 286 828 l 286 510 m 382 1051 l 215 1194 l 268 1240 l 463 1153 l 421 1153 l 615 1240 l 668 1194 l 501 1051 l 382 1051 z "},"Ŗ":{"ha":965,"x_min":136,"x_max":896,"o":"m 136 0 l 136 972 l 550 972 q 703 931 633 972 q 815 820 774 890 q 857 663 857 750 q 815 515 857 583 q 704 406 774 447 q 550 365 635 365 l 286 365 l 286 0 l 136 0 m 714 0 l 467 439 l 621 474 l 896 -1 l 714 0 m 286 510 l 564 510 q 636 530 604 510 q 686 585 668 550 q 704 664 704 621 q 681 749 704 713 q 617 807 658 786 q 525 828 576 828 l 286 828 l 286 510 m 414 -337 l 381 -279 q 417 -262 400 -274 q 445 -235 435 -250 q 456 -207 456 -221 q 451 -193 456 -199 q 429 -183 446 -187 q 396 -164 404 -176 q 388 -131 388 -151 q 413 -81 388 -100 q 478 -62 438 -62 q 555 -92 524 -62 q 586 -169 586 -121 q 574 -221 586 -196 q 539 -267 561 -246 q 485 -307 517 -289 q 414 -337 453 -325 z "},"Ȑ":{"ha":965,"x_min":90,"x_max":896,"o":"m 136 0 l 136 972 l 550 972 q 703 931 633 972 q 815 820 774 890 q 857 663 857 750 q 815 515 857 583 q 704 406 774 447 q 550 365 635 365 l 286 365 l 286 0 l 136 0 m 714 0 l 467 439 l 621 474 l 896 -1 l 714 0 m 286 510 l 564 510 q 636 530 604 510 q 686 585 668 550 q 704 664 704 621 q 681 749 704 713 q 617 807 658 786 q 525 828 576 828 l 286 828 l 286 510 m 596 1042 l 367 1193 l 467 1299 l 649 1108 l 596 1042 m 319 1042 l 90 1193 l 190 1299 l 372 1108 l 319 1042 z "},"Ṛ":{"ha":965,"x_min":136,"x_max":896,"o":"m 136 0 l 136 972 l 550 972 q 703 931 633 972 q 815 820 774 890 q 857 663 857 750 q 815 515 857 583 q 704 406 774 447 q 550 365 635 365 l 286 365 l 286 0 l 136 0 m 714 0 l 467 439 l 621 474 l 896 -1 l 714 0 m 286 510 l 564 510 q 636 530 604 510 q 686 585 668 550 q 704 664 704 621 q 681 749 704 713 q 617 807 658 786 q 525 828 576 828 l 286 828 l 286 510 m 483 -286 q 413 -262 438 -286 q 388 -196 388 -239 q 413 -131 388 -156 q 483 -106 439 -106 q 554 -129 529 -106 q 579 -196 579 -153 q 553 -261 579 -236 q 483 -286 528 -286 z "},"Ȓ":{"ha":965,"x_min":136,"x_max":896,"o":"m 136 0 l 136 972 l 550 972 q 703 931 633 972 q 815 820 774 890 q 857 663 857 750 q 815 515 857 583 q 704 406 774 447 q 550 365 635 365 l 286 365 l 286 0 l 136 0 m 714 0 l 467 439 l 621 474 l 896 -1 l 714 0 m 286 510 l 564 510 q 636 530 604 510 q 686 585 668 550 q 704 664 704 621 q 681 749 704 713 q 617 807 658 786 q 525 828 576 828 l 286 828 l 286 510 m 319 1043 l 217 1060 q 260 1152 229 1110 q 338 1220 292 1194 q 442 1246 385 1246 q 546 1220 500 1246 q 624 1152 592 1194 q 667 1060 656 1110 l 564 1043 q 517 1106 549 1078 q 442 1133 485 1133 q 367 1106 399 1133 q 319 1043 335 1078 z "},"Ṟ":{"ha":965,"x_min":136,"x_max":896,"o":"m 136 0 l 136 972 l 550 972 q 703 931 633 972 q 815 820 774 890 q 857 663 857 750 q 815 515 857 583 q 704 406 774 447 q 550 365 635 365 l 286 365 l 286 0 l 136 0 m 714 0 l 467 439 l 621 474 l 896 -1 l 714 0 m 286 510 l 564 510 q 636 530 604 510 q 686 585 668 550 q 704 664 704 621 q 681 749 704 713 q 617 807 658 786 q 525 828 576 828 l 286 828 l 286 510 m 288 -247 l 288 -144 l 678 -144 l 678 -247 l 288 -247 z "},"S":{"ha":867,"x_min":69,"x_max":790,"o":"m 436 -14 q 290 7 357 -14 q 167 70 222 28 q 69 175 113 113 l 172 293 q 303 158 240 196 q 451 121 365 121 q 547 138 504 121 q 615 183 590 154 q 640 250 640 213 q 632 297 640 275 q 606 338 624 319 q 562 371 589 356 q 499 398 535 386 q 415 418 463 410 q 285 458 340 433 q 192 521 229 483 q 136 606 154 558 q 118 714 118 654 q 144 822 118 772 q 215 909 169 872 q 321 966 260 946 q 453 986 382 986 q 590 967 528 986 q 701 909 653 947 q 782 815 750 871 l 676 711 q 614 788 649 757 q 538 835 579 819 q 449 851 496 851 q 354 835 394 851 q 291 788 314 818 q 268 718 268 758 q 279 665 268 689 q 313 622 290 640 q 375 588 336 603 q 468 563 414 574 q 604 520 544 546 q 706 460 664 494 q 769 382 747 425 q 790 289 790 339 q 747 128 790 196 q 625 23 704 60 q 436 -14 546 -14 z "},"Ś":{"ha":867,"x_min":69,"x_max":790,"o":"m 436 -14 q 290 7 357 -14 q 167 70 222 28 q 69 175 113 113 l 172 293 q 303 158 240 196 q 451 121 365 121 q 547 138 504 121 q 615 183 590 154 q 640 250 640 213 q 632 297 640 275 q 606 338 624 319 q 562 371 589 356 q 499 398 535 386 q 415 418 463 410 q 285 458 340 433 q 192 521 229 483 q 136 606 154 558 q 118 714 118 654 q 144 822 118 772 q 215 909 169 872 q 321 966 260 946 q 453 986 382 986 q 590 967 528 986 q 701 909 653 947 q 782 815 750 871 l 676 711 q 614 788 649 757 q 538 835 579 819 q 449 851 496 851 q 354 835 394 851 q 291 788 314 818 q 268 718 268 758 q 279 665 268 689 q 313 622 290 640 q 375 588 336 603 q 468 563 414 574 q 604 520 544 546 q 706 460 664 494 q 769 382 747 425 q 790 289 790 339 q 747 128 790 196 q 625 23 704 60 q 436 -14 546 -14 m 367 1049 l 328 1121 l 582 1278 l 647 1153 l 367 1049 z "},"Ṥ":{"ha":867,"x_min":69,"x_max":790,"o":"m 436 -14 q 290 7 357 -14 q 167 70 222 28 q 69 175 113 113 l 172 293 q 303 158 240 196 q 451 121 365 121 q 547 138 504 121 q 615 183 590 154 q 640 250 640 213 q 632 297 640 275 q 606 338 624 319 q 562 371 589 356 q 499 398 535 386 q 415 418 463 410 q 285 458 340 433 q 192 521 229 483 q 136 606 154 558 q 118 714 118 654 q 144 822 118 772 q 215 909 169 872 q 321 966 260 946 q 453 986 382 986 q 590 967 528 986 q 701 909 653 947 q 782 815 750 871 l 676 711 q 614 788 649 757 q 538 835 579 819 q 449 851 496 851 q 354 835 394 851 q 291 788 314 818 q 268 718 268 758 q 279 665 268 689 q 313 622 290 640 q 375 588 336 603 q 468 563 414 574 q 604 520 544 546 q 706 460 664 494 q 769 382 747 425 q 790 289 790 339 q 747 128 790 196 q 625 23 704 60 q 436 -14 546 -14 m 557 1043 l 485 1093 l 613 1289 l 719 1210 l 557 1043 m 343 1054 q 272 1078 297 1054 q 247 1144 247 1101 q 273 1210 247 1185 q 343 1235 299 1235 q 414 1211 389 1235 q 439 1144 439 1188 q 413 1079 439 1104 q 343 1054 388 1054 z "},"Š":{"ha":867,"x_min":69,"x_max":790,"o":"m 436 -14 q 290 7 357 -14 q 167 70 222 28 q 69 175 113 113 l 172 293 q 303 158 240 196 q 451 121 365 121 q 547 138 504 121 q 615 183 590 154 q 640 250 640 213 q 632 297 640 275 q 606 338 624 319 q 562 371 589 356 q 499 398 535 386 q 415 418 463 410 q 285 458 340 433 q 192 521 229 483 q 136 606 154 558 q 118 714 118 654 q 144 822 118 772 q 215 909 169 872 q 321 966 260 946 q 453 986 382 986 q 590 967 528 986 q 701 909 653 947 q 782 815 750 871 l 676 711 q 614 788 649 757 q 538 835 579 819 q 449 851 496 851 q 354 835 394 851 q 291 788 314 818 q 268 718 268 758 q 279 665 268 689 q 313 622 290 640 q 375 588 336 603 q 468 563 414 574 q 604 520 544 546 q 706 460 664 494 q 769 382 747 425 q 790 289 790 339 q 747 128 790 196 q 625 23 704 60 q 436 -14 546 -14 m 401 1051 l 235 1194 l 288 1240 l 482 1153 l 440 1153 l 635 1240 l 688 1194 l 521 1051 l 401 1051 z "},"Ṧ":{"ha":867,"x_min":69,"x_max":790,"o":"m 436 -14 q 290 7 357 -14 q 167 70 222 28 q 69 175 113 113 l 172 293 q 303 158 240 196 q 451 121 365 121 q 547 138 504 121 q 615 183 590 154 q 640 250 640 213 q 632 297 640 275 q 606 338 624 319 q 562 371 589 356 q 499 398 535 386 q 415 418 463 410 q 285 458 340 433 q 192 521 229 483 q 136 606 154 558 q 118 714 118 654 q 144 822 118 772 q 215 909 169 872 q 321 966 260 946 q 453 986 382 986 q 590 967 528 986 q 701 909 653 947 q 782 815 750 871 l 676 711 q 614 788 649 757 q 538 835 579 819 q 449 851 496 851 q 354 835 394 851 q 291 788 314 818 q 268 718 268 758 q 279 665 268 689 q 313 622 290 640 q 375 588 336 603 q 468 563 414 574 q 604 520 544 546 q 706 460 664 494 q 769 382 747 425 q 790 289 790 339 q 747 128 790 196 q 625 23 704 60 q 436 -14 546 -14 m 401 1051 l 235 1194 l 288 1240 l 482 1153 l 440 1153 l 635 1240 l 688 1194 l 521 1051 l 401 1051 m 461 1263 q 389 1288 413 1263 q 365 1353 365 1313 q 389 1415 365 1388 q 461 1443 413 1443 q 533 1418 510 1443 q 557 1353 557 1393 q 533 1290 557 1318 q 461 1263 510 1263 z "},"Ş":{"ha":867,"x_min":69,"x_max":790,"o":"m 436 -14 q 290 7 357 -14 q 167 70 222 28 q 69 175 113 113 l 172 293 q 303 158 240 196 q 451 121 365 121 q 547 138 504 121 q 615 183 590 154 q 640 250 640 213 q 632 297 640 275 q 606 338 624 319 q 562 371 589 356 q 499 398 535 386 q 415 418 463 410 q 285 458 340 433 q 192 521 229 483 q 136 606 154 558 q 118 714 118 654 q 144 822 118 772 q 215 909 169 872 q 321 966 260 946 q 453 986 382 986 q 590 967 528 986 q 701 909 653 947 q 782 815 750 871 l 676 711 q 614 788 649 757 q 538 835 579 819 q 449 851 496 851 q 354 835 394 851 q 291 788 314 818 q 268 718 268 758 q 279 665 268 689 q 313 622 290 640 q 375 588 336 603 q 468 563 414 574 q 604 520 544 546 q 706 460 664 494 q 769 382 747 425 q 790 289 790 339 q 747 128 790 196 q 625 23 704 60 q 436 -14 546 -14 m 333 -339 l 324 -265 q 393 -254 357 -265 q 454 -226 429 -243 q 479 -192 479 -208 q 456 -161 479 -172 q 403 -144 432 -150 q 354 -139 374 -139 l 336 -125 l 436 33 l 518 33 l 460 -64 q 563 -111 528 -78 q 597 -193 597 -144 q 574 -257 597 -229 q 511 -303 550 -285 q 426 -331 472 -322 q 333 -339 379 -340 z "},"Ŝ":{"ha":867,"x_min":69,"x_max":790,"o":"m 436 -14 q 290 7 357 -14 q 167 70 222 28 q 69 175 113 113 l 172 293 q 303 158 240 196 q 451 121 365 121 q 547 138 504 121 q 615 183 590 154 q 640 250 640 213 q 632 297 640 275 q 606 338 624 319 q 562 371 589 356 q 499 398 535 386 q 415 418 463 410 q 285 458 340 433 q 192 521 229 483 q 136 606 154 558 q 118 714 118 654 q 144 822 118 772 q 215 909 169 872 q 321 966 260 946 q 453 986 382 986 q 590 967 528 986 q 701 909 653 947 q 782 815 750 871 l 676 711 q 614 788 649 757 q 538 835 579 819 q 449 851 496 851 q 354 835 394 851 q 291 788 314 818 q 268 718 268 758 q 279 665 268 689 q 313 622 290 640 q 375 588 336 603 q 468 563 414 574 q 604 520 544 546 q 706 460 664 494 q 769 382 747 425 q 790 289 790 339 q 747 128 790 196 q 625 23 704 60 q 436 -14 546 -14 m 289 1049 l 238 1097 l 410 1238 l 511 1238 l 683 1097 l 632 1049 l 440 1139 l 481 1139 l 289 1049 z "},"Ș":{"ha":867,"x_min":69,"x_max":790,"o":"m 436 -14 q 290 7 357 -14 q 167 70 222 28 q 69 175 113 113 l 172 293 q 303 158 240 196 q 451 121 365 121 q 547 138 504 121 q 615 183 590 154 q 640 250 640 213 q 632 297 640 275 q 606 338 624 319 q 562 371 589 356 q 499 398 535 386 q 415 418 463 410 q 285 458 340 433 q 192 521 229 483 q 136 606 154 558 q 118 714 118 654 q 144 822 118 772 q 215 909 169 872 q 321 966 260 946 q 453 986 382 986 q 590 967 528 986 q 701 909 653 947 q 782 815 750 871 l 676 711 q 614 788 649 757 q 538 835 579 819 q 449 851 496 851 q 354 835 394 851 q 291 788 314 818 q 268 718 268 758 q 279 665 268 689 q 313 622 290 640 q 375 588 336 603 q 468 563 414 574 q 604 520 544 546 q 706 460 664 494 q 769 382 747 425 q 790 289 790 339 q 747 128 790 196 q 625 23 704 60 q 436 -14 546 -14 m 392 -337 l 358 -279 q 395 -262 378 -274 q 423 -235 413 -250 q 433 -207 433 -221 q 428 -193 433 -199 q 407 -183 424 -187 q 374 -164 382 -176 q 365 -131 365 -151 q 390 -81 365 -100 q 456 -62 415 -62 q 533 -92 501 -62 q 564 -169 564 -121 q 551 -221 564 -196 q 517 -267 539 -246 q 463 -307 494 -289 q 392 -337 431 -325 z "},"Ṡ":{"ha":867,"x_min":69,"x_max":790,"o":"m 436 -14 q 290 7 357 -14 q 167 70 222 28 q 69 175 113 113 l 172 293 q 303 158 240 196 q 451 121 365 121 q 547 138 504 121 q 615 183 590 154 q 640 250 640 213 q 632 297 640 275 q 606 338 624 319 q 562 371 589 356 q 499 398 535 386 q 415 418 463 410 q 285 458 340 433 q 192 521 229 483 q 136 606 154 558 q 118 714 118 654 q 144 822 118 772 q 215 909 169 872 q 321 966 260 946 q 453 986 382 986 q 590 967 528 986 q 701 909 653 947 q 782 815 750 871 l 676 711 q 614 788 649 757 q 538 835 579 819 q 449 851 496 851 q 354 835 394 851 q 291 788 314 818 q 268 718 268 758 q 279 665 268 689 q 313 622 290 640 q 375 588 336 603 q 468 563 414 574 q 604 520 544 546 q 706 460 664 494 q 769 382 747 425 q 790 289 790 339 q 747 128 790 196 q 625 23 704 60 q 436 -14 546 -14 m 461 1054 q 389 1079 413 1054 q 365 1144 365 1104 q 389 1207 365 1179 q 461 1235 413 1235 q 533 1210 510 1235 q 557 1144 557 1185 q 533 1082 557 1110 q 461 1054 510 1054 z "},"Ṣ":{"ha":867,"x_min":69,"x_max":790,"o":"m 436 -14 q 290 7 357 -14 q 167 70 222 28 q 69 175 113 113 l 172 293 q 303 158 240 196 q 451 121 365 121 q 547 138 504 121 q 615 183 590 154 q 640 250 640 213 q 632 297 640 275 q 606 338 624 319 q 562 371 589 356 q 499 398 535 386 q 415 418 463 410 q 285 458 340 433 q 192 521 229 483 q 136 606 154 558 q 118 714 118 654 q 144 822 118 772 q 215 909 169 872 q 321 966 260 946 q 453 986 382 986 q 590 967 528 986 q 701 909 653 947 q 782 815 750 871 l 676 711 q 614 788 649 757 q 538 835 579 819 q 449 851 496 851 q 354 835 394 851 q 291 788 314 818 q 268 718 268 758 q 279 665 268 689 q 313 622 290 640 q 375 588 336 603 q 468 563 414 574 q 604 520 544 546 q 706 460 664 494 q 769 382 747 425 q 790 289 790 339 q 747 128 790 196 q 625 23 704 60 q 436 -14 546 -14 m 461 -286 q 390 -262 415 -286 q 365 -196 365 -239 q 391 -131 365 -156 q 461 -106 417 -106 q 532 -129 507 -106 q 557 -196 557 -153 q 531 -261 557 -236 q 461 -286 506 -286 z "},"Ṩ":{"ha":867,"x_min":69,"x_max":790,"o":"m 436 -14 q 290 7 357 -14 q 167 70 222 28 q 69 175 113 113 l 172 293 q 303 158 240 196 q 451 121 365 121 q 547 138 504 121 q 615 183 590 154 q 640 250 640 213 q 632 297 640 275 q 606 338 624 319 q 562 371 589 356 q 499 398 535 386 q 415 418 463 410 q 285 458 340 433 q 192 521 229 483 q 136 606 154 558 q 118 714 118 654 q 144 822 118 772 q 215 909 169 872 q 321 966 260 946 q 453 986 382 986 q 590 967 528 986 q 701 909 653 947 q 782 815 750 871 l 676 711 q 614 788 649 757 q 538 835 579 819 q 449 851 496 851 q 354 835 394 851 q 291 788 314 818 q 268 718 268 758 q 279 665 268 689 q 313 622 290 640 q 375 588 336 603 q 468 563 414 574 q 604 520 544 546 q 706 460 664 494 q 769 382 747 425 q 790 289 790 339 q 747 128 790 196 q 625 23 704 60 q 436 -14 546 -14 m 461 -286 q 390 -262 415 -286 q 365 -196 365 -239 q 391 -131 365 -156 q 461 -106 417 -106 q 532 -129 507 -106 q 557 -196 557 -153 q 531 -261 557 -236 q 461 -286 506 -286 m 461 1054 q 389 1079 413 1054 q 365 1144 365 1104 q 389 1207 365 1179 q 461 1235 413 1235 q 533 1210 510 1235 q 557 1144 557 1185 q 533 1082 557 1110 q 461 1054 510 1054 z "},"ẞ":{"ha":1058,"x_min":136,"x_max":982,"o":"m 681 -14 q 575 1 626 -14 q 481 42 524 15 q 410 104 438 68 l 503 215 q 586 147 538 174 q 679 121 635 121 q 794 152 751 121 q 836 238 836 183 q 819 294 836 271 q 761 342 801 317 q 651 404 721 367 q 545 474 585 440 q 488 548 506 508 q 469 639 469 588 q 490 738 469 693 q 547 815 510 782 q 637 867 585 847 q 751 893 689 888 l 821 840 q 708 867 776 857 q 579 878 639 878 q 460 852 513 879 q 369 772 407 825 q 310 645 331 719 q 289 476 289 571 l 286 1 l 136 1 l 138 486 q 192 760 139 643 q 340 943 244 878 q 565 1008 436 1008 q 732 993 651 1008 q 883 947 813 978 l 890 846 q 742 807 803 832 q 650 749 682 782 q 618 675 618 715 q 633 623 618 647 q 679 577 649 599 q 757 533 710 556 q 881 466 831 500 q 956 383 931 432 q 982 256 982 335 q 940 121 982 182 q 831 23 899 60 q 681 -14 763 -14 z "},"Ə":{"ha":1083,"x_min":67,"x_max":1017,"o":"m 542 -14 q 363 19 447 -14 q 215 114 279 53 q 110 257 150 175 q 67 435 71 339 l 67 546 l 953 546 l 965 411 l 211 411 q 252 296 222 349 q 326 203 282 243 q 426 142 371 164 q 542 121 482 121 q 674 147 614 121 q 780 222 735 174 q 849 338 825 271 q 874 488 874 406 q 849 638 874 571 q 781 753 825 706 q 674 826 736 801 q 538 851 613 851 q 430 840 479 851 q 338 804 381 828 q 256 744 294 781 l 161 842 q 269 924 213 892 q 391 971 325 956 q 538 986 457 986 q 723 947 636 986 q 876 840 810 908 q 979 681 942 771 q 1017 486 1017 590 q 980 292 1017 382 q 877 133 943 201 q 726 25 811 64 q 542 -14 640 -14 z "},"T":{"ha":800,"x_min":49,"x_max":751,"o":"m 321 0 l 321 828 l 49 828 l 49 972 l 751 972 l 751 828 l 471 828 l 471 0 l 321 0 z "},"Ŧ":{"ha":800,"x_min":49,"x_max":751,"o":"m 214 426 l 214 551 l 586 551 l 586 426 l 214 426 m 321 0 l 321 828 l 49 828 l 49 972 l 751 972 l 751 828 l 471 828 l 471 0 l 321 0 z "},"Ť":{"ha":800,"x_min":49,"x_max":751,"o":"m 321 0 l 321 828 l 49 828 l 49 972 l 751 972 l 751 828 l 471 828 l 471 0 l 321 0 m 340 1051 l 174 1194 l 226 1240 l 421 1153 l 379 1153 l 574 1240 l 626 1194 l 460 1051 l 340 1051 z "},"Ţ":{"ha":800,"x_min":49,"x_max":751,"o":"m 321 0 l 321 828 l 49 828 l 49 972 l 751 972 l 751 828 l 471 828 l 471 0 l 321 0 m 272 -339 l 263 -265 q 332 -254 296 -265 q 393 -226 368 -243 q 418 -192 418 -208 q 394 -161 418 -172 q 342 -144 371 -150 q 293 -139 313 -139 l 275 -125 l 375 33 l 457 33 l 399 -64 q 501 -111 467 -78 q 536 -193 536 -144 q 513 -257 536 -229 q 450 -303 489 -285 q 365 -331 411 -322 q 272 -339 318 -340 z "},"Ț":{"ha":800,"x_min":49,"x_max":751,"o":"m 321 0 l 321 828 l 49 828 l 49 972 l 751 972 l 751 828 l 471 828 l 471 0 l 321 0 m 331 -337 l 297 -279 q 334 -262 317 -274 q 362 -235 351 -250 q 372 -207 372 -221 q 367 -193 372 -199 q 346 -183 363 -187 q 313 -164 321 -176 q 304 -131 304 -151 q 329 -81 304 -100 q 394 -62 354 -62 q 472 -92 440 -62 q 503 -169 503 -121 q 490 -221 503 -196 q 456 -267 478 -246 q 401 -307 433 -289 q 331 -337 369 -325 z "},"Ṭ":{"ha":800,"x_min":49,"x_max":751,"o":"m 321 0 l 321 828 l 49 828 l 49 972 l 751 972 l 751 828 l 471 828 l 471 0 l 321 0 m 400 -286 q 329 -262 354 -286 q 304 -196 304 -239 q 330 -131 304 -156 q 400 -106 356 -106 q 471 -129 446 -106 q 496 -196 496 -153 q 470 -261 496 -236 q 400 -286 444 -286 z "},"Ṯ":{"ha":800,"x_min":49,"x_max":751,"o":"m 321 0 l 321 828 l 49 828 l 49 972 l 751 972 l 751 828 l 471 828 l 471 0 l 321 0 m 204 -247 l 204 -144 l 594 -144 l 594 -247 l 204 -247 z "},"U":{"ha":1028,"x_min":122,"x_max":906,"o":"m 514 -8 q 313 41 401 -8 q 173 177 224 90 q 122 374 122 264 l 122 974 l 272 974 l 272 386 q 306 259 272 315 q 394 169 339 203 q 514 136 449 136 q 640 169 583 136 q 729 259 696 203 q 763 386 763 315 l 763 974 l 906 974 l 906 374 q 855 177 906 264 q 715 41 804 90 q 514 -8 626 -8 z "},"Ú":{"ha":1028,"x_min":122,"x_max":906,"o":"m 514 -8 q 313 41 401 -8 q 173 177 224 90 q 122 374 122 264 l 122 974 l 272 974 l 272 386 q 306 259 272 315 q 394 169 339 203 q 514 136 449 136 q 640 169 583 136 q 729 259 696 203 q 763 386 763 315 l 763 974 l 906 974 l 906 374 q 855 177 906 264 q 715 41 804 90 q 514 -8 626 -8 m 419 1049 l 381 1121 l 635 1278 l 700 1153 l 419 1049 z "},"Ŭ":{"ha":1028,"x_min":122,"x_max":906,"o":"m 514 -8 q 313 41 401 -8 q 173 177 224 90 q 122 374 122 264 l 122 974 l 272 974 l 272 386 q 306 259 272 315 q 394 169 339 203 q 514 136 449 136 q 640 169 583 136 q 729 259 696 203 q 763 386 763 315 l 763 974 l 906 974 l 906 374 q 855 177 906 264 q 715 41 804 90 q 514 -8 626 -8 m 514 1043 q 410 1069 457 1043 q 333 1137 364 1094 q 289 1229 301 1179 l 392 1246 q 439 1183 407 1211 q 514 1156 471 1156 q 589 1183 557 1156 q 636 1246 621 1211 l 739 1229 q 696 1137 728 1179 q 618 1069 664 1094 q 514 1043 572 1043 z "},"Ǔ":{"ha":1028,"x_min":122,"x_max":906,"o":"m 514 -8 q 313 41 401 -8 q 173 177 224 90 q 122 374 122 264 l 122 974 l 272 974 l 272 386 q 306 259 272 315 q 394 169 339 203 q 514 136 449 136 q 640 169 583 136 q 729 259 696 203 q 763 386 763 315 l 763 974 l 906 974 l 906 374 q 855 177 906 264 q 715 41 804 90 q 514 -8 626 -8 m 454 1051 l 288 1194 l 340 1240 l 535 1153 l 493 1153 l 688 1240 l 740 1194 l 574 1051 l 454 1051 z "},"Û":{"ha":1028,"x_min":122,"x_max":906,"o":"m 514 -8 q 313 41 401 -8 q 173 177 224 90 q 122 374 122 264 l 122 974 l 272 974 l 272 386 q 306 259 272 315 q 394 169 339 203 q 514 136 449 136 q 640 169 583 136 q 729 259 696 203 q 763 386 763 315 l 763 974 l 906 974 l 906 374 q 855 177 906 264 q 715 41 804 90 q 514 -8 626 -8 m 342 1049 l 290 1097 l 463 1238 l 564 1238 l 736 1097 l 685 1049 l 493 1139 l 533 1139 l 342 1049 z "},"Ȕ":{"ha":1028,"x_min":122,"x_max":906,"o":"m 514 -8 q 313 41 401 -8 q 173 177 224 90 q 122 374 122 264 l 122 974 l 272 974 l 272 386 q 306 259 272 315 q 394 169 339 203 q 514 136 449 136 q 640 169 583 136 q 729 259 696 203 q 763 386 763 315 l 763 974 l 906 974 l 906 374 q 855 177 906 264 q 715 41 804 90 q 514 -8 626 -8 m 668 1042 l 439 1193 l 539 1299 l 721 1108 l 668 1042 m 392 1042 l 163 1193 l 263 1299 l 444 1108 l 392 1042 z "},"Ü":{"ha":1028,"x_min":122,"x_max":906,"o":"m 514 -8 q 313 41 401 -8 q 173 177 224 90 q 122 374 122 264 l 122 974 l 272 974 l 272 386 q 306 259 272 315 q 394 169 339 203 q 514 136 449 136 q 640 169 583 136 q 729 259 696 203 q 763 386 763 315 l 763 974 l 906 974 l 906 374 q 855 177 906 264 q 715 41 804 90 q 514 -8 626 -8 m 657 1054 q 585 1079 608 1054 q 561 1144 561 1104 q 585 1207 561 1179 q 657 1235 608 1235 q 729 1210 706 1235 q 753 1144 753 1185 q 729 1082 753 1110 q 657 1054 706 1054 m 371 1054 q 299 1079 322 1054 q 275 1144 275 1104 q 299 1207 275 1179 q 371 1235 322 1235 q 443 1210 419 1235 q 467 1144 467 1185 q 443 1082 467 1110 q 371 1054 419 1054 z "},"Ụ":{"ha":1028,"x_min":122,"x_max":906,"o":"m 514 -8 q 313 41 401 -8 q 173 177 224 90 q 122 374 122 264 l 122 974 l 272 974 l 272 386 q 306 259 272 315 q 394 169 339 203 q 514 136 449 136 q 640 169 583 136 q 729 259 696 203 q 763 386 763 315 l 763 974 l 906 974 l 906 374 q 855 177 906 264 q 715 41 804 90 q 514 -8 626 -8 m 514 -286 q 443 -262 468 -286 q 418 -196 418 -239 q 444 -131 418 -156 q 514 -106 469 -106 q 585 -129 560 -106 q 610 -196 610 -153 q 584 -261 610 -236 q 514 -286 558 -286 z "},"Ù":{"ha":1028,"x_min":122,"x_max":906,"o":"m 514 -8 q 313 41 401 -8 q 173 177 224 90 q 122 374 122 264 l 122 974 l 272 974 l 272 386 q 306 259 272 315 q 394 169 339 203 q 514 136 449 136 q 640 169 583 136 q 729 259 696 203 q 763 386 763 315 l 763 974 l 906 974 l 906 374 q 855 177 906 264 q 715 41 804 90 q 514 -8 626 -8 m 619 1049 l 339 1153 l 407 1278 l 661 1121 l 619 1049 z "},"Ủ":{"ha":1028,"x_min":122,"x_max":906,"o":"m 514 -8 q 313 41 401 -8 q 173 177 224 90 q 122 374 122 264 l 122 974 l 272 974 l 272 386 q 306 259 272 315 q 394 169 339 203 q 514 136 449 136 q 640 169 583 136 q 729 259 696 203 q 763 386 763 315 l 763 974 l 906 974 l 906 374 q 855 177 906 264 q 715 41 804 90 q 514 -8 626 -8 m 482 1053 q 467 1080 472 1067 q 461 1106 461 1093 q 469 1133 461 1118 q 499 1164 476 1149 q 531 1188 522 1179 q 540 1206 540 1196 q 528 1224 540 1218 q 499 1229 517 1229 q 450 1222 476 1229 q 400 1204 424 1215 l 378 1292 q 440 1317 407 1308 q 501 1325 474 1325 q 612 1294 575 1325 q 649 1218 649 1263 q 633 1163 649 1183 q 597 1133 617 1143 q 560 1112 572 1121 q 549 1089 549 1103 q 550 1079 549 1083 q 553 1071 551 1075 l 482 1053 z "},"Ư":{"ha":1028,"x_min":122,"x_max":1063,"o":"m 514 -8 q 313 41 401 -8 q 173 177 224 90 q 122 374 122 264 l 122 974 l 272 974 l 272 386 q 306 259 272 315 q 394 169 339 203 q 514 136 449 136 q 640 169 583 136 q 729 259 696 203 q 763 386 763 315 l 763 974 l 815 974 q 908 1016 881 974 q 935 1131 935 1058 l 1063 1131 q 1040 1000 1063 1057 q 972 908 1017 943 q 864 863 928 874 l 906 935 l 906 374 q 855 177 906 264 q 715 41 804 90 q 514 -8 626 -8 z "},"Ứ":{"ha":1028,"x_min":122,"x_max":1063,"o":"m 514 -8 q 313 41 401 -8 q 173 177 224 90 q 122 374 122 264 l 122 974 l 272 974 l 272 386 q 306 259 272 315 q 394 169 339 203 q 514 136 449 136 q 640 169 583 136 q 729 259 696 203 q 763 386 763 315 l 763 974 l 815 974 q 908 1016 881 974 q 935 1131 935 1058 l 1063 1131 q 1040 1000 1063 1057 q 972 908 1017 943 q 864 863 928 874 l 906 935 l 906 374 q 855 177 906 264 q 715 41 804 90 q 514 -8 626 -8 m 419 1049 l 381 1121 l 635 1278 l 700 1153 l 419 1049 z "},"Ự":{"ha":1028,"x_min":122,"x_max":1063,"o":"m 514 -8 q 313 41 401 -8 q 173 177 224 90 q 122 374 122 264 l 122 974 l 272 974 l 272 386 q 306 259 272 315 q 394 169 339 203 q 514 136 449 136 q 640 169 583 136 q 729 259 696 203 q 763 386 763 315 l 763 974 l 815 974 q 908 1016 881 974 q 935 1131 935 1058 l 1063 1131 q 1040 1000 1063 1057 q 972 908 1017 943 q 864 863 928 874 l 906 935 l 906 374 q 855 177 906 264 q 715 41 804 90 q 514 -8 626 -8 m 514 -286 q 443 -262 468 -286 q 418 -196 418 -239 q 444 -131 418 -156 q 514 -106 469 -106 q 585 -129 560 -106 q 610 -196 610 -153 q 584 -261 610 -236 q 514 -286 558 -286 z "},"Ừ":{"ha":1028,"x_min":122,"x_max":1063,"o":"m 514 -8 q 313 41 401 -8 q 173 177 224 90 q 122 374 122 264 l 122 974 l 272 974 l 272 386 q 306 259 272 315 q 394 169 339 203 q 514 136 449 136 q 640 169 583 136 q 729 259 696 203 q 763 386 763 315 l 763 974 l 815 974 q 908 1016 881 974 q 935 1131 935 1058 l 1063 1131 q 1040 1000 1063 1057 q 972 908 1017 943 q 864 863 928 874 l 906 935 l 906 374 q 855 177 906 264 q 715 41 804 90 q 514 -8 626 -8 m 619 1049 l 339 1153 l 407 1278 l 661 1121 l 619 1049 z "},"Ử":{"ha":1028,"x_min":122,"x_max":1063,"o":"m 514 -8 q 313 41 401 -8 q 173 177 224 90 q 122 374 122 264 l 122 974 l 272 974 l 272 386 q 306 259 272 315 q 394 169 339 203 q 514 136 449 136 q 640 169 583 136 q 729 259 696 203 q 763 386 763 315 l 763 974 l 815 974 q 908 1016 881 974 q 935 1131 935 1058 l 1063 1131 q 1040 1000 1063 1057 q 972 908 1017 943 q 864 863 928 874 l 906 935 l 906 374 q 855 177 906 264 q 715 41 804 90 q 514 -8 626 -8 m 482 1053 q 467 1080 472 1067 q 461 1106 461 1093 q 469 1133 461 1118 q 499 1164 476 1149 q 531 1188 522 1179 q 540 1206 540 1196 q 528 1224 540 1218 q 499 1229 517 1229 q 450 1222 476 1229 q 400 1204 424 1215 l 378 1292 q 440 1317 407 1308 q 501 1325 474 1325 q 612 1294 575 1325 q 649 1218 649 1263 q 633 1163 649 1183 q 597 1133 617 1143 q 560 1112 572 1121 q 549 1089 549 1103 q 550 1079 549 1083 q 553 1071 551 1075 l 482 1053 z "},"Ữ":{"ha":1028,"x_min":122,"x_max":1063,"o":"m 514 -8 q 313 41 401 -8 q 173 177 224 90 q 122 374 122 264 l 122 974 l 272 974 l 272 386 q 306 259 272 315 q 394 169 339 203 q 514 136 449 136 q 640 169 583 136 q 729 259 696 203 q 763 386 763 315 l 763 974 l 815 974 q 908 1016 881 974 q 935 1131 935 1058 l 1063 1131 q 1040 1000 1063 1057 q 972 908 1017 943 q 864 863 928 874 l 906 935 l 906 374 q 855 177 906 264 q 715 41 804 90 q 514 -8 626 -8 m 617 1067 q 552 1077 585 1067 q 490 1099 519 1088 q 450 1114 467 1108 q 419 1119 433 1119 q 390 1106 401 1119 q 378 1067 378 1093 l 271 1067 q 319 1183 271 1142 q 429 1224 368 1224 q 486 1214 458 1224 q 540 1193 514 1204 q 578 1179 560 1185 q 610 1174 597 1174 q 640 1188 629 1174 q 650 1224 651 1201 l 756 1224 q 739 1147 756 1183 q 691 1089 722 1111 q 617 1067 660 1067 z "},"Ű":{"ha":1028,"x_min":122,"x_max":906,"o":"m 514 -8 q 313 41 401 -8 q 173 177 224 90 q 122 374 122 264 l 122 974 l 272 974 l 272 386 q 306 259 272 315 q 394 169 339 203 q 514 136 449 136 q 640 169 583 136 q 729 259 696 203 q 763 386 763 315 l 763 974 l 906 974 l 906 374 q 855 177 906 264 q 715 41 804 90 q 514 -8 626 -8 m 363 1042 l 310 1108 l 492 1299 l 592 1193 l 363 1042 m 639 1042 l 586 1108 l 768 1299 l 868 1193 l 639 1042 z "},"Ȗ":{"ha":1028,"x_min":122,"x_max":906,"o":"m 514 -8 q 313 41 401 -8 q 173 177 224 90 q 122 374 122 264 l 122 974 l 272 974 l 272 386 q 306 259 272 315 q 394 169 339 203 q 514 136 449 136 q 640 169 583 136 q 729 259 696 203 q 763 386 763 315 l 763 974 l 906 974 l 906 374 q 855 177 906 264 q 715 41 804 90 q 514 -8 626 -8 m 392 1043 l 289 1060 q 333 1152 301 1110 q 410 1220 364 1194 q 514 1246 457 1246 q 618 1220 572 1246 q 696 1152 664 1194 q 739 1060 728 1110 l 636 1043 q 589 1106 621 1078 q 514 1133 557 1133 q 439 1106 471 1133 q 392 1043 407 1078 z "},"Ū":{"ha":1028,"x_min":122,"x_max":906,"o":"m 514 -8 q 313 41 401 -8 q 173 177 224 90 q 122 374 122 264 l 122 974 l 272 974 l 272 386 q 306 259 272 315 q 394 169 339 203 q 514 136 449 136 q 640 169 583 136 q 729 259 696 203 q 763 386 763 315 l 763 974 l 906 974 l 906 374 q 855 177 906 264 q 715 41 804 90 q 514 -8 626 -8 m 283 1093 l 283 1197 l 743 1197 l 743 1093 l 283 1093 z "},"Ṻ":{"ha":1028,"x_min":122,"x_max":906,"o":"m 514 -8 q 313 41 401 -8 q 173 177 224 90 q 122 374 122 264 l 122 974 l 272 974 l 272 386 q 306 259 272 315 q 394 169 339 203 q 514 136 449 136 q 640 169 583 136 q 729 259 696 203 q 763 386 763 315 l 763 974 l 906 974 l 906 374 q 855 177 906 264 q 715 41 804 90 q 514 -8 626 -8 m 283 1093 l 283 1197 l 743 1197 l 743 1093 l 283 1093 m 657 1263 q 585 1288 608 1263 q 561 1353 561 1313 q 585 1415 561 1388 q 657 1443 608 1443 q 729 1418 706 1443 q 753 1353 753 1393 q 729 1290 753 1318 q 657 1263 706 1263 m 371 1263 q 299 1288 322 1263 q 275 1353 275 1313 q 299 1415 275 1388 q 371 1443 322 1443 q 443 1418 419 1443 q 467 1353 467 1393 q 443 1290 467 1318 q 371 1263 419 1263 z "},"Ų":{"ha":1028,"x_min":122,"x_max":906,"o":"m 603 -278 q 497 -241 543 -278 q 451 -135 451 -204 q 470 -57 451 -93 q 522 10 489 -21 q 597 67 554 40 q 686 118 639 93 l 739 56 q 669 11 699 33 q 619 -33 639 -11 q 588 -75 599 -54 q 578 -117 578 -96 q 590 -156 578 -142 q 625 -171 603 -171 q 653 -162 640 -171 q 676 -136 665 -153 l 754 -192 q 697 -252 740 -226 q 603 -278 653 -278 m 514 -8 q 313 41 401 -8 q 173 177 224 90 q 122 374 122 264 l 122 974 l 272 974 l 272 386 q 306 259 272 315 q 394 169 339 203 q 514 136 449 136 q 640 169 583 136 q 729 259 696 203 q 763 386 763 315 l 763 974 l 906 974 l 906 374 q 855 177 906 264 q 715 41 804 90 q 514 -8 626 -8 z "},"Ů":{"ha":1028,"x_min":122,"x_max":906,"o":"m 514 -8 q 313 41 401 -8 q 173 177 224 90 q 122 374 122 264 l 122 974 l 272 974 l 272 386 q 306 259 272 315 q 394 169 339 203 q 514 136 449 136 q 640 169 583 136 q 729 259 696 203 q 763 386 763 315 l 763 974 l 906 974 l 906 374 q 855 177 906 264 q 715 41 804 90 q 514 -8 626 -8 m 513 943 q 439 963 474 943 q 383 1017 404 983 q 361 1089 361 1050 q 383 1164 361 1131 q 439 1217 404 1197 q 513 1236 474 1236 q 588 1217 553 1236 q 644 1164 622 1197 q 665 1089 665 1131 q 644 1017 665 1050 q 588 963 622 983 q 513 943 553 943 m 513 1025 q 562 1044 542 1025 q 582 1089 582 1063 q 561 1138 582 1121 q 513 1154 540 1154 q 465 1136 485 1154 q 444 1089 444 1118 q 465 1044 444 1063 q 513 1025 485 1025 z "},"Ũ":{"ha":1028,"x_min":122,"x_max":906,"o":"m 514 -8 q 313 41 401 -8 q 173 177 224 90 q 122 374 122 264 l 122 974 l 272 974 l 272 386 q 306 259 272 315 q 394 169 339 203 q 514 136 449 136 q 640 169 583 136 q 729 259 696 203 q 763 386 763 315 l 763 974 l 906 974 l 906 374 q 855 177 906 264 q 715 41 804 90 q 514 -8 626 -8 m 617 1067 q 552 1077 585 1067 q 490 1099 519 1088 q 450 1114 467 1108 q 419 1119 433 1119 q 390 1106 401 1119 q 378 1067 378 1093 l 271 1067 q 319 1183 271 1142 q 429 1224 368 1224 q 486 1214 458 1224 q 540 1193 514 1204 q 578 1179 560 1185 q 610 1174 597 1174 q 640 1188 629 1174 q 650 1224 651 1201 l 756 1224 q 739 1147 756 1183 q 691 1089 722 1111 q 617 1067 660 1067 z "},"Ṹ":{"ha":1028,"x_min":122,"x_max":906,"o":"m 514 -8 q 313 41 401 -8 q 173 177 224 90 q 122 374 122 264 l 122 974 l 272 974 l 272 386 q 306 259 272 315 q 394 169 339 203 q 514 136 449 136 q 640 169 583 136 q 729 259 696 203 q 763 386 763 315 l 763 974 l 906 974 l 906 374 q 855 177 906 264 q 715 41 804 90 q 514 -8 626 -8 m 617 1067 q 552 1077 585 1067 q 490 1099 519 1088 q 450 1114 467 1108 q 419 1119 433 1119 q 390 1106 401 1119 q 378 1067 378 1093 l 271 1067 q 319 1183 271 1142 q 429 1224 368 1224 q 486 1214 458 1224 q 540 1193 514 1204 q 578 1179 560 1185 q 610 1174 597 1174 q 640 1188 629 1174 q 650 1224 651 1201 l 756 1224 q 739 1147 756 1183 q 691 1089 722 1111 q 617 1067 660 1067 m 419 1257 l 381 1329 l 635 1486 l 700 1361 l 419 1257 z "},"V":{"ha":993,"x_min":33,"x_max":960,"o":"m 422 0 l 33 972 l 204 972 l 436 382 q 466 304 453 339 q 489 241 479 269 q 507 188 499 213 q 524 138 515 163 l 488 136 q 508 206 497 169 q 534 285 519 242 q 569 382 549 328 l 785 972 l 960 972 l 568 0 l 422 0 z "},"W":{"ha":1383,"x_min":33,"x_max":1350,"o":"m 343 0 l 33 972 l 193 972 l 381 364 q 396 312 389 342 q 408 251 403 282 q 419 194 414 221 q 428 151 424 168 l 388 153 q 420 267 408 226 q 439 328 432 307 q 451 365 446 350 l 626 804 l 761 804 l 931 365 q 955 299 944 332 q 974 234 965 267 q 992 165 982 201 l 956 156 q 966 215 963 193 q 972 250 969 236 q 978 277 975 264 q 987 311 981 290 q 1004 368 993 332 l 1189 972 l 1350 972 l 1040 0 l 936 0 l 679 608 l 692 603 l 444 0 l 343 0 z "},"Ẃ":{"ha":1383,"x_min":33,"x_max":1350,"o":"m 343 0 l 33 972 l 193 972 l 381 364 q 396 312 389 342 q 408 251 403 282 q 419 194 414 221 q 428 151 424 168 l 388 153 q 420 267 408 226 q 439 328 432 307 q 451 365 446 350 l 626 804 l 761 804 l 931 365 q 955 299 944 332 q 974 234 965 267 q 992 165 982 201 l 956 156 q 966 215 963 193 q 972 250 969 236 q 978 277 975 264 q 987 311 981 290 q 1004 368 993 332 l 1189 972 l 1350 972 l 1040 0 l 936 0 l 679 608 l 692 603 l 444 0 l 343 0 m 597 1049 l 558 1121 l 813 1278 l 878 1153 l 597 1049 z "},"Ŵ":{"ha":1383,"x_min":33,"x_max":1350,"o":"m 343 0 l 33 972 l 193 972 l 381 364 q 396 312 389 342 q 408 251 403 282 q 419 194 414 221 q 428 151 424 168 l 388 153 q 420 267 408 226 q 439 328 432 307 q 451 365 446 350 l 626 804 l 761 804 l 931 365 q 955 299 944 332 q 974 234 965 267 q 992 165 982 201 l 956 156 q 966 215 963 193 q 972 250 969 236 q 978 277 975 264 q 987 311 981 290 q 1004 368 993 332 l 1189 972 l 1350 972 l 1040 0 l 936 0 l 679 608 l 692 603 l 444 0 l 343 0 m 519 1049 l 468 1097 l 640 1238 l 742 1238 l 914 1097 l 863 1049 l 671 1139 l 711 1139 l 519 1049 z "},"Ẅ":{"ha":1383,"x_min":33,"x_max":1350,"o":"m 343 0 l 33 972 l 193 972 l 381 364 q 396 312 389 342 q 408 251 403 282 q 419 194 414 221 q 428 151 424 168 l 388 153 q 420 267 408 226 q 439 328 432 307 q 451 365 446 350 l 626 804 l 761 804 l 931 365 q 955 299 944 332 q 974 234 965 267 q 992 165 982 201 l 956 156 q 966 215 963 193 q 972 250 969 236 q 978 277 975 264 q 987 311 981 290 q 1004 368 993 332 l 1189 972 l 1350 972 l 1040 0 l 936 0 l 679 608 l 692 603 l 444 0 l 343 0 m 835 1054 q 763 1079 786 1054 q 739 1144 739 1104 q 763 1207 739 1179 q 835 1235 786 1235 q 907 1210 883 1235 q 931 1144 931 1185 q 907 1082 931 1110 q 835 1054 883 1054 m 549 1054 q 476 1079 500 1054 q 453 1144 453 1104 q 476 1207 453 1179 q 549 1235 500 1235 q 621 1210 597 1235 q 644 1144 644 1185 q 621 1082 644 1110 q 549 1054 597 1054 z "},"Ẁ":{"ha":1383,"x_min":33,"x_max":1350,"o":"m 343 0 l 33 972 l 193 972 l 381 364 q 396 312 389 342 q 408 251 403 282 q 419 194 414 221 q 428 151 424 168 l 388 153 q 420 267 408 226 q 439 328 432 307 q 451 365 446 350 l 626 804 l 761 804 l 931 365 q 955 299 944 332 q 974 234 965 267 q 992 165 982 201 l 956 156 q 966 215 963 193 q 972 250 969 236 q 978 277 975 264 q 987 311 981 290 q 1004 368 993 332 l 1189 972 l 1350 972 l 1040 0 l 936 0 l 679 608 l 692 603 l 444 0 l 343 0 m 797 1049 l 517 1153 l 585 1278 l 839 1121 l 797 1049 z "},"X":{"ha":951,"x_min":33,"x_max":918,"o":"m 728 0 l 426 436 l 40 972 l 231 972 l 525 542 l 918 0 l 728 0 m 33 0 l 404 529 l 497 419 l 210 0 l 33 0 m 547 451 l 456 557 l 728 972 l 904 972 l 547 451 z "},"Y":{"ha":917,"x_min":14,"x_max":903,"o":"m 397 0 l 397 485 l 407 417 l 14 972 l 194 972 l 494 542 l 460 546 l 731 972 l 903 972 l 526 401 l 547 496 l 547 0 l 397 0 z "},"Ý":{"ha":917,"x_min":14,"x_max":903,"o":"m 397 0 l 397 485 l 407 417 l 14 972 l 194 972 l 494 542 l 460 546 l 731 972 l 903 972 l 526 401 l 547 496 l 547 0 l 397 0 m 364 1049 l 325 1121 l 579 1278 l 644 1153 l 364 1049 z "},"Ŷ":{"ha":917,"x_min":14,"x_max":903,"o":"m 397 0 l 397 485 l 407 417 l 14 972 l 194 972 l 494 542 l 460 546 l 731 972 l 903 972 l 526 401 l 547 496 l 547 0 l 397 0 m 286 1049 l 235 1097 l 407 1238 l 508 1238 l 681 1097 l 629 1049 l 438 1139 l 478 1139 l 286 1049 z "},"Ÿ":{"ha":917,"x_min":14,"x_max":903,"o":"m 397 0 l 397 485 l 407 417 l 14 972 l 194 972 l 494 542 l 460 546 l 731 972 l 903 972 l 526 401 l 547 496 l 547 0 l 397 0 m 601 1054 q 529 1079 553 1054 q 506 1144 506 1104 q 529 1207 506 1179 q 601 1235 553 1235 q 674 1210 650 1235 q 697 1144 697 1185 q 674 1082 697 1110 q 601 1054 650 1054 m 315 1054 q 243 1079 267 1054 q 219 1144 219 1104 q 243 1207 219 1179 q 315 1235 267 1235 q 388 1210 364 1235 q 411 1144 411 1185 q 388 1082 411 1110 q 315 1054 364 1054 z "},"Ẏ":{"ha":917,"x_min":14,"x_max":903,"o":"m 397 0 l 397 485 l 407 417 l 14 972 l 194 972 l 494 542 l 460 546 l 731 972 l 903 972 l 526 401 l 547 496 l 547 0 l 397 0 m 458 1054 q 386 1079 410 1054 q 363 1144 363 1104 q 386 1207 363 1179 q 458 1235 410 1235 q 531 1210 507 1235 q 554 1144 554 1185 q 531 1082 554 1110 q 458 1054 507 1054 z "},"Ỵ":{"ha":917,"x_min":14,"x_max":903,"o":"m 397 0 l 397 485 l 407 417 l 14 972 l 194 972 l 494 542 l 460 546 l 731 972 l 903 972 l 526 401 l 547 496 l 547 0 l 397 0 m 458 -286 q 388 -262 413 -286 q 363 -196 363 -239 q 388 -131 363 -156 q 458 -106 414 -106 q 529 -129 504 -106 q 554 -196 554 -153 q 528 -261 554 -236 q 458 -286 503 -286 z "},"Ỳ":{"ha":917,"x_min":14,"x_max":903,"o":"m 397 0 l 397 485 l 407 417 l 14 972 l 194 972 l 494 542 l 460 546 l 731 972 l 903 972 l 526 401 l 547 496 l 547 0 l 397 0 m 564 1049 l 283 1153 l 351 1278 l 606 1121 l 564 1049 z "},"Ỷ":{"ha":917,"x_min":14,"x_max":903,"o":"m 397 0 l 397 485 l 407 417 l 14 972 l 194 972 l 494 542 l 460 546 l 731 972 l 903 972 l 526 401 l 547 496 l 547 0 l 397 0 m 426 1053 q 411 1080 417 1067 q 406 1106 406 1093 q 413 1133 406 1118 q 443 1164 421 1149 q 476 1188 467 1179 q 485 1206 485 1196 q 473 1224 485 1218 q 443 1229 461 1229 q 394 1222 421 1229 q 344 1204 368 1215 l 322 1292 q 385 1317 351 1308 q 446 1325 418 1325 q 556 1294 519 1325 q 593 1218 593 1263 q 577 1163 593 1183 q 542 1133 561 1143 q 505 1112 517 1121 q 493 1089 493 1103 q 494 1079 493 1083 q 497 1071 496 1075 l 426 1053 z "},"Ȳ":{"ha":917,"x_min":14,"x_max":903,"o":"m 397 0 l 397 485 l 407 417 l 14 972 l 194 972 l 494 542 l 460 546 l 731 972 l 903 972 l 526 401 l 547 496 l 547 0 l 397 0 m 228 1093 l 228 1197 l 688 1197 l 688 1093 l 228 1093 z "},"Ỹ":{"ha":917,"x_min":14,"x_max":903,"o":"m 397 0 l 397 485 l 407 417 l 14 972 l 194 972 l 494 542 l 460 546 l 731 972 l 903 972 l 526 401 l 547 496 l 547 0 l 397 0 m 561 1067 q 497 1077 529 1067 q 435 1099 464 1088 q 394 1114 411 1108 q 364 1119 378 1119 q 334 1106 346 1119 q 322 1067 322 1093 l 215 1067 q 264 1183 215 1142 q 374 1224 313 1224 q 431 1214 403 1224 q 485 1193 458 1204 q 523 1179 504 1185 q 554 1174 542 1174 q 585 1188 574 1174 q 594 1224 596 1201 l 700 1224 q 683 1147 700 1183 q 635 1089 667 1111 q 561 1067 604 1067 z "},"Z":{"ha":915,"x_min":83,"x_max":839,"o":"m 83 0 l 83 110 l 638 851 l 658 828 l 119 828 l 119 972 l 824 972 l 824 864 l 272 121 l 250 144 l 839 144 l 839 0 l 83 0 z "},"Ź":{"ha":915,"x_min":83,"x_max":839,"o":"m 83 0 l 83 110 l 638 851 l 658 828 l 119 828 l 119 972 l 824 972 l 824 864 l 272 121 l 250 144 l 839 144 l 839 0 l 83 0 m 364 1049 l 325 1121 l 579 1278 l 644 1153 l 364 1049 z "},"Ž":{"ha":915,"x_min":83,"x_max":839,"o":"m 83 0 l 83 110 l 638 851 l 658 828 l 119 828 l 119 972 l 824 972 l 824 864 l 272 121 l 250 144 l 839 144 l 839 0 l 83 0 m 399 1051 l 232 1194 l 285 1240 l 479 1153 l 438 1153 l 632 1240 l 685 1194 l 518 1051 l 399 1051 z "},"Ż":{"ha":915,"x_min":83,"x_max":839,"o":"m 83 0 l 83 110 l 638 851 l 658 828 l 119 828 l 119 972 l 824 972 l 824 864 l 272 121 l 250 144 l 839 144 l 839 0 l 83 0 m 458 1054 q 386 1079 410 1054 q 363 1144 363 1104 q 386 1207 363 1179 q 458 1235 410 1235 q 531 1210 507 1235 q 554 1144 554 1185 q 531 1082 554 1110 q 458 1054 507 1054 z "},"Ẓ":{"ha":915,"x_min":83,"x_max":839,"o":"m 83 0 l 83 110 l 638 851 l 658 828 l 119 828 l 119 972 l 824 972 l 824 864 l 272 121 l 250 144 l 839 144 l 839 0 l 83 0 m 458 -286 q 388 -262 413 -286 q 363 -196 363 -239 q 388 -131 363 -156 q 458 -106 414 -106 q 529 -129 504 -106 q 554 -196 554 -153 q 528 -261 554 -236 q 458 -286 503 -286 z "},"a":{"ha":879,"x_min":53,"x_max":779,"o":"m 381 -14 q 216 36 290 -14 q 97 172 142 86 q 53 367 53 258 q 98 562 53 476 q 220 696 143 647 q 393 744 297 744 q 497 728 450 744 q 580 681 544 711 q 638 613 615 651 q 667 529 661 574 l 635 540 l 635 729 l 779 729 l 779 0 l 635 0 l 635 174 l 668 183 q 634 110 660 146 q 569 47 608 75 q 481 3 529 19 q 381 -14 433 -14 m 418 118 q 533 150 483 118 q 612 238 583 182 q 640 367 640 294 q 612 493 640 438 q 533 581 583 549 q 418 613 483 613 q 305 581 354 613 q 227 493 256 549 q 199 367 199 438 q 227 238 199 294 q 305 150 256 182 q 418 118 354 118 z "},"á":{"ha":879,"x_min":53,"x_max":779,"o":"m 381 -14 q 216 36 290 -14 q 97 172 142 86 q 53 367 53 258 q 98 562 53 476 q 220 696 143 647 q 393 744 297 744 q 497 728 450 744 q 580 681 544 711 q 638 613 615 651 q 667 529 661 574 l 635 540 l 635 729 l 779 729 l 779 0 l 635 0 l 635 174 l 668 183 q 634 110 660 146 q 569 47 608 75 q 481 3 529 19 q 381 -14 433 -14 m 418 118 q 533 150 483 118 q 612 238 583 182 q 640 367 640 294 q 612 493 640 438 q 533 581 583 549 q 418 613 483 613 q 305 581 354 613 q 227 493 256 549 q 199 367 199 438 q 227 238 199 294 q 305 150 256 182 q 418 118 354 118 m 343 842 l 296 913 l 494 1086 l 585 972 l 343 842 z "},"ă":{"ha":879,"x_min":53,"x_max":779,"o":"m 381 -14 q 216 36 290 -14 q 97 172 142 86 q 53 367 53 258 q 98 562 53 476 q 220 696 143 647 q 393 744 297 744 q 497 728 450 744 q 580 681 544 711 q 638 613 615 651 q 667 529 661 574 l 635 540 l 635 729 l 779 729 l 779 0 l 635 0 l 635 174 l 668 183 q 634 110 660 146 q 569 47 608 75 q 481 3 529 19 q 381 -14 433 -14 m 418 118 q 533 150 483 118 q 612 238 583 182 q 640 367 640 294 q 612 493 640 438 q 533 581 583 549 q 418 613 483 613 q 305 581 354 613 q 227 493 256 549 q 199 367 199 438 q 227 238 199 294 q 305 150 256 182 q 418 118 354 118 m 440 818 q 293 876 351 818 q 215 1032 235 933 l 318 1049 q 367 963 336 994 q 440 931 399 931 q 513 963 482 931 q 563 1049 544 994 l 665 1032 q 588 876 646 933 q 440 818 529 818 z "},"ắ":{"ha":879,"x_min":53,"x_max":779,"o":"m 381 -14 q 216 36 290 -14 q 97 172 142 86 q 53 367 53 258 q 98 562 53 476 q 220 696 143 647 q 393 744 297 744 q 497 728 450 744 q 580 681 544 711 q 638 613 615 651 q 667 529 661 574 l 635 540 l 635 729 l 779 729 l 779 0 l 635 0 l 635 174 l 668 183 q 634 110 660 146 q 569 47 608 75 q 481 3 529 19 q 381 -14 433 -14 m 418 118 q 533 150 483 118 q 612 238 583 182 q 640 367 640 294 q 612 493 640 438 q 533 581 583 549 q 418 613 483 613 q 305 581 354 613 q 227 493 256 549 q 199 367 199 438 q 227 238 199 294 q 305 150 256 182 q 418 118 354 118 m 440 818 q 293 868 351 818 q 215 1004 235 918 l 318 1021 q 367 955 336 979 q 440 931 399 931 q 513 955 482 931 q 563 1021 544 979 l 665 1004 q 588 868 646 918 q 440 818 529 818 m 450 1049 l 378 1099 l 492 1301 l 613 1215 l 450 1049 z "},"ặ":{"ha":879,"x_min":53,"x_max":779,"o":"m 381 -14 q 216 36 290 -14 q 97 172 142 86 q 53 367 53 258 q 98 562 53 476 q 220 696 143 647 q 393 744 297 744 q 497 728 450 744 q 580 681 544 711 q 638 613 615 651 q 667 529 661 574 l 635 540 l 635 729 l 779 729 l 779 0 l 635 0 l 635 174 l 668 183 q 634 110 660 146 q 569 47 608 75 q 481 3 529 19 q 381 -14 433 -14 m 418 118 q 533 150 483 118 q 612 238 583 182 q 640 367 640 294 q 612 493 640 438 q 533 581 583 549 q 418 613 483 613 q 305 581 354 613 q 227 493 256 549 q 199 367 199 438 q 227 238 199 294 q 305 150 256 182 q 418 118 354 118 m 440 -286 q 369 -262 394 -286 q 344 -196 344 -239 q 370 -131 344 -156 q 440 -106 396 -106 q 511 -129 486 -106 q 536 -196 536 -153 q 510 -261 536 -236 q 440 -286 485 -286 m 440 818 q 293 876 351 818 q 215 1032 235 933 l 318 1049 q 367 963 336 994 q 440 931 399 931 q 513 963 482 931 q 563 1049 544 994 l 665 1032 q 588 876 646 933 q 440 818 529 818 z "},"ằ":{"ha":879,"x_min":53,"x_max":779,"o":"m 381 -14 q 216 36 290 -14 q 97 172 142 86 q 53 367 53 258 q 98 562 53 476 q 220 696 143 647 q 393 744 297 744 q 497 728 450 744 q 580 681 544 711 q 638 613 615 651 q 667 529 661 574 l 635 540 l 635 729 l 779 729 l 779 0 l 635 0 l 635 174 l 668 183 q 634 110 660 146 q 569 47 608 75 q 481 3 529 19 q 381 -14 433 -14 m 418 118 q 533 150 483 118 q 612 238 583 182 q 640 367 640 294 q 612 493 640 438 q 533 581 583 549 q 418 613 483 613 q 305 581 354 613 q 227 493 256 549 q 199 367 199 438 q 227 238 199 294 q 305 150 256 182 q 418 118 354 118 m 440 818 q 293 872 351 818 q 215 1018 235 925 l 318 1035 q 367 959 336 988 q 440 931 399 931 q 513 959 482 931 q 563 1035 544 988 l 665 1018 q 588 872 646 925 q 440 818 529 818 m 444 1046 l 276 1214 l 396 1301 l 511 1099 l 444 1046 z "},"ẳ":{"ha":879,"x_min":53,"x_max":779,"o":"m 381 -14 q 216 36 290 -14 q 97 172 142 86 q 53 367 53 258 q 98 562 53 476 q 220 696 143 647 q 393 744 297 744 q 497 728 450 744 q 580 681 544 711 q 638 613 615 651 q 667 529 661 574 l 635 540 l 635 729 l 779 729 l 779 0 l 635 0 l 635 174 l 668 183 q 634 110 660 146 q 569 47 608 75 q 481 3 529 19 q 381 -14 433 -14 m 418 118 q 533 150 483 118 q 612 238 583 182 q 640 367 640 294 q 612 493 640 438 q 533 581 583 549 q 418 613 483 613 q 305 581 354 613 q 227 493 256 549 q 199 367 199 438 q 227 238 199 294 q 305 150 256 182 q 418 118 354 118 m 440 818 q 293 872 351 818 q 215 1018 235 925 l 318 1035 q 367 959 336 988 q 440 931 399 931 q 513 959 482 931 q 563 1035 544 988 l 665 1018 q 588 872 646 925 q 440 818 529 818 m 408 1050 q 393 1077 399 1064 q 388 1103 388 1090 q 395 1131 388 1115 q 425 1161 403 1146 q 458 1185 449 1176 q 467 1203 467 1193 q 455 1221 467 1215 q 425 1226 443 1226 q 376 1219 403 1226 q 326 1201 350 1213 l 304 1289 q 366 1315 332 1307 q 428 1322 400 1322 q 538 1291 501 1322 q 575 1215 575 1260 q 559 1160 575 1181 q 524 1131 543 1140 q 487 1109 499 1118 q 475 1086 475 1100 q 476 1076 475 1081 q 479 1068 478 1072 l 408 1050 z "},"ẵ":{"ha":879,"x_min":53,"x_max":779,"o":"m 381 -14 q 216 36 290 -14 q 97 172 142 86 q 53 367 53 258 q 98 562 53 476 q 220 696 143 647 q 393 744 297 744 q 497 728 450 744 q 580 681 544 711 q 638 613 615 651 q 667 529 661 574 l 635 540 l 635 729 l 779 729 l 779 0 l 635 0 l 635 174 l 668 183 q 634 110 660 146 q 569 47 608 75 q 481 3 529 19 q 381 -14 433 -14 m 418 118 q 533 150 483 118 q 612 238 583 182 q 640 367 640 294 q 612 493 640 438 q 533 581 583 549 q 418 613 483 613 q 305 581 354 613 q 227 493 256 549 q 199 367 199 438 q 227 238 199 294 q 305 150 256 182 q 418 118 354 118 m 440 818 q 293 872 351 818 q 215 1018 235 925 l 318 1035 q 367 959 336 988 q 440 931 399 931 q 513 959 482 931 q 563 1035 544 988 l 665 1018 q 588 872 646 925 q 440 818 529 818 m 546 1135 q 479 1148 506 1135 q 428 1171 453 1161 q 396 1185 411 1178 q 363 1192 381 1192 q 331 1178 344 1192 q 311 1140 317 1164 l 217 1154 q 258 1256 219 1213 q 349 1300 297 1300 q 406 1287 381 1300 q 456 1263 431 1274 q 490 1248 474 1254 q 519 1242 506 1242 q 552 1255 539 1242 q 571 1294 565 1268 l 665 1281 q 649 1208 664 1242 q 609 1155 635 1175 q 546 1135 583 1135 z "},"ǎ":{"ha":879,"x_min":53,"x_max":779,"o":"m 381 -14 q 216 36 290 -14 q 97 172 142 86 q 53 367 53 258 q 98 562 53 476 q 220 696 143 647 q 393 744 297 744 q 497 728 450 744 q 580 681 544 711 q 638 613 615 651 q 667 529 661 574 l 635 540 l 635 729 l 779 729 l 779 0 l 635 0 l 635 174 l 668 183 q 634 110 660 146 q 569 47 608 75 q 481 3 529 19 q 381 -14 433 -14 m 418 118 q 533 150 483 118 q 612 238 583 182 q 640 367 640 294 q 612 493 640 438 q 533 581 583 549 q 418 613 483 613 q 305 581 354 613 q 227 493 256 549 q 199 367 199 438 q 227 238 199 294 q 305 150 256 182 q 418 118 354 118 m 381 843 l 235 1000 l 288 1046 l 461 944 l 419 944 l 593 1046 l 646 1000 l 500 843 l 381 843 z "},"â":{"ha":879,"x_min":53,"x_max":779,"o":"m 381 -14 q 216 36 290 -14 q 97 172 142 86 q 53 367 53 258 q 98 562 53 476 q 220 696 143 647 q 393 744 297 744 q 497 728 450 744 q 580 681 544 711 q 638 613 615 651 q 667 529 661 574 l 635 540 l 635 729 l 779 729 l 779 0 l 635 0 l 635 174 l 668 183 q 634 110 660 146 q 569 47 608 75 q 481 3 529 19 q 381 -14 433 -14 m 418 118 q 533 150 483 118 q 612 238 583 182 q 640 367 640 294 q 612 493 640 438 q 533 581 583 549 q 418 613 483 613 q 305 581 354 613 q 227 493 256 549 q 199 367 199 438 q 227 238 199 294 q 305 150 256 182 q 418 118 354 118 m 274 843 l 221 889 l 381 1046 l 500 1046 l 660 889 l 607 843 l 419 944 l 461 944 l 274 843 z "},"ấ":{"ha":879,"x_min":53,"x_max":835,"o":"m 381 -14 q 216 36 290 -14 q 97 172 142 86 q 53 367 53 258 q 98 562 53 476 q 220 696 143 647 q 393 744 297 744 q 497 728 450 744 q 580 681 544 711 q 638 613 615 651 q 667 529 661 574 l 635 540 l 635 729 l 779 729 l 779 0 l 635 0 l 635 174 l 668 183 q 634 110 660 146 q 569 47 608 75 q 481 3 529 19 q 381 -14 433 -14 m 418 118 q 533 150 483 118 q 612 238 583 182 q 640 367 640 294 q 612 493 640 438 q 533 581 583 549 q 418 613 483 613 q 305 581 354 613 q 227 493 256 549 q 199 367 199 438 q 227 238 199 294 q 305 150 256 182 q 418 118 354 118 m 274 843 l 221 889 l 381 1046 l 500 1046 l 660 889 l 607 843 l 419 944 l 461 944 l 274 843 m 672 1035 l 600 1085 l 714 1288 l 835 1201 l 672 1035 z "},"ậ":{"ha":879,"x_min":53,"x_max":779,"o":"m 381 -14 q 216 36 290 -14 q 97 172 142 86 q 53 367 53 258 q 98 562 53 476 q 220 696 143 647 q 393 744 297 744 q 497 728 450 744 q 580 681 544 711 q 638 613 615 651 q 667 529 661 574 l 635 540 l 635 729 l 779 729 l 779 0 l 635 0 l 635 174 l 668 183 q 634 110 660 146 q 569 47 608 75 q 481 3 529 19 q 381 -14 433 -14 m 418 118 q 533 150 483 118 q 612 238 583 182 q 640 367 640 294 q 612 493 640 438 q 533 581 583 549 q 418 613 483 613 q 305 581 354 613 q 227 493 256 549 q 199 367 199 438 q 227 238 199 294 q 305 150 256 182 q 418 118 354 118 m 440 -286 q 369 -262 394 -286 q 344 -196 344 -239 q 370 -131 344 -156 q 440 -106 396 -106 q 511 -129 486 -106 q 536 -196 536 -153 q 510 -261 536 -236 q 440 -286 485 -286 m 274 843 l 221 889 l 381 1046 l 500 1046 l 660 889 l 607 843 l 419 944 l 461 944 l 274 843 z "},"ầ":{"ha":879,"x_min":53,"x_max":779,"o":"m 381 -14 q 216 36 290 -14 q 97 172 142 86 q 53 367 53 258 q 98 562 53 476 q 220 696 143 647 q 393 744 297 744 q 497 728 450 744 q 580 681 544 711 q 638 613 615 651 q 667 529 661 574 l 635 540 l 635 729 l 779 729 l 779 0 l 635 0 l 635 174 l 668 183 q 634 110 660 146 q 569 47 608 75 q 481 3 529 19 q 381 -14 433 -14 m 418 118 q 533 150 483 118 q 612 238 583 182 q 640 367 640 294 q 612 493 640 438 q 533 581 583 549 q 418 613 483 613 q 305 581 354 613 q 227 493 256 549 q 199 367 199 438 q 227 238 199 294 q 305 150 256 182 q 418 118 354 118 m 274 843 l 221 889 l 381 1046 l 500 1046 l 660 889 l 607 843 l 419 944 l 461 944 l 274 843 m 653 1032 l 485 1200 l 604 1288 l 719 1085 l 653 1032 z "},"ẩ":{"ha":879,"x_min":53,"x_max":807,"o":"m 381 -14 q 216 36 290 -14 q 97 172 142 86 q 53 367 53 258 q 98 562 53 476 q 220 696 143 647 q 393 744 297 744 q 497 728 450 744 q 580 681 544 711 q 638 613 615 651 q 667 529 661 574 l 635 540 l 635 729 l 779 729 l 779 0 l 635 0 l 635 174 l 668 183 q 634 110 660 146 q 569 47 608 75 q 481 3 529 19 q 381 -14 433 -14 m 418 118 q 533 150 483 118 q 612 238 583 182 q 640 367 640 294 q 612 493 640 438 q 533 581 583 549 q 418 613 483 613 q 305 581 354 613 q 227 493 256 549 q 199 367 199 438 q 227 238 199 294 q 305 150 256 182 q 418 118 354 118 m 274 843 l 221 889 l 381 1046 l 500 1046 l 660 889 l 607 843 l 419 944 l 461 944 l 274 843 m 640 1017 q 625 1044 631 1031 q 619 1069 619 1057 q 627 1097 619 1082 q 657 1128 635 1113 q 690 1151 681 1143 q 699 1169 699 1160 q 687 1188 699 1182 q 657 1193 675 1193 q 608 1188 635 1193 q 558 1168 582 1183 l 536 1256 q 599 1281 565 1272 q 660 1289 632 1289 q 770 1258 733 1289 q 807 1182 807 1226 q 791 1127 807 1147 q 756 1097 775 1107 q 719 1076 731 1085 q 707 1053 707 1067 q 708 1043 707 1047 q 711 1035 710 1039 l 640 1017 z "},"ẫ":{"ha":879,"x_min":53,"x_max":779,"o":"m 381 -14 q 216 36 290 -14 q 97 172 142 86 q 53 367 53 258 q 98 562 53 476 q 220 696 143 647 q 393 744 297 744 q 497 728 450 744 q 580 681 544 711 q 638 613 615 651 q 667 529 661 574 l 635 540 l 635 729 l 779 729 l 779 0 l 635 0 l 635 174 l 668 183 q 634 110 660 146 q 569 47 608 75 q 481 3 529 19 q 381 -14 433 -14 m 418 118 q 533 150 483 118 q 612 238 583 182 q 640 367 640 294 q 612 493 640 438 q 533 581 583 549 q 418 613 483 613 q 305 581 354 613 q 227 493 256 549 q 199 367 199 438 q 227 238 199 294 q 305 150 256 182 q 418 118 354 118 m 272 843 l 219 889 l 379 1046 l 499 1046 l 658 889 l 606 843 l 418 944 l 460 944 l 272 843 m 544 1121 q 478 1134 504 1121 q 426 1157 451 1147 q 394 1171 410 1164 q 361 1178 379 1178 q 329 1164 343 1178 q 310 1126 315 1150 l 215 1140 q 257 1242 218 1199 q 347 1286 296 1286 q 404 1273 379 1286 q 454 1249 429 1260 q 488 1234 472 1240 q 518 1228 504 1228 q 551 1241 538 1228 q 569 1281 564 1254 l 664 1267 q 648 1194 663 1228 q 608 1141 633 1161 q 544 1121 582 1121 z "},"ȁ":{"ha":879,"x_min":53,"x_max":779,"o":"m 381 -14 q 216 36 290 -14 q 97 172 142 86 q 53 367 53 258 q 98 562 53 476 q 220 696 143 647 q 393 744 297 744 q 497 728 450 744 q 580 681 544 711 q 638 613 615 651 q 667 529 661 574 l 635 540 l 635 729 l 779 729 l 779 0 l 635 0 l 635 174 l 668 183 q 634 110 660 146 q 569 47 608 75 q 481 3 529 19 q 381 -14 433 -14 m 418 118 q 533 150 483 118 q 612 238 583 182 q 640 367 640 294 q 612 493 640 438 q 533 581 583 549 q 418 613 483 613 q 305 581 354 613 q 227 493 256 549 q 199 367 199 438 q 227 238 199 294 q 305 150 256 182 q 418 118 354 118 m 583 842 l 342 972 l 432 1086 l 631 913 l 583 842 m 307 842 l 65 972 l 156 1086 l 354 913 l 307 842 z "},"ä":{"ha":879,"x_min":53,"x_max":779,"o":"m 381 -14 q 216 36 290 -14 q 97 172 142 86 q 53 367 53 258 q 98 562 53 476 q 220 696 143 647 q 393 744 297 744 q 497 728 450 744 q 580 681 544 711 q 638 613 615 651 q 667 529 661 574 l 635 540 l 635 729 l 779 729 l 779 0 l 635 0 l 635 174 l 668 183 q 634 110 660 146 q 569 47 608 75 q 481 3 529 19 q 381 -14 433 -14 m 418 118 q 533 150 483 118 q 612 238 583 182 q 640 367 640 294 q 612 493 640 438 q 533 581 583 549 q 418 613 483 613 q 305 581 354 613 q 227 493 256 549 q 199 367 199 438 q 227 238 199 294 q 305 150 256 182 q 418 118 354 118 m 579 892 q 508 915 533 892 q 483 982 483 939 q 509 1047 483 1022 q 579 1072 535 1072 q 650 1049 625 1072 q 675 982 675 1025 q 649 917 675 942 q 579 892 624 892 m 301 892 q 231 915 256 892 q 206 982 206 939 q 231 1047 206 1022 q 301 1072 257 1072 q 372 1049 347 1072 q 397 982 397 1025 q 372 917 397 942 q 301 892 346 892 z "},"ạ":{"ha":879,"x_min":53,"x_max":779,"o":"m 381 -14 q 216 36 290 -14 q 97 172 142 86 q 53 367 53 258 q 98 562 53 476 q 220 696 143 647 q 393 744 297 744 q 497 728 450 744 q 580 681 544 711 q 638 613 615 651 q 667 529 661 574 l 635 540 l 635 729 l 779 729 l 779 0 l 635 0 l 635 174 l 668 183 q 634 110 660 146 q 569 47 608 75 q 481 3 529 19 q 381 -14 433 -14 m 418 118 q 533 150 483 118 q 612 238 583 182 q 640 367 640 294 q 612 493 640 438 q 533 581 583 549 q 418 613 483 613 q 305 581 354 613 q 227 493 256 549 q 199 367 199 438 q 227 238 199 294 q 305 150 256 182 q 418 118 354 118 m 440 -286 q 369 -262 394 -286 q 344 -196 344 -239 q 370 -131 344 -156 q 440 -106 396 -106 q 511 -129 486 -106 q 536 -196 536 -153 q 510 -261 536 -236 q 440 -286 485 -286 z "},"à":{"ha":879,"x_min":53,"x_max":779,"o":"m 381 -14 q 216 36 290 -14 q 97 172 142 86 q 53 367 53 258 q 98 562 53 476 q 220 696 143 647 q 393 744 297 744 q 497 728 450 744 q 580 681 544 711 q 638 613 615 651 q 667 529 661 574 l 635 540 l 635 729 l 779 729 l 779 0 l 635 0 l 635 174 l 668 183 q 634 110 660 146 q 569 47 608 75 q 481 3 529 19 q 381 -14 433 -14 m 418 118 q 533 150 483 118 q 612 238 583 182 q 640 367 640 294 q 612 493 640 438 q 533 581 583 549 q 418 613 483 613 q 305 581 354 613 q 227 493 256 549 q 199 367 199 438 q 227 238 199 294 q 305 150 256 182 q 418 118 354 118 m 510 842 l 268 972 l 358 1086 l 557 913 l 510 842 z "},"ả":{"ha":879,"x_min":53,"x_max":779,"o":"m 381 -14 q 216 36 290 -14 q 97 172 142 86 q 53 367 53 258 q 98 562 53 476 q 220 696 143 647 q 393 744 297 744 q 497 728 450 744 q 580 681 544 711 q 638 613 615 651 q 667 529 661 574 l 635 540 l 635 729 l 779 729 l 779 0 l 635 0 l 635 174 l 668 183 q 634 110 660 146 q 569 47 608 75 q 481 3 529 19 q 381 -14 433 -14 m 418 118 q 533 150 483 118 q 612 238 583 182 q 640 367 640 294 q 612 493 640 438 q 533 581 583 549 q 418 613 483 613 q 305 581 354 613 q 227 493 256 549 q 199 367 199 438 q 227 238 199 294 q 305 150 256 182 q 418 118 354 118 m 408 824 q 393 851 399 838 q 388 876 388 864 q 395 904 388 889 q 425 935 403 919 q 458 958 449 950 q 467 976 467 967 q 455 994 467 989 q 425 1000 443 1000 q 376 993 403 1000 q 326 975 350 986 l 304 1063 q 367 1088 333 1079 q 428 1096 400 1096 q 538 1065 501 1096 q 575 989 575 1033 q 559 934 575 954 q 524 904 543 914 q 487 883 499 892 q 475 860 475 874 q 476 850 475 854 q 479 842 478 846 l 408 824 z "},"ȃ":{"ha":879,"x_min":53,"x_max":779,"o":"m 381 -14 q 216 36 290 -14 q 97 172 142 86 q 53 367 53 258 q 98 562 53 476 q 220 696 143 647 q 393 744 297 744 q 497 728 450 744 q 580 681 544 711 q 638 613 615 651 q 667 529 661 574 l 635 540 l 635 729 l 779 729 l 779 0 l 635 0 l 635 174 l 668 183 q 634 110 660 146 q 569 47 608 75 q 481 3 529 19 q 381 -14 433 -14 m 418 118 q 533 150 483 118 q 612 238 583 182 q 640 367 640 294 q 612 493 640 438 q 533 581 583 549 q 418 613 483 613 q 305 581 354 613 q 227 493 256 549 q 199 367 199 438 q 227 238 199 294 q 305 150 256 182 q 418 118 354 118 m 318 832 l 215 849 q 293 1005 235 947 q 440 1063 351 1063 q 588 1005 529 1063 q 665 849 646 947 l 563 832 q 513 918 544 886 q 440 950 482 950 q 367 918 399 950 q 318 832 336 886 z "},"ā":{"ha":879,"x_min":53,"x_max":779,"o":"m 381 -14 q 216 36 290 -14 q 97 172 142 86 q 53 367 53 258 q 98 562 53 476 q 220 696 143 647 q 393 744 297 744 q 497 728 450 744 q 580 681 544 711 q 638 613 615 651 q 667 529 661 574 l 635 540 l 635 729 l 779 729 l 779 0 l 635 0 l 635 174 l 668 183 q 634 110 660 146 q 569 47 608 75 q 481 3 529 19 q 381 -14 433 -14 m 418 118 q 533 150 483 118 q 612 238 583 182 q 640 367 640 294 q 612 493 640 438 q 533 581 583 549 q 418 613 483 613 q 305 581 354 613 q 227 493 256 549 q 199 367 199 438 q 227 238 199 294 q 305 150 256 182 q 418 118 354 118 m 243 892 l 243 996 l 638 996 l 638 892 l 243 892 z "},"ą":{"ha":879,"x_min":53,"x_max":806,"o":"m 381 -14 q 216 36 290 -14 q 97 172 142 86 q 53 367 53 258 q 98 562 53 476 q 220 696 143 647 q 393 744 297 744 q 497 728 450 744 q 580 681 544 711 q 638 613 615 651 q 667 529 661 574 l 635 540 l 635 729 l 779 729 l 779 0 l 635 0 l 635 174 l 668 183 q 634 110 660 146 q 569 47 608 75 q 481 3 529 19 q 381 -14 433 -14 m 418 118 q 533 150 483 118 q 612 238 583 182 q 640 367 640 294 q 612 493 640 438 q 533 581 583 549 q 418 613 483 613 q 305 581 354 613 q 227 493 256 549 q 199 367 199 438 q 227 238 199 294 q 305 150 256 182 q 418 118 354 118 m 654 -278 q 579 -258 614 -278 q 524 -206 544 -239 q 503 -135 503 -174 q 518 -72 503 -100 q 563 -19 533 -43 q 635 23 592 4 q 733 57 678 42 l 779 0 q 704 -28 739 -8 q 649 -72 669 -47 q 629 -121 629 -96 q 642 -157 629 -143 q 676 -171 656 -171 q 704 -162 692 -171 q 728 -136 717 -153 l 806 -192 q 775 -234 796 -214 q 724 -266 754 -254 q 654 -278 694 -278 z "},"å":{"ha":879,"x_min":53,"x_max":779,"o":"m 381 -14 q 216 36 290 -14 q 97 172 142 86 q 53 367 53 258 q 98 562 53 476 q 220 696 143 647 q 393 744 297 744 q 497 728 450 744 q 580 681 544 711 q 638 613 615 651 q 667 529 661 574 l 635 540 l 635 729 l 779 729 l 779 0 l 635 0 l 635 174 l 668 183 q 634 110 660 146 q 569 47 608 75 q 481 3 529 19 q 381 -14 433 -14 m 418 118 q 533 150 483 118 q 612 238 583 182 q 640 367 640 294 q 612 493 640 438 q 533 581 583 549 q 418 613 483 613 q 305 581 354 613 q 227 493 256 549 q 199 367 199 438 q 227 238 199 294 q 305 150 256 182 q 418 118 354 118 m 439 839 q 365 859 400 839 q 309 913 331 879 q 288 985 288 946 q 308 1058 288 1025 q 364 1112 329 1092 q 439 1132 399 1132 q 515 1112 481 1132 q 571 1058 550 1092 q 592 985 592 1025 q 571 913 592 946 q 515 859 550 879 q 439 839 481 839 m 439 921 q 488 940 468 921 q 508 985 508 958 q 488 1032 508 1014 q 439 1050 468 1050 q 390 1031 410 1050 q 371 985 371 1013 q 391 940 371 958 q 439 921 411 921 z "},"ǻ":{"ha":879,"x_min":53,"x_max":779,"o":"m 381 -14 q 216 36 290 -14 q 97 172 142 86 q 53 367 53 258 q 98 562 53 476 q 220 696 143 647 q 393 744 297 744 q 497 728 450 744 q 580 681 544 711 q 638 613 615 651 q 667 529 661 574 l 635 540 l 635 729 l 779 729 l 779 0 l 635 0 l 635 174 l 668 183 q 634 110 660 146 q 569 47 608 75 q 481 3 529 19 q 381 -14 433 -14 m 418 118 q 533 150 483 118 q 612 238 583 182 q 640 367 640 294 q 612 493 640 438 q 533 581 583 549 q 418 613 483 613 q 305 581 354 613 q 227 493 256 549 q 199 367 199 438 q 227 238 199 294 q 305 150 256 182 q 418 118 354 118 m 439 839 q 365 859 400 839 q 309 913 331 879 q 288 985 288 946 q 308 1058 288 1025 q 364 1112 329 1092 q 439 1132 399 1132 q 515 1112 481 1132 q 571 1058 550 1092 q 592 985 592 1025 q 571 913 592 946 q 515 859 550 879 q 439 839 481 839 m 439 921 q 488 940 468 921 q 508 985 508 958 q 488 1032 508 1014 q 439 1050 468 1050 q 390 1031 410 1050 q 371 985 371 1013 q 391 940 371 958 q 439 921 411 921 m 343 1165 l 296 1236 l 494 1410 l 585 1296 l 343 1165 z "},"ã":{"ha":879,"x_min":53,"x_max":779,"o":"m 381 -14 q 216 36 290 -14 q 97 172 142 86 q 53 367 53 258 q 98 562 53 476 q 220 696 143 647 q 393 744 297 744 q 497 728 450 744 q 580 681 544 711 q 638 613 615 651 q 667 529 661 574 l 635 540 l 635 729 l 779 729 l 779 0 l 635 0 l 635 174 l 668 183 q 634 110 660 146 q 569 47 608 75 q 481 3 529 19 q 381 -14 433 -14 m 418 118 q 533 150 483 118 q 612 238 583 182 q 640 367 640 294 q 612 493 640 438 q 533 581 583 549 q 418 613 483 613 q 305 581 354 613 q 227 493 256 549 q 199 367 199 438 q 227 238 199 294 q 305 150 256 182 q 418 118 354 118 m 511 854 q 465 865 483 854 q 425 893 446 876 q 385 926 399 917 q 361 935 372 935 q 329 915 343 935 q 310 854 315 894 l 215 868 q 259 986 218 936 q 368 1036 300 1036 q 415 1025 396 1036 q 454 997 433 1014 q 494 965 482 975 q 518 956 507 956 q 551 976 538 956 q 569 1036 564 997 l 664 1022 q 643 939 663 978 q 590 877 624 900 q 511 854 557 854 z "},"æ":{"ha":1249,"x_min":53,"x_max":1193,"o":"m 300 -14 q 174 14 229 -14 q 85 91 118 42 q 53 207 53 140 q 74 310 53 265 q 136 384 94 354 q 239 428 178 414 q 381 443 300 443 l 1068 443 l 1047 419 l 1047 453 q 1017 535 1043 499 q 950 592 990 571 q 863 613 910 613 q 745 585 793 613 q 672 502 697 557 q 647 367 647 447 q 682 237 647 293 q 776 149 717 181 q 908 117 835 117 q 1009 135 963 117 q 1110 200 1056 153 l 1179 96 q 1099 39 1146 64 q 999 0 1051 14 q 894 -14 946 -14 q 697 33 782 -14 q 565 163 613 79 q 518 357 518 247 q 544 513 518 442 q 617 635 571 583 q 727 716 664 688 q 863 744 790 744 q 1032 697 957 743 q 1150 572 1107 651 q 1193 390 1193 492 l 1192 329 l 363 329 q 288 322 321 329 q 233 298 256 314 q 199 260 210 282 q 188 210 188 239 q 203 156 188 179 q 244 121 218 133 q 306 108 271 108 q 401 126 356 108 q 481 174 446 143 q 536 242 517 204 l 597 149 q 518 64 565 100 q 415 7 471 28 q 300 -14 360 -14 m 518 357 l 518 494 q 506 542 518 519 q 472 579 493 564 q 422 603 450 594 q 364 613 394 613 q 253 588 303 613 q 164 511 204 563 l 71 604 q 158 681 111 650 q 257 728 204 713 q 367 744 310 744 q 483 731 432 744 q 572 691 535 717 q 628 627 608 665 q 647 539 647 589 l 647 365 l 518 357 z "},"ǽ":{"ha":1249,"x_min":53,"x_max":1193,"o":"m 300 -14 q 174 14 229 -14 q 85 91 118 42 q 53 207 53 140 q 74 310 53 265 q 136 384 94 354 q 239 428 178 414 q 381 443 300 443 l 1068 443 l 1047 419 l 1047 453 q 1017 535 1043 499 q 950 592 990 571 q 863 613 910 613 q 745 585 793 613 q 672 502 697 557 q 647 367 647 447 q 682 237 647 293 q 776 149 717 181 q 908 117 835 117 q 1009 135 963 117 q 1110 200 1056 153 l 1179 96 q 1099 39 1146 64 q 999 0 1051 14 q 894 -14 946 -14 q 697 33 782 -14 q 565 163 613 79 q 518 357 518 247 q 544 513 518 442 q 617 635 571 583 q 727 716 664 688 q 863 744 790 744 q 1032 697 957 743 q 1150 572 1107 651 q 1193 390 1193 492 l 1192 329 l 363 329 q 288 322 321 329 q 233 298 256 314 q 199 260 210 282 q 188 210 188 239 q 203 156 188 179 q 244 121 218 133 q 306 108 271 108 q 401 126 356 108 q 481 174 446 143 q 536 242 517 204 l 597 149 q 518 64 565 100 q 415 7 471 28 q 300 -14 360 -14 m 518 357 l 518 494 q 506 542 518 519 q 472 579 493 564 q 422 603 450 594 q 364 613 394 613 q 253 588 303 613 q 164 511 204 563 l 71 604 q 158 681 111 650 q 257 728 204 713 q 367 744 310 744 q 483 731 432 744 q 572 691 535 717 q 628 627 608 665 q 647 539 647 589 l 647 365 l 518 357 m 528 842 l 481 913 l 679 1086 l 769 972 l 528 842 z "},"b":{"ha":875,"x_min":100,"x_max":819,"o":"m 483 -14 q 390 1 436 -14 q 305 42 343 17 q 241 99 267 68 q 207 163 215 131 l 243 182 l 243 4 l 100 4 l 100 1028 l 243 1028 l 243 563 l 221 575 q 251 637 228 607 q 312 691 275 667 q 392 730 349 715 q 479 744 435 744 q 654 696 578 744 q 775 562 731 647 q 819 367 819 476 q 776 171 819 257 q 656 35 732 85 q 483 -14 579 -14 m 460 117 q 574 149 524 117 q 653 238 624 182 q 682 367 682 294 q 653 494 682 438 q 575 582 625 550 q 460 614 525 614 q 344 582 394 614 q 265 494 294 550 q 236 367 236 438 q 265 238 236 294 q 344 149 294 182 q 460 117 394 117 z "},"c":{"ha":743,"x_min":56,"x_max":708,"o":"m 410 -14 q 228 36 308 -14 q 102 172 149 86 q 56 365 56 258 q 102 558 56 472 q 228 694 149 644 q 410 744 308 744 q 587 705 507 744 q 708 597 667 665 l 629 500 q 572 558 607 532 q 499 600 538 585 q 424 615 460 615 q 305 583 357 615 q 222 493 253 550 q 192 365 192 436 q 224 238 192 294 q 308 149 256 182 q 425 115 361 115 q 498 128 463 115 q 567 165 533 140 q 629 226 600 190 l 708 129 q 581 26 664 67 q 410 -14 499 -14 z "},"ć":{"ha":743,"x_min":56,"x_max":708,"o":"m 410 -14 q 228 36 308 -14 q 102 172 149 86 q 56 365 56 258 q 102 558 56 472 q 228 694 149 644 q 410 744 308 744 q 587 705 507 744 q 708 597 667 665 l 629 500 q 572 558 607 532 q 499 600 538 585 q 424 615 460 615 q 305 583 357 615 q 222 493 253 550 q 192 365 192 436 q 224 238 192 294 q 308 149 256 182 q 425 115 361 115 q 498 128 463 115 q 567 165 533 140 q 629 226 600 190 l 708 129 q 581 26 664 67 q 410 -14 499 -14 m 313 842 l 265 913 l 464 1086 l 554 972 l 313 842 z "},"č":{"ha":743,"x_min":56,"x_max":708,"o":"m 410 -14 q 228 36 308 -14 q 102 172 149 86 q 56 365 56 258 q 102 558 56 472 q 228 694 149 644 q 410 744 308 744 q 587 705 507 744 q 708 597 667 665 l 629 500 q 572 558 607 532 q 499 600 538 585 q 424 615 460 615 q 305 583 357 615 q 222 493 253 550 q 192 365 192 436 q 224 238 192 294 q 308 149 256 182 q 425 115 361 115 q 498 128 463 115 q 567 165 533 140 q 629 226 600 190 l 708 129 q 581 26 664 67 q 410 -14 499 -14 m 350 843 l 204 1000 l 257 1046 l 431 944 l 389 944 l 563 1046 l 615 1000 l 469 843 l 350 843 z "},"ç":{"ha":743,"x_min":56,"x_max":708,"o":"m 410 -14 q 228 36 308 -14 q 102 172 149 86 q 56 365 56 258 q 102 558 56 472 q 228 694 149 644 q 410 744 308 744 q 587 705 507 744 q 708 597 667 665 l 629 500 q 572 558 607 532 q 499 600 538 585 q 424 615 460 615 q 305 583 357 615 q 222 493 253 550 q 192 365 192 436 q 224 238 192 294 q 308 149 256 182 q 425 115 361 115 q 498 128 463 115 q 567 165 533 140 q 629 226 600 190 l 708 129 q 581 26 664 67 q 410 -14 499 -14 m 283 -339 l 274 -265 q 343 -254 307 -265 q 404 -226 379 -243 q 429 -192 429 -208 q 406 -161 429 -172 q 353 -144 382 -150 q 304 -139 324 -139 l 286 -125 l 386 33 l 468 33 l 408 -64 q 513 -111 478 -78 q 547 -193 547 -144 q 523 -257 547 -229 q 460 -303 499 -285 q 374 -331 421 -322 q 283 -339 328 -340 z "},"ḉ":{"ha":743,"x_min":56,"x_max":708,"o":"m 410 -14 q 228 36 308 -14 q 102 172 149 86 q 56 365 56 258 q 102 558 56 472 q 228 694 149 644 q 410 744 308 744 q 587 705 507 744 q 708 597 667 665 l 629 500 q 572 558 607 532 q 499 600 538 585 q 424 615 460 615 q 305 583 357 615 q 222 493 253 550 q 192 365 192 436 q 224 238 192 294 q 308 149 256 182 q 425 115 361 115 q 498 128 463 115 q 567 165 533 140 q 629 226 600 190 l 708 129 q 581 26 664 67 q 410 -14 499 -14 m 283 -339 l 274 -265 q 343 -254 307 -265 q 404 -226 379 -243 q 429 -192 429 -208 q 406 -161 429 -172 q 353 -144 382 -150 q 304 -139 324 -139 l 286 -125 l 386 33 l 468 33 l 408 -64 q 513 -111 478 -78 q 547 -193 547 -144 q 523 -257 547 -229 q 460 -303 499 -285 q 374 -331 421 -322 q 283 -339 328 -340 m 313 842 l 265 913 l 464 1086 l 554 972 l 313 842 z "},"ĉ":{"ha":743,"x_min":56,"x_max":708,"o":"m 410 -14 q 228 36 308 -14 q 102 172 149 86 q 56 365 56 258 q 102 558 56 472 q 228 694 149 644 q 410 744 308 744 q 587 705 507 744 q 708 597 667 665 l 629 500 q 572 558 607 532 q 499 600 538 585 q 424 615 460 615 q 305 583 357 615 q 222 493 253 550 q 192 365 192 436 q 224 238 192 294 q 308 149 256 182 q 425 115 361 115 q 498 128 463 115 q 567 165 533 140 q 629 226 600 190 l 708 129 q 581 26 664 67 q 410 -14 499 -14 m 243 843 l 190 889 l 350 1046 l 469 1046 l 629 889 l 576 843 l 389 944 l 431 944 l 243 843 z "},"ċ":{"ha":743,"x_min":56,"x_max":708,"o":"m 410 -14 q 228 36 308 -14 q 102 172 149 86 q 56 365 56 258 q 102 558 56 472 q 228 694 149 644 q 410 744 308 744 q 587 705 507 744 q 708 597 667 665 l 629 500 q 572 558 607 532 q 499 600 538 585 q 424 615 460 615 q 305 583 357 615 q 222 493 253 550 q 192 365 192 436 q 224 238 192 294 q 308 149 256 182 q 425 115 361 115 q 498 128 463 115 q 567 165 533 140 q 629 226 600 190 l 708 129 q 581 26 664 67 q 410 -14 499 -14 m 410 890 q 339 914 364 890 q 314 981 314 938 q 340 1046 314 1021 q 410 1071 365 1071 q 481 1047 456 1071 q 506 981 506 1024 q 480 915 506 940 q 410 890 454 890 z "},"d":{"ha":881,"x_min":56,"x_max":783,"o":"m 404 -14 q 226 35 304 -14 q 101 170 147 85 q 56 365 56 256 q 101 560 56 475 q 224 695 146 646 q 400 744 301 744 q 505 727 454 744 q 596 680 556 710 q 659 615 636 650 q 682 543 682 579 l 640 540 l 640 1028 l 783 1028 l 783 0 l 640 0 l 640 174 l 668 174 q 646 108 668 140 q 587 47 624 75 q 502 3 550 19 q 404 -14 454 -14 m 424 110 q 539 143 489 110 q 617 234 589 176 q 646 365 646 292 q 617 497 646 439 q 539 588 589 554 q 424 621 489 621 q 308 588 358 621 q 230 497 258 554 q 201 365 201 439 q 230 234 201 292 q 308 143 258 176 q 424 110 358 110 z "},"ð":{"ha":797,"x_min":56,"x_max":742,"o":"m 399 -10 q 225 40 303 -10 q 101 175 147 90 q 56 364 56 260 q 82 506 56 439 q 154 624 108 572 q 259 704 200 675 q 382 733 318 733 q 506 703 451 733 q 598 616 561 672 q 650 483 635 560 l 581 526 q 563 642 578 590 q 522 737 549 694 q 456 812 496 779 q 362 871 417 844 q 235 919 307 897 l 293 1028 q 444 969 375 1008 q 569 872 514 929 q 663 742 624 815 q 722 580 701 668 q 742 390 742 492 q 698 182 742 272 q 576 41 654 92 q 399 -10 499 -10 m 399 124 q 504 156 457 124 q 579 242 551 188 q 607 364 607 296 q 579 483 607 429 q 504 568 551 536 q 399 600 457 600 q 293 569 340 600 q 218 484 246 538 q 190 364 190 431 q 218 242 190 296 q 293 156 246 188 q 399 124 340 124 m 217 733 l 199 824 l 400 875 l 476 903 l 679 949 l 704 857 l 547 821 l 490 797 l 217 733 z "},"ď":{"ha":907,"x_min":56,"x_max":1058,"o":"m 404 -14 q 226 35 304 -14 q 101 170 147 85 q 56 365 56 256 q 101 560 56 475 q 224 695 146 646 q 400 744 301 744 q 505 727 454 744 q 596 680 556 710 q 659 615 636 650 q 682 543 682 579 l 640 540 l 640 1028 l 783 1028 l 783 0 l 640 0 l 640 174 l 668 174 q 646 108 668 140 q 587 47 624 75 q 502 3 550 19 q 404 -14 454 -14 m 424 110 q 539 143 489 110 q 617 234 589 176 q 646 365 646 292 q 617 497 646 439 q 539 588 589 554 q 424 621 489 621 q 308 588 358 621 q 230 497 258 554 q 201 365 201 439 q 230 234 201 292 q 308 143 258 176 q 424 110 358 110 m 886 753 l 853 811 q 890 828 872 817 q 917 855 907 840 q 928 883 928 869 q 923 897 928 892 q 901 907 918 903 q 868 926 876 914 q 860 960 860 939 q 885 1009 860 990 q 950 1028 910 1028 q 1027 999 996 1028 q 1058 921 1058 969 q 1046 869 1058 894 q 1011 823 1033 844 q 957 783 989 801 q 886 753 925 765 z "},"đ":{"ha":881,"x_min":56,"x_max":881,"o":"m 508 818 l 508 943 l 881 943 l 881 818 l 508 818 m 404 -14 q 226 35 304 -14 q 101 170 147 85 q 56 365 56 256 q 101 560 56 475 q 224 695 146 646 q 400 744 301 744 q 505 727 454 744 q 596 680 556 710 q 659 615 636 650 q 682 543 682 579 l 640 540 l 640 1028 l 783 1028 l 783 0 l 640 0 l 640 174 l 668 174 q 646 108 668 140 q 587 47 624 75 q 502 3 550 19 q 404 -14 454 -14 m 424 110 q 539 143 489 110 q 617 234 589 176 q 646 365 646 292 q 617 497 646 439 q 539 588 589 554 q 424 621 489 621 q 308 588 358 621 q 230 497 258 554 q 201 365 201 439 q 230 234 201 292 q 308 143 258 176 q 424 110 358 110 z "},"ḍ":{"ha":881,"x_min":56,"x_max":783,"o":"m 404 -14 q 226 35 304 -14 q 101 170 147 85 q 56 365 56 256 q 101 560 56 475 q 224 695 146 646 q 400 744 301 744 q 505 727 454 744 q 596 680 556 710 q 659 615 636 650 q 682 543 682 579 l 640 540 l 640 1028 l 783 1028 l 783 0 l 640 0 l 640 174 l 668 174 q 646 108 668 140 q 587 47 624 75 q 502 3 550 19 q 404 -14 454 -14 m 424 110 q 539 143 489 110 q 617 234 589 176 q 646 365 646 292 q 617 497 646 439 q 539 588 589 554 q 424 621 489 621 q 308 588 358 621 q 230 497 258 554 q 201 365 201 439 q 230 234 201 292 q 308 143 258 176 q 424 110 358 110 m 440 -286 q 369 -262 394 -286 q 344 -196 344 -239 q 370 -131 344 -156 q 440 -106 396 -106 q 511 -129 486 -106 q 536 -196 536 -153 q 510 -261 536 -236 q 440 -286 485 -286 z "},"ḏ":{"ha":881,"x_min":56,"x_max":783,"o":"m 404 -14 q 226 35 304 -14 q 101 170 147 85 q 56 365 56 256 q 101 560 56 475 q 224 695 146 646 q 400 744 301 744 q 505 727 454 744 q 596 680 556 710 q 659 615 636 650 q 682 543 682 579 l 640 540 l 640 1028 l 783 1028 l 783 0 l 640 0 l 640 174 l 668 174 q 646 108 668 140 q 587 47 624 75 q 502 3 550 19 q 404 -14 454 -14 m 424 110 q 539 143 489 110 q 617 234 589 176 q 646 365 646 292 q 617 497 646 439 q 539 588 589 554 q 424 621 489 621 q 308 588 358 621 q 230 497 258 554 q 201 365 201 439 q 230 234 201 292 q 308 143 258 176 q 424 110 358 110 m 244 -247 l 244 -144 l 635 -144 l 635 -247 l 244 -247 z "},"ǆ":{"ha":1553,"x_min":56,"x_max":1490,"o":"m 404 -14 q 226 35 304 -14 q 101 170 147 85 q 56 365 56 256 q 101 560 56 475 q 224 695 146 646 q 400 744 301 744 q 505 727 454 744 q 596 680 556 710 q 659 615 636 650 q 682 543 682 579 l 640 540 l 640 1028 l 783 1028 l 783 0 l 640 0 l 640 174 l 668 174 q 646 108 668 140 q 587 47 624 75 q 502 3 550 19 q 404 -14 454 -14 m 424 110 q 539 143 489 110 q 617 234 589 176 q 646 365 646 292 q 617 497 646 439 q 539 588 589 554 q 424 621 489 621 q 308 588 358 621 q 230 497 258 554 q 201 365 201 439 q 230 234 201 292 q 308 143 258 176 q 424 110 358 110 m 950 0 l 950 119 l 1326 622 l 1326 606 l 950 606 l 950 729 l 1482 729 l 1482 613 l 1111 117 l 1106 124 l 1490 124 l 1490 0 l 950 0 m 1157 843 l 1011 1000 l 1064 1046 l 1238 944 l 1196 944 l 1369 1046 l 1422 1000 l 1276 843 l 1157 843 z "},"e":{"ha":814,"x_min":56,"x_max":760,"o":"m 440 -14 q 241 34 328 -14 q 105 165 154 82 q 56 357 56 249 q 83 514 56 443 q 160 637 111 585 q 278 717 210 689 q 428 746 347 746 q 560 719 499 746 q 666 644 621 692 q 735 533 711 597 q 758 392 760 468 l 757 331 l 161 331 l 129 444 l 633 444 l 613 421 l 613 454 q 582 536 608 500 q 515 593 556 572 q 428 614 475 614 q 301 585 353 614 q 224 502 250 557 q 197 367 197 447 q 229 234 197 290 q 319 147 261 178 q 454 117 378 117 q 555 135 508 117 q 656 200 601 153 l 728 99 q 647 40 694 65 q 545 1 599 15 q 440 -14 492 -14 z "},"é":{"ha":814,"x_min":56,"x_max":760,"o":"m 440 -14 q 241 34 328 -14 q 105 165 154 82 q 56 357 56 249 q 83 514 56 443 q 160 637 111 585 q 278 717 210 689 q 428 746 347 746 q 560 719 499 746 q 666 644 621 692 q 735 533 711 597 q 758 392 760 468 l 757 331 l 161 331 l 129 444 l 633 444 l 613 421 l 613 454 q 582 536 608 500 q 515 593 556 572 q 428 614 475 614 q 301 585 353 614 q 224 502 250 557 q 197 367 197 447 q 229 234 197 290 q 319 147 261 178 q 454 117 378 117 q 555 135 508 117 q 656 200 601 153 l 728 99 q 647 40 694 65 q 545 1 599 15 q 440 -14 492 -14 m 331 842 l 283 913 l 482 1086 l 572 972 l 331 842 z "},"ĕ":{"ha":814,"x_min":56,"x_max":760,"o":"m 440 -14 q 241 34 328 -14 q 105 165 154 82 q 56 357 56 249 q 83 514 56 443 q 160 637 111 585 q 278 717 210 689 q 428 746 347 746 q 560 719 499 746 q 666 644 621 692 q 735 533 711 597 q 758 392 760 468 l 757 331 l 161 331 l 129 444 l 633 444 l 613 421 l 613 454 q 582 536 608 500 q 515 593 556 572 q 428 614 475 614 q 301 585 353 614 q 224 502 250 557 q 197 367 197 447 q 229 234 197 290 q 319 147 261 178 q 454 117 378 117 q 555 135 508 117 q 656 200 601 153 l 728 99 q 647 40 694 65 q 545 1 599 15 q 440 -14 492 -14 m 428 818 q 281 876 339 818 q 203 1032 222 933 l 306 1049 q 355 963 324 994 q 428 931 386 931 q 501 963 469 931 q 550 1049 532 994 l 653 1032 q 575 876 633 933 q 428 818 517 818 z "},"ě":{"ha":814,"x_min":56,"x_max":760,"o":"m 440 -14 q 241 34 328 -14 q 105 165 154 82 q 56 357 56 249 q 83 514 56 443 q 160 637 111 585 q 278 717 210 689 q 428 746 347 746 q 560 719 499 746 q 666 644 621 692 q 735 533 711 597 q 758 392 760 468 l 757 331 l 161 331 l 129 444 l 633 444 l 613 421 l 613 454 q 582 536 608 500 q 515 593 556 572 q 428 614 475 614 q 301 585 353 614 q 224 502 250 557 q 197 367 197 447 q 229 234 197 290 q 319 147 261 178 q 454 117 378 117 q 555 135 508 117 q 656 200 601 153 l 728 99 q 647 40 694 65 q 545 1 599 15 q 440 -14 492 -14 m 368 843 l 222 1000 l 275 1046 l 449 944 l 407 944 l 581 1046 l 633 1000 l 488 843 l 368 843 z "},"ḝ":{"ha":814,"x_min":56,"x_max":760,"o":"m 440 -14 q 241 34 328 -14 q 105 165 154 82 q 56 357 56 249 q 83 514 56 443 q 160 637 111 585 q 278 717 210 689 q 428 746 347 746 q 560 719 499 746 q 666 644 621 692 q 735 533 711 597 q 758 392 760 468 l 757 331 l 161 331 l 129 444 l 633 444 l 613 421 l 613 454 q 582 536 608 500 q 515 593 556 572 q 428 614 475 614 q 301 585 353 614 q 224 502 250 557 q 197 367 197 447 q 229 234 197 290 q 319 147 261 178 q 454 117 378 117 q 555 135 508 117 q 656 200 601 153 l 728 99 q 647 40 694 65 q 545 1 599 15 q 440 -14 492 -14 m 313 -339 l 303 -265 q 372 -254 336 -265 q 433 -226 408 -243 q 458 -192 458 -208 q 435 -161 458 -172 q 382 -144 411 -150 q 333 -139 353 -139 l 315 -125 l 415 33 l 497 33 l 438 -64 q 542 -111 507 -78 q 576 -193 576 -144 q 552 -257 576 -229 q 489 -303 528 -285 q 403 -331 450 -322 q 313 -339 357 -340 m 428 818 q 281 876 339 818 q 203 1032 222 933 l 306 1049 q 355 963 324 994 q 428 931 386 931 q 501 963 469 931 q 550 1049 532 994 l 653 1032 q 575 876 633 933 q 428 818 517 818 z "},"ê":{"ha":814,"x_min":56,"x_max":760,"o":"m 440 -14 q 241 34 328 -14 q 105 165 154 82 q 56 357 56 249 q 83 514 56 443 q 160 637 111 585 q 278 717 210 689 q 428 746 347 746 q 560 719 499 746 q 666 644 621 692 q 735 533 711 597 q 758 392 760 468 l 757 331 l 161 331 l 129 444 l 633 444 l 613 421 l 613 454 q 582 536 608 500 q 515 593 556 572 q 428 614 475 614 q 301 585 353 614 q 224 502 250 557 q 197 367 197 447 q 229 234 197 290 q 319 147 261 178 q 454 117 378 117 q 555 135 508 117 q 656 200 601 153 l 728 99 q 647 40 694 65 q 545 1 599 15 q 440 -14 492 -14 m 261 843 l 208 889 l 368 1046 l 488 1046 l 647 889 l 594 843 l 407 944 l 449 944 l 261 843 z "},"ế":{"ha":814,"x_min":56,"x_max":822,"o":"m 440 -14 q 241 34 328 -14 q 105 165 154 82 q 56 357 56 249 q 83 514 56 443 q 160 637 111 585 q 278 717 210 689 q 428 746 347 746 q 560 719 499 746 q 666 644 621 692 q 735 533 711 597 q 758 392 760 468 l 757 331 l 161 331 l 129 444 l 633 444 l 613 421 l 613 454 q 582 536 608 500 q 515 593 556 572 q 428 614 475 614 q 301 585 353 614 q 224 502 250 557 q 197 367 197 447 q 229 234 197 290 q 319 147 261 178 q 454 117 378 117 q 555 135 508 117 q 656 200 601 153 l 728 99 q 647 40 694 65 q 545 1 599 15 q 440 -14 492 -14 m 261 843 l 208 889 l 368 1046 l 488 1046 l 647 889 l 594 843 l 407 944 l 449 944 l 261 843 m 660 1035 l 588 1085 l 701 1288 l 822 1201 l 660 1035 z "},"ệ":{"ha":814,"x_min":56,"x_max":760,"o":"m 440 -14 q 241 34 328 -14 q 105 165 154 82 q 56 357 56 249 q 83 514 56 443 q 160 637 111 585 q 278 717 210 689 q 428 746 347 746 q 560 719 499 746 q 666 644 621 692 q 735 533 711 597 q 758 392 760 468 l 757 331 l 161 331 l 129 444 l 633 444 l 613 421 l 613 454 q 582 536 608 500 q 515 593 556 572 q 428 614 475 614 q 301 585 353 614 q 224 502 250 557 q 197 367 197 447 q 229 234 197 290 q 319 147 261 178 q 454 117 378 117 q 555 135 508 117 q 656 200 601 153 l 728 99 q 647 40 694 65 q 545 1 599 15 q 440 -14 492 -14 m 440 -286 q 369 -262 394 -286 q 344 -196 344 -239 q 370 -131 344 -156 q 440 -106 396 -106 q 511 -129 486 -106 q 536 -196 536 -153 q 510 -261 536 -236 q 440 -286 485 -286 m 261 843 l 208 889 l 368 1046 l 488 1046 l 647 889 l 594 843 l 407 944 l 449 944 l 261 843 z "},"ề":{"ha":814,"x_min":56,"x_max":760,"o":"m 440 -14 q 241 34 328 -14 q 105 165 154 82 q 56 357 56 249 q 83 514 56 443 q 160 637 111 585 q 278 717 210 689 q 428 746 347 746 q 560 719 499 746 q 666 644 621 692 q 735 533 711 597 q 758 392 760 468 l 757 331 l 161 331 l 129 444 l 633 444 l 613 421 l 613 454 q 582 536 608 500 q 515 593 556 572 q 428 614 475 614 q 301 585 353 614 q 224 502 250 557 q 197 367 197 447 q 229 234 197 290 q 319 147 261 178 q 454 117 378 117 q 555 135 508 117 q 656 200 601 153 l 728 99 q 647 40 694 65 q 545 1 599 15 q 440 -14 492 -14 m 261 843 l 208 889 l 368 1046 l 488 1046 l 647 889 l 594 843 l 407 944 l 449 944 l 261 843 m 640 1032 l 472 1200 l 592 1288 l 707 1085 l 640 1032 z "},"ể":{"ha":814,"x_min":56,"x_max":794,"o":"m 440 -14 q 241 34 328 -14 q 105 165 154 82 q 56 357 56 249 q 83 514 56 443 q 160 637 111 585 q 278 717 210 689 q 428 746 347 746 q 560 719 499 746 q 666 644 621 692 q 735 533 711 597 q 758 392 760 468 l 757 331 l 161 331 l 129 444 l 633 444 l 613 421 l 613 454 q 582 536 608 500 q 515 593 556 572 q 428 614 475 614 q 301 585 353 614 q 224 502 250 557 q 197 367 197 447 q 229 234 197 290 q 319 147 261 178 q 454 117 378 117 q 555 135 508 117 q 656 200 601 153 l 728 99 q 647 40 694 65 q 545 1 599 15 q 440 -14 492 -14 m 261 843 l 208 889 l 368 1046 l 488 1046 l 647 889 l 594 843 l 407 944 l 449 944 l 261 843 m 628 1017 q 613 1044 618 1031 q 607 1069 607 1057 q 615 1097 607 1082 q 644 1128 622 1113 q 677 1151 668 1143 q 686 1169 686 1160 q 674 1188 686 1182 q 644 1193 663 1193 q 596 1188 622 1193 q 546 1168 569 1183 l 524 1256 q 586 1281 553 1272 q 647 1289 619 1289 q 758 1258 721 1289 q 794 1182 794 1226 q 778 1127 794 1147 q 743 1097 763 1107 q 706 1076 718 1085 q 694 1053 694 1067 q 696 1043 694 1047 q 699 1035 697 1039 l 628 1017 z "},"ễ":{"ha":814,"x_min":56,"x_max":760,"o":"m 440 -14 q 241 34 328 -14 q 105 165 154 82 q 56 357 56 249 q 83 514 56 443 q 160 637 111 585 q 278 717 210 689 q 428 746 347 746 q 560 719 499 746 q 666 644 621 692 q 735 533 711 597 q 758 392 760 468 l 757 331 l 161 331 l 129 444 l 633 444 l 613 421 l 613 454 q 582 536 608 500 q 515 593 556 572 q 428 614 475 614 q 301 585 353 614 q 224 502 250 557 q 197 367 197 447 q 229 234 197 290 q 319 147 261 178 q 454 117 378 117 q 555 135 508 117 q 656 200 601 153 l 728 99 q 647 40 694 65 q 545 1 599 15 q 440 -14 492 -14 m 260 843 l 207 889 l 367 1046 l 486 1046 l 646 889 l 593 843 l 406 944 l 447 944 l 260 843 m 532 1121 q 465 1134 492 1121 q 414 1157 439 1147 q 382 1171 397 1164 q 349 1178 367 1178 q 317 1164 331 1178 q 297 1126 303 1150 l 203 1140 q 244 1242 206 1199 q 335 1286 283 1286 q 392 1273 367 1286 q 442 1249 417 1260 q 476 1234 460 1240 q 506 1228 492 1228 q 538 1241 525 1228 q 557 1281 551 1254 l 651 1267 q 635 1194 650 1228 q 595 1141 621 1161 q 532 1121 569 1121 z "},"ȅ":{"ha":814,"x_min":53,"x_max":760,"o":"m 440 -14 q 241 34 328 -14 q 105 165 154 82 q 56 357 56 249 q 83 514 56 443 q 160 637 111 585 q 278 717 210 689 q 428 746 347 746 q 560 719 499 746 q 666 644 621 692 q 735 533 711 597 q 758 392 760 468 l 757 331 l 161 331 l 129 444 l 633 444 l 613 421 l 613 454 q 582 536 608 500 q 515 593 556 572 q 428 614 475 614 q 301 585 353 614 q 224 502 250 557 q 197 367 197 447 q 229 234 197 290 q 319 147 261 178 q 454 117 378 117 q 555 135 508 117 q 656 200 601 153 l 728 99 q 647 40 694 65 q 545 1 599 15 q 440 -14 492 -14 m 571 842 l 329 972 l 419 1086 l 618 913 l 571 842 m 294 842 l 53 972 l 143 1086 l 342 913 l 294 842 z "},"ë":{"ha":814,"x_min":56,"x_max":760,"o":"m 440 -14 q 241 34 328 -14 q 105 165 154 82 q 56 357 56 249 q 83 514 56 443 q 160 637 111 585 q 278 717 210 689 q 428 746 347 746 q 560 719 499 746 q 666 644 621 692 q 735 533 711 597 q 758 392 760 468 l 757 331 l 161 331 l 129 444 l 633 444 l 613 421 l 613 454 q 582 536 608 500 q 515 593 556 572 q 428 614 475 614 q 301 585 353 614 q 224 502 250 557 q 197 367 197 447 q 229 234 197 290 q 319 147 261 178 q 454 117 378 117 q 555 135 508 117 q 656 200 601 153 l 728 99 q 647 40 694 65 q 545 1 599 15 q 440 -14 492 -14 m 567 892 q 496 915 521 892 q 471 982 471 939 q 497 1047 471 1022 q 567 1072 522 1072 q 638 1049 613 1072 q 663 982 663 1025 q 637 917 663 942 q 567 892 611 892 m 289 892 q 218 915 243 892 q 193 982 193 939 q 219 1047 193 1022 q 289 1072 244 1072 q 360 1049 335 1072 q 385 982 385 1025 q 359 917 385 942 q 289 892 333 892 z "},"ė":{"ha":814,"x_min":56,"x_max":760,"o":"m 440 -14 q 241 34 328 -14 q 105 165 154 82 q 56 357 56 249 q 83 514 56 443 q 160 637 111 585 q 278 717 210 689 q 428 746 347 746 q 560 719 499 746 q 666 644 621 692 q 735 533 711 597 q 758 392 760 468 l 757 331 l 161 331 l 129 444 l 633 444 l 613 421 l 613 454 q 582 536 608 500 q 515 593 556 572 q 428 614 475 614 q 301 585 353 614 q 224 502 250 557 q 197 367 197 447 q 229 234 197 290 q 319 147 261 178 q 454 117 378 117 q 555 135 508 117 q 656 200 601 153 l 728 99 q 647 40 694 65 q 545 1 599 15 q 440 -14 492 -14 m 428 890 q 357 914 382 890 q 332 981 332 938 q 358 1046 332 1021 q 428 1071 383 1071 q 499 1047 474 1071 q 524 981 524 1024 q 498 915 524 940 q 428 890 472 890 z "},"ẹ":{"ha":814,"x_min":56,"x_max":760,"o":"m 440 -14 q 241 34 328 -14 q 105 165 154 82 q 56 357 56 249 q 83 514 56 443 q 160 637 111 585 q 278 717 210 689 q 428 746 347 746 q 560 719 499 746 q 666 644 621 692 q 735 533 711 597 q 758 392 760 468 l 757 331 l 161 331 l 129 444 l 633 444 l 613 421 l 613 454 q 582 536 608 500 q 515 593 556 572 q 428 614 475 614 q 301 585 353 614 q 224 502 250 557 q 197 367 197 447 q 229 234 197 290 q 319 147 261 178 q 454 117 378 117 q 555 135 508 117 q 656 200 601 153 l 728 99 q 647 40 694 65 q 545 1 599 15 q 440 -14 492 -14 m 440 -286 q 369 -262 394 -286 q 344 -196 344 -239 q 370 -131 344 -156 q 440 -106 396 -106 q 511 -129 486 -106 q 536 -196 536 -153 q 510 -261 536 -236 q 440 -286 485 -286 z "},"è":{"ha":814,"x_min":56,"x_max":760,"o":"m 440 -14 q 241 34 328 -14 q 105 165 154 82 q 56 357 56 249 q 83 514 56 443 q 160 637 111 585 q 278 717 210 689 q 428 746 347 746 q 560 719 499 746 q 666 644 621 692 q 735 533 711 597 q 758 392 760 468 l 757 331 l 161 331 l 129 444 l 633 444 l 613 421 l 613 454 q 582 536 608 500 q 515 593 556 572 q 428 614 475 614 q 301 585 353 614 q 224 502 250 557 q 197 367 197 447 q 229 234 197 290 q 319 147 261 178 q 454 117 378 117 q 555 135 508 117 q 656 200 601 153 l 728 99 q 647 40 694 65 q 545 1 599 15 q 440 -14 492 -14 m 497 842 l 256 972 l 346 1086 l 544 913 l 497 842 z "},"ẻ":{"ha":814,"x_min":56,"x_max":760,"o":"m 440 -14 q 241 34 328 -14 q 105 165 154 82 q 56 357 56 249 q 83 514 56 443 q 160 637 111 585 q 278 717 210 689 q 428 746 347 746 q 560 719 499 746 q 666 644 621 692 q 735 533 711 597 q 758 392 760 468 l 757 331 l 161 331 l 129 444 l 633 444 l 613 421 l 613 454 q 582 536 608 500 q 515 593 556 572 q 428 614 475 614 q 301 585 353 614 q 224 502 250 557 q 197 367 197 447 q 229 234 197 290 q 319 147 261 178 q 454 117 378 117 q 555 135 508 117 q 656 200 601 153 l 728 99 q 647 40 694 65 q 545 1 599 15 q 440 -14 492 -14 m 396 824 q 381 851 386 838 q 375 876 375 864 q 383 904 375 889 q 413 935 390 919 q 445 958 436 950 q 454 976 454 967 q 442 994 454 989 q 413 1000 431 1000 q 364 993 390 1000 q 314 975 338 986 l 292 1063 q 354 1088 321 1079 q 415 1096 388 1096 q 526 1065 489 1096 q 563 989 563 1033 q 547 934 563 954 q 511 904 531 914 q 474 883 486 892 q 463 860 463 874 q 464 850 463 854 q 467 842 465 846 l 396 824 z "},"ȇ":{"ha":814,"x_min":56,"x_max":760,"o":"m 440 -14 q 241 34 328 -14 q 105 165 154 82 q 56 357 56 249 q 83 514 56 443 q 160 637 111 585 q 278 717 210 689 q 428 746 347 746 q 560 719 499 746 q 666 644 621 692 q 735 533 711 597 q 758 392 760 468 l 757 331 l 161 331 l 129 444 l 633 444 l 613 421 l 613 454 q 582 536 608 500 q 515 593 556 572 q 428 614 475 614 q 301 585 353 614 q 224 502 250 557 q 197 367 197 447 q 229 234 197 290 q 319 147 261 178 q 454 117 378 117 q 555 135 508 117 q 656 200 601 153 l 728 99 q 647 40 694 65 q 545 1 599 15 q 440 -14 492 -14 m 306 832 l 203 849 q 281 1005 222 947 q 428 1063 339 1063 q 575 1005 517 1063 q 653 849 633 947 l 550 832 q 501 918 532 886 q 428 950 469 950 q 355 918 386 950 q 306 832 324 886 z "},"ē":{"ha":814,"x_min":56,"x_max":760,"o":"m 440 -14 q 241 34 328 -14 q 105 165 154 82 q 56 357 56 249 q 83 514 56 443 q 160 637 111 585 q 278 717 210 689 q 428 746 347 746 q 560 719 499 746 q 666 644 621 692 q 735 533 711 597 q 758 392 760 468 l 757 331 l 161 331 l 129 444 l 633 444 l 613 421 l 613 454 q 582 536 608 500 q 515 593 556 572 q 428 614 475 614 q 301 585 353 614 q 224 502 250 557 q 197 367 197 447 q 229 234 197 290 q 319 147 261 178 q 454 117 378 117 q 555 135 508 117 q 656 200 601 153 l 728 99 q 647 40 694 65 q 545 1 599 15 q 440 -14 492 -14 m 231 892 l 231 996 l 625 996 l 625 892 l 231 892 z "},"ḗ":{"ha":814,"x_min":56,"x_max":760,"o":"m 440 -14 q 241 34 328 -14 q 105 165 154 82 q 56 357 56 249 q 83 514 56 443 q 160 637 111 585 q 278 717 210 689 q 428 746 347 746 q 560 719 499 746 q 666 644 621 692 q 735 533 711 597 q 758 392 760 468 l 757 331 l 161 331 l 129 444 l 633 444 l 613 421 l 613 454 q 582 536 608 500 q 515 593 556 572 q 428 614 475 614 q 301 585 353 614 q 224 502 250 557 q 197 367 197 447 q 229 234 197 290 q 319 147 261 178 q 454 117 378 117 q 555 135 508 117 q 656 200 601 153 l 728 99 q 647 40 694 65 q 545 1 599 15 q 440 -14 492 -14 m 231 878 l 231 982 l 625 982 l 625 878 l 231 878 m 428 1038 l 356 1088 l 483 1283 l 590 1204 l 428 1038 z "},"ḕ":{"ha":814,"x_min":56,"x_max":760,"o":"m 440 -14 q 241 34 328 -14 q 105 165 154 82 q 56 357 56 249 q 83 514 56 443 q 160 637 111 585 q 278 717 210 689 q 428 746 347 746 q 560 719 499 746 q 666 644 621 692 q 735 533 711 597 q 758 392 760 468 l 757 331 l 161 331 l 129 444 l 633 444 l 613 421 l 613 454 q 582 536 608 500 q 515 593 556 572 q 428 614 475 614 q 301 585 353 614 q 224 502 250 557 q 197 367 197 447 q 229 234 197 290 q 319 147 261 178 q 454 117 378 117 q 555 135 508 117 q 656 200 601 153 l 728 99 q 647 40 694 65 q 545 1 599 15 q 440 -14 492 -14 m 449 1038 l 286 1204 l 393 1283 l 521 1088 l 449 1038 m 231 878 l 231 982 l 625 982 l 625 878 l 231 878 z "},"ę":{"ha":814,"x_min":56,"x_max":760,"o":"m 544 -278 q 428 -237 469 -278 q 388 -140 388 -196 q 424 -33 388 -78 q 519 46 460 11 q 651 111 579 81 l 682 63 q 556 -26 597 15 q 514 -112 514 -68 q 529 -155 514 -139 q 568 -171 544 -171 q 599 -162 588 -171 q 624 -136 611 -153 l 701 -192 q 666 -234 689 -214 q 612 -266 643 -254 q 544 -278 581 -278 m 440 -14 q 241 34 328 -14 q 105 165 154 82 q 56 357 56 249 q 83 514 56 443 q 160 637 111 585 q 278 717 210 689 q 428 746 347 746 q 560 719 499 746 q 666 644 621 692 q 735 533 711 597 q 758 392 760 468 l 757 331 l 161 331 l 129 444 l 633 444 l 613 421 l 613 454 q 582 536 608 500 q 515 593 556 572 q 428 614 475 614 q 301 585 353 614 q 224 502 250 557 q 197 367 197 447 q 229 234 197 290 q 319 147 261 178 q 454 117 378 117 q 555 135 508 117 q 656 200 601 153 l 728 99 q 647 40 694 65 q 545 1 599 15 q 440 -14 492 -14 z "},"ẽ":{"ha":814,"x_min":56,"x_max":760,"o":"m 440 -14 q 241 34 328 -14 q 105 165 154 82 q 56 357 56 249 q 83 514 56 443 q 160 637 111 585 q 278 717 210 689 q 428 746 347 746 q 560 719 499 746 q 666 644 621 692 q 735 533 711 597 q 758 392 760 468 l 757 331 l 161 331 l 129 444 l 633 444 l 613 421 l 613 454 q 582 536 608 500 q 515 593 556 572 q 428 614 475 614 q 301 585 353 614 q 224 502 250 557 q 197 367 197 447 q 229 234 197 290 q 319 147 261 178 q 454 117 378 117 q 555 135 508 117 q 656 200 601 153 l 728 99 q 647 40 694 65 q 545 1 599 15 q 440 -14 492 -14 m 499 854 q 452 865 471 854 q 413 893 433 876 q 373 926 386 917 q 349 935 360 935 q 317 915 331 935 q 297 854 303 894 l 203 868 q 247 986 206 936 q 356 1036 288 1036 q 402 1025 383 1036 q 442 997 421 1014 q 482 965 469 975 q 506 956 494 956 q 538 976 525 956 q 557 1036 551 997 l 651 1022 q 631 939 650 978 q 578 877 611 900 q 499 854 544 854 z "},"ə":{"ha":814,"x_min":56,"x_max":758,"o":"m 386 -17 q 217 31 292 -15 q 99 156 142 76 q 56 338 56 236 l 57 399 l 653 399 l 685 285 l 181 285 l 201 308 l 201 275 q 233 194 207 231 q 299 136 258 157 q 386 115 339 115 q 513 144 461 115 q 590 227 564 172 q 617 363 617 282 q 585 494 617 439 q 495 581 553 550 q 360 613 438 613 q 259 594 306 613 q 158 529 213 576 l 86 631 q 168 689 121 664 q 269 728 215 714 q 374 743 322 743 q 574 696 488 743 q 709 565 660 649 q 758 372 758 481 q 731 215 758 286 q 653 92 703 144 q 536 12 604 40 q 386 -17 468 -17 z "},"f":{"ha":546,"x_min":63,"x_max":542,"o":"m 179 0 l 179 811 q 207 922 179 874 q 283 999 235 971 q 396 1026 332 1026 q 479 1010 440 1026 q 542 965 518 993 l 493 856 q 453 883 475 872 q 413 893 432 893 q 363 884 383 893 q 333 856 343 875 q 324 811 324 838 l 324 0 l 251 0 q 215 0 233 0 q 179 0 197 0 m 63 585 l 63 717 l 496 717 l 496 585 l 63 585 z "},"g":{"ha":901,"x_min":56,"x_max":801,"o":"m 426 -319 q 272 -295 349 -319 q 147 -232 194 -271 l 200 -121 q 265 -158 228 -142 q 344 -183 303 -174 q 426 -192 386 -192 q 554 -167 503 -192 q 632 -93 606 -142 q 658 28 658 -44 l 658 168 l 674 158 q 628 76 667 115 q 533 11 590 36 q 417 -14 476 -14 q 231 35 313 -14 q 103 170 150 85 q 56 365 56 256 q 102 560 56 475 q 230 695 149 646 q 413 744 311 744 q 493 734 454 744 q 565 705 532 724 q 625 664 599 686 q 668 617 651 642 q 689 569 685 592 l 658 558 l 658 729 l 801 729 l 801 44 q 776 -110 801 -43 q 701 -224 750 -178 q 583 -295 653 -271 q 426 -319 514 -319 m 432 118 q 553 150 500 118 q 635 238 606 182 q 664 365 664 293 q 634 494 664 438 q 552 582 604 550 q 432 614 500 614 q 313 581 365 614 q 231 492 261 549 q 201 365 201 436 q 231 238 201 294 q 313 150 261 182 q 432 118 365 118 z "},"ğ":{"ha":901,"x_min":56,"x_max":801,"o":"m 426 -319 q 272 -295 349 -319 q 147 -232 194 -271 l 200 -121 q 265 -158 228 -142 q 344 -183 303 -174 q 426 -192 386 -192 q 554 -167 503 -192 q 632 -93 606 -142 q 658 28 658 -44 l 658 168 l 674 158 q 628 76 667 115 q 533 11 590 36 q 417 -14 476 -14 q 231 35 313 -14 q 103 170 150 85 q 56 365 56 256 q 102 560 56 475 q 230 695 149 646 q 413 744 311 744 q 493 734 454 744 q 565 705 532 724 q 625 664 599 686 q 668 617 651 642 q 689 569 685 592 l 658 558 l 658 729 l 801 729 l 801 44 q 776 -110 801 -43 q 701 -224 750 -178 q 583 -295 653 -271 q 426 -319 514 -319 m 432 118 q 553 150 500 118 q 635 238 606 182 q 664 365 664 293 q 634 494 664 438 q 552 582 604 550 q 432 614 500 614 q 313 581 365 614 q 231 492 261 549 q 201 365 201 436 q 231 238 201 294 q 313 150 261 182 q 432 118 365 118 m 451 818 q 304 876 363 818 q 226 1032 246 933 l 329 1049 q 378 963 347 994 q 451 931 410 931 q 524 963 493 931 q 574 1049 556 994 l 676 1032 q 599 876 657 933 q 451 818 540 818 z "},"ǧ":{"ha":901,"x_min":56,"x_max":801,"o":"m 426 -319 q 272 -295 349 -319 q 147 -232 194 -271 l 200 -121 q 265 -158 228 -142 q 344 -183 303 -174 q 426 -192 386 -192 q 554 -167 503 -192 q 632 -93 606 -142 q 658 28 658 -44 l 658 168 l 674 158 q 628 76 667 115 q 533 11 590 36 q 417 -14 476 -14 q 231 35 313 -14 q 103 170 150 85 q 56 365 56 256 q 102 560 56 475 q 230 695 149 646 q 413 744 311 744 q 493 734 454 744 q 565 705 532 724 q 625 664 599 686 q 668 617 651 642 q 689 569 685 592 l 658 558 l 658 729 l 801 729 l 801 44 q 776 -110 801 -43 q 701 -224 750 -178 q 583 -295 653 -271 q 426 -319 514 -319 m 432 118 q 553 150 500 118 q 635 238 606 182 q 664 365 664 293 q 634 494 664 438 q 552 582 604 550 q 432 614 500 614 q 313 581 365 614 q 231 492 261 549 q 201 365 201 436 q 231 238 201 294 q 313 150 261 182 q 432 118 365 118 m 392 843 l 246 1000 l 299 1046 l 472 944 l 431 944 l 604 1046 l 657 1000 l 511 843 l 392 843 z "},"ĝ":{"ha":901,"x_min":56,"x_max":801,"o":"m 426 -319 q 272 -295 349 -319 q 147 -232 194 -271 l 200 -121 q 265 -158 228 -142 q 344 -183 303 -174 q 426 -192 386 -192 q 554 -167 503 -192 q 632 -93 606 -142 q 658 28 658 -44 l 658 168 l 674 158 q 628 76 667 115 q 533 11 590 36 q 417 -14 476 -14 q 231 35 313 -14 q 103 170 150 85 q 56 365 56 256 q 102 560 56 475 q 230 695 149 646 q 413 744 311 744 q 493 734 454 744 q 565 705 532 724 q 625 664 599 686 q 668 617 651 642 q 689 569 685 592 l 658 558 l 658 729 l 801 729 l 801 44 q 776 -110 801 -43 q 701 -224 750 -178 q 583 -295 653 -271 q 426 -319 514 -319 m 432 118 q 553 150 500 118 q 635 238 606 182 q 664 365 664 293 q 634 494 664 438 q 552 582 604 550 q 432 614 500 614 q 313 581 365 614 q 231 492 261 549 q 201 365 201 436 q 231 238 201 294 q 313 150 261 182 q 432 118 365 118 m 285 843 l 232 889 l 392 1046 l 511 1046 l 671 889 l 618 843 l 431 944 l 472 944 l 285 843 z "},"ģ":{"ha":901,"x_min":56,"x_max":801,"o":"m 426 -319 q 272 -295 349 -319 q 147 -232 194 -271 l 200 -121 q 265 -158 228 -142 q 344 -183 303 -174 q 426 -192 386 -192 q 554 -167 503 -192 q 632 -93 606 -142 q 658 28 658 -44 l 658 168 l 674 158 q 628 76 667 115 q 533 11 590 36 q 417 -14 476 -14 q 231 35 313 -14 q 103 170 150 85 q 56 365 56 256 q 102 560 56 475 q 230 695 149 646 q 413 744 311 744 q 493 734 454 744 q 565 705 532 724 q 625 664 599 686 q 668 617 651 642 q 689 569 685 592 l 658 558 l 658 729 l 801 729 l 801 44 q 776 -110 801 -43 q 701 -224 750 -178 q 583 -295 653 -271 q 426 -319 514 -319 m 432 118 q 553 150 500 118 q 635 238 606 182 q 664 365 664 293 q 634 494 664 438 q 552 582 604 550 q 432 614 500 614 q 313 581 365 614 q 231 492 261 549 q 201 365 201 436 q 231 238 201 294 q 313 150 261 182 q 432 118 365 118 m 457 842 q 384 867 419 842 q 349 949 349 893 q 368 1013 349 985 q 416 1063 388 1042 q 474 1097 444 1083 q 521 1117 503 1111 l 554 1058 q 519 1044 536 1056 q 490 1017 501 1032 q 479 986 479 1001 q 488 968 479 972 q 508 961 497 964 q 535 948 522 957 q 547 910 547 939 q 521 859 547 876 q 457 842 494 842 z "}}}
